<svg width="92" height="92" viewBox="0 0 92 92" fill="none" xmlns="http://www.w3.org/2000/svg">
<g clip-path="url(#clip0_20_3093)">
<path d="M23.9927 86.8062C11.2447 79.8155 2.15286 66.9401 0.334297 51.814C0.0359459 49.979 0 48.0683 0 46.2141C0 20.6908 20.5949 0 46 0C45.1716 3.83601 39.0198 5.12977 39.0198 5.12977C39.1996 5.70015 39.3166 6.30037 39.3625 6.92297C39.3949 7.36201 38.851 7.54899 38.5236 7.25633C37.2401 6.10897 35.879 5.778 34.5185 5.44715C33.479 5.19439 31.7957 4.85568 30.7918 4.23911C28.6479 4.99139 27.9192 6.66379 26.5014 8.30197C25.5486 9.40289 24.5756 10.5272 23.3348 11.4374C23.484 12.088 23.5481 12.7698 23.5151 13.4694C23.4599 14.6436 23.1373 15.7415 22.6094 16.7065C22.4969 16.9122 22.2546 17.002 22.0288 16.9417C21.145 16.7055 20.2229 16.5595 19.2724 16.5143C17.139 16.413 11.0833 16.9297 10.8885 19.7392C10.8435 20.3884 10.7708 21.0426 10.6694 21.7C10.578 22.2932 10.465 22.8767 10.3316 23.4496C12.189 21.4919 14.5506 20.2197 17.0741 19.9286C17.4078 19.8901 17.6697 20.1952 17.5908 20.5232C16.8104 23.7681 15.0456 26.4927 12.7591 28.2975C11.0894 29.6155 9.49128 30.7112 7.8834 31.8136L7.88294 31.8139C3.62388 34.7339 2.49803 38.126 2.06934 41.7319C3.41475 39.1789 5.38446 37.0165 7.76714 35.4423C8.05198 35.2541 8.43166 35.4044 8.50939 35.7379C8.79224 36.9513 8.92091 38.2222 8.87421 39.5275C8.79781 41.6616 8.26042 43.6698 7.36173 45.4591C8.31036 45.9367 9.19748 46.5171 10.0092 47.1853C10.2497 47.3832 10.2473 47.7491 10.0189 47.961C4.69588 52.9008 3.08295 58.9094 6.15993 65.3602C5.56617 62.0574 5.96771 58.6543 7.60204 55.6649C7.87895 55.1584 8.17922 54.673 8.50077 54.2093C8.71495 53.9004 9.17175 53.9382 9.33642 54.2763C10.3287 56.3143 10.9825 58.5047 11.2707 60.7537C12.1281 60.5301 13.0248 60.4022 13.9489 60.3824C14.4635 60.3713 14.112 60.8174 13.4306 61.682C9.54199 66.6163 8.57404 70.5426 12.5645 75.1866C12.4351 74.8131 12.2128 72.4948 12.2938 70.7385C12.3321 69.9106 12.4377 69.2076 12.6523 68.8921C12.7578 68.737 12.8896 68.6756 13.0527 68.739C15.4015 69.6519 17.916 71.7711 19.4296 73.8449C20.1626 74.8494 20.6549 75.9567 20.9151 77.0897C22.5412 76.3351 24.7231 76.6144 25.2903 78.4627C25.6357 79.5878 25.0505 80.7389 23.9833 81.0336C23.1562 81.2621 22.2823 80.9092 21.7702 80.2151C19.9454 84.9078 25.6914 83.8134 23.9927 86.8062Z" fill="#99A1B7"/>
<path d="M68.0073 86.8062C80.7553 79.8155 89.8471 66.9401 91.6657 51.814C91.9641 49.979 92 48.0683 92 46.2141C92 20.6908 71.4051 0 46 0C46.8284 3.83601 52.9802 5.12977 52.9802 5.12977C52.8004 5.70015 52.6834 6.30037 52.6375 6.92297C52.6051 7.36201 53.149 7.54899 53.4764 7.25633C54.7599 6.10897 56.121 5.778 57.4815 5.44715C58.521 5.19439 60.2043 4.85568 61.2082 4.23911C63.3521 4.99139 64.0808 6.66379 65.4986 8.30197C66.4514 9.40289 67.4244 10.5272 68.6652 11.4374C68.516 12.088 68.4519 12.7698 68.4849 13.4694C68.5401 14.6436 68.8627 15.7415 69.3906 16.7065C69.5031 16.9122 69.7454 17.002 69.9712 16.9417C70.855 16.7055 71.7771 16.5595 72.7276 16.5143C74.861 16.413 80.9167 16.9297 81.1115 19.7392C81.1565 20.3884 81.2292 21.0426 81.3306 21.7C81.4221 22.2932 81.535 22.8767 81.6684 23.4496C79.811 21.4919 77.4494 20.2197 74.926 19.9286C74.5922 19.8901 74.3303 20.1952 74.4092 20.5232C75.1896 23.7681 76.9544 26.4927 79.2409 28.2975C80.9106 29.6155 82.5087 30.7112 84.1166 31.8136L84.1171 31.8139C88.3761 34.7339 89.502 38.126 89.9307 41.7319C88.5852 39.1789 86.6155 37.0165 84.2329 35.4423C83.948 35.2541 83.5683 35.4044 83.4906 35.7379C83.2078 36.9513 83.0791 38.2222 83.1258 39.5275C83.2022 41.6616 83.7396 43.6698 84.6383 45.4591C83.6896 45.9367 82.8025 46.5171 81.9908 47.1852C81.7503 47.3832 81.7527 47.7491 81.9811 47.961C87.3041 52.9008 88.917 58.9094 85.8401 65.3602C86.4338 62.0574 86.0323 58.6543 84.398 55.6649C84.121 55.1584 83.8208 54.673 83.4992 54.2093C83.2851 53.9004 82.8283 53.9382 82.6636 54.2763C81.6713 56.3143 81.0175 58.5047 80.7293 60.7537C79.8718 60.5301 78.9752 60.4022 78.0511 60.3824C77.5365 60.3713 77.888 60.8173 78.5694 61.682C82.458 66.6163 83.426 70.5426 79.4355 75.1866C79.5649 74.8131 79.7872 72.4948 79.7062 70.7385C79.6679 69.9106 79.5623 69.2075 79.3477 68.8921C79.2422 68.737 79.1104 68.6756 78.9473 68.739C76.5985 69.6519 74.084 71.7711 72.5704 73.8449C71.8374 74.8493 71.3451 75.9567 71.0849 77.0896C69.4588 76.3351 67.2769 76.6144 66.7097 78.4627C66.3643 79.5878 66.9495 80.7389 68.0167 81.0336C68.8438 81.2621 69.7177 80.9092 70.2298 80.2151C72.0546 84.9078 66.3086 83.8134 68.0073 86.8062Z" fill="#99A1B7"/>
<path fill-rule="evenodd" clip-rule="evenodd" d="M28.2806 75.1326C28.2806 79.6399 27.1704 83.8867 25.2095 87.6122C29.34 89.7155 33.8284 91.2101 38.5583 91.9791C35.8452 90.3517 33.7101 87.8501 32.5367 84.8606C32.3616 84.4146 32.908 84.0778 33.2715 84.3878C36.6508 87.2699 41.024 89.008 45.8007 89.008C50.7221 89.008 55.2151 87.163 58.6341 84.123C58.9911 83.8055 59.5442 84.1308 59.3785 84.5804C58.226 87.7066 56.0296 90.3227 53.2154 92C57.9856 91.2385 62.5117 89.7392 66.6745 87.6219C64.7257 83.9029 63.6226 79.6665 63.6226 75.1712V73.4942C63.6226 72.947 63.7502 72.5028 63.9682 72.1251C64.3682 71.432 65.0347 70.9966 65.6993 70.5624L65.6998 70.562C66.068 70.3215 66.4355 70.0814 66.7567 69.7981C67.1773 69.4271 67.5599 69.0123 67.8977 68.5615C68.4613 67.8093 68.7492 66.9134 69.0362 66.0202C69.3792 64.9529 69.721 63.8893 70.5306 63.0785C70.9341 62.6744 71.4221 62.3929 71.9099 62.1114C72.4484 61.8007 72.9866 61.4902 73.4109 61.0151C73.8033 60.5756 74.1269 60.0725 74.3645 59.5231C74.653 58.8558 74.8157 58.162 74.9785 57.4681L74.9786 57.4676C75.1818 56.6014 75.385 55.7351 75.8326 54.9203C77.2284 52.7658 77.8145 50.1235 77.5089 47.5745C77.4551 47.1263 77.3377 46.6904 77.2203 46.2549L77.22 46.254L77.2199 46.2536C77.0608 45.6633 76.902 45.0737 76.902 44.4549C76.902 43.4833 77.196 42.5522 77.4931 41.6114C77.7963 40.6511 78.1028 39.6807 78.1028 38.6471C78.1028 36.2865 77.363 34.0999 76.1042 32.309C75.7514 31.8072 75.3301 31.3696 74.9097 30.9328L74.909 30.9321C74.3873 30.3902 73.8669 29.8496 73.48 29.1894C73.0462 28.449 72.8858 27.6686 72.7248 26.8854L72.7245 26.8847L72.7241 26.8833C72.6076 26.3168 72.4909 25.7491 72.2703 25.1942C72.0248 24.5765 71.6721 24.0138 71.2354 23.5295C70.5796 22.8022 69.7519 22.3939 68.92 21.9836C68.1898 21.6234 67.4565 21.2616 66.8337 20.6811C66.1327 20.0278 65.5686 19.2279 65.1893 18.3299C64.5971 17.3188 63.6948 16.5138 62.614 16.0471C62.1714 15.8559 61.698 15.7639 61.2233 15.6716C60.7777 15.585 60.331 15.4981 59.9075 15.3288C59.3731 15.1151 58.872 14.807 58.3706 14.4987L58.3701 14.4984C57.946 14.2376 57.5217 13.9768 57.0771 13.773C55.6995 13.1413 54.1684 12.7894 52.5559 12.7894C51.3807 12.7894 50.2488 12.9763 49.1881 13.3222C47.9713 13.8496 46.9469 13.9984 46.0226 13.9984L45.9867 13.9983L45.9517 13.9981V13.9974L45.9033 13.9976L45.8807 13.9976C44.9563 13.9976 43.932 13.8489 42.7153 13.3218C41.6545 12.9762 40.5227 12.7894 39.3474 12.7894C37.7348 12.7894 36.2038 13.1411 34.8261 13.7724C34.3816 13.9761 33.9573 14.2368 33.5331 14.4974L33.5327 14.4976C33.0313 14.8057 32.5302 15.1136 31.9958 15.3272C31.5724 15.4964 31.1256 15.5832 30.6798 15.6699L30.6793 15.6699C30.205 15.7621 29.7319 15.8541 29.2893 16.0451C28.2085 16.5115 27.3062 17.316 26.714 18.3265C26.3347 19.2239 25.7706 20.0233 25.0696 20.6763C24.4468 21.2564 23.7135 21.6179 22.9831 21.978C22.1514 22.388 21.3236 22.796 20.6679 23.5229C20.2312 24.0069 19.8785 24.5692 19.6329 25.1865C19.4123 25.7413 19.2955 26.3088 19.179 26.8749L19.1789 26.8755C19.0177 27.6588 18.8572 28.439 18.4233 29.1792C18.0365 29.8389 17.5162 30.379 16.9946 30.9205L16.9943 30.9209L16.9936 30.9216C16.5732 31.3581 16.1519 31.7955 15.7991 32.297C14.5403 34.0867 13.8005 36.272 13.8005 38.6311C13.8005 39.6641 14.1069 40.6338 14.4103 41.5938C14.7073 42.5339 15.0013 43.4644 15.0013 44.4353C15.0013 45.0538 14.8425 45.643 14.6834 46.2329L14.6833 46.2333L14.683 46.2342C14.5656 46.6695 14.4482 47.105 14.3945 47.553C14.0888 50.1004 14.6749 52.7411 16.0706 54.8942C16.5183 55.7086 16.7215 56.5744 16.9246 57.44C17.0874 58.1337 17.2502 58.8273 17.5388 59.4942C17.7764 60.0433 18.1 60.546 18.4924 60.9853C18.9166 61.4601 19.4549 61.7705 19.9935 62.081C20.4812 62.3623 20.9692 62.6436 21.3727 63.0475C22.1823 63.8577 22.5241 64.9207 22.8671 65.9874C23.1541 66.8801 23.442 67.7753 24.0056 68.5271C24.3435 68.9776 24.726 69.3921 25.1466 69.7628C25.4677 70.0459 25.8352 70.2859 26.2034 70.5263L26.204 70.5267C26.8686 70.9606 27.5351 71.3958 27.9351 72.0885C28.153 72.4659 28.2806 72.9098 28.2806 73.4567V75.1326ZM61.5718 37.5674C61.5441 37.5932 61.5158 37.6186 61.487 37.6437C61.4404 37.6842 61.3925 37.7237 61.3433 37.7623C60.6255 38.7614 59.4575 39.4116 58.1387 39.4116C53.346 39.4116 48.9351 42.246 48.9351 47.5983C48.9351 48.035 48.9377 48.4654 48.9402 48.8925C48.9476 50.1371 48.9548 51.3546 48.8983 52.6239C48.8615 53.4512 51.0458 54.9206 51.1907 53.0312L51.1931 53.0314L51.2421 52.1547H51.2472C51.3078 51.7363 51.3641 51.2007 51.4127 50.6756C51.4671 50.087 52.0604 49.7081 52.599 49.9438C52.8257 50.043 53.0406 50.1405 53.2469 50.235L53.4424 50.3247L53.4429 50.325L53.4434 50.3252C54.6741 50.8907 55.6244 51.3274 57.0465 51.3274C59.0408 51.3274 60.8682 50.8534 62.4565 49.8872C62.5093 49.8551 62.5765 49.8585 62.6244 49.8977C63.83 50.8844 64.7162 52.4766 64.7162 54.155C64.7162 59.6556 57.5251 57.4272 57.5251 67.8613C57.5251 72.8774 56.7558 77.4378 51.7067 79.9882C50.7416 80.4757 49.6374 80.5521 48.5641 80.4325L48.4457 80.4193C47.5717 80.3316 46.8341 79.7779 46.4818 79.0087C46.4182 78.8698 46.3078 78.7546 46.1631 78.7077C45.184 78.39 44.1671 78.1569 43.1209 78.0171C42.4716 77.9303 42.0048 77.3208 42.1035 76.6693L42.1157 76.5881L42.1236 76.5346L42.1321 76.4761L42.1487 76.359C42.1544 76.3181 42.16 76.2772 42.1655 76.2362C42.267 75.4832 43.0231 74.9876 43.7639 75.1352C44.4521 75.2723 45.1636 75.3441 45.8918 75.3441C47.9295 75.3441 49.8366 74.7813 51.4679 73.8018C51.6561 73.6888 51.6483 73.4174 51.4538 73.3156C49.9509 72.5289 48.243 72.0843 46.4318 72.0843C45.6614 72.0843 45.0271 72.2038 44.3516 72.3312C43.8674 72.4224 43.3622 72.5177 42.7708 72.5756C42.5769 72.5945 42.3945 72.4779 42.3374 72.2905C42.2109 71.8754 42.1426 71.4687 42.0971 71.0692C42.0313 70.4902 42.5159 69.9973 43.0944 70.0248L49.2665 70.3185L51.4753 70.2691C51.5063 70.2653 51.5409 70.2613 51.5783 70.2569L51.5807 70.2567C52.1425 70.1916 53.3334 70.0538 52.8497 69.2566L52.8492 69.2562C52.656 68.9386 52.31 68.6426 51.9883 68.3675L51.9874 68.3667C51.8433 68.2435 51.7039 68.1243 51.5857 68.0095C50.8587 67.3031 50.1595 66.8735 49.0824 66.8735C48.4736 66.8735 47.9445 67.0948 47.4219 67.3136C46.912 67.527 46.4083 67.7378 45.8427 67.7378C45.3222 67.7378 45.1222 67.5698 44.7874 67.2204C44.1555 66.5609 44.9921 65.7759 45.8783 65.5662C45.9775 65.5427 46.0761 65.5168 46.1741 65.4885C47.7217 65.0416 49.0288 64.0224 49.8547 62.673C50.1365 62.2127 49.7502 61.6743 49.2168 61.609C48.3371 61.5014 47.685 61.2036 47 60.8907C46.0701 60.4661 45.0795 60.0136 43.3762 59.9709C43.5999 57.849 43.7566 55.423 43.7566 53.2413C43.7566 50.9104 43.6256 48.6103 43.3707 46.3481C42.7165 41.8374 38.6476 39.4606 34.2585 39.4606C31.9297 39.5234 30.982 38.5965 30.1417 37.7747C29.4899 37.1371 28.9027 36.5628 27.7855 36.5628C26.8801 36.5628 26.207 36.9395 25.5704 37.3944C25.4175 37.5035 25.2675 37.6166 25.1175 37.7296C24.8833 37.9061 24.6492 38.0824 24.4046 38.2441C24.1491 38.413 23.8813 38.5666 23.5902 38.6879C21.8484 39.4141 19.7893 39.1055 18.332 37.8961C18.1937 37.7814 18.1779 37.5748 18.3045 37.447C18.4102 37.3403 18.5243 37.2419 18.6458 37.1531C19.094 36.8253 19.6852 36.9311 20.2064 37.1202C20.7535 37.3188 21.3435 37.4271 21.9587 37.4271C23.3798 37.4271 24.4049 36.637 25.4136 35.8595C26.3907 35.1064 27.3525 34.3651 28.6443 34.3651C29.3147 34.3651 29.8303 34.643 30.3364 34.9158C30.5067 35.0077 30.676 35.0989 30.8498 35.1788C31.2008 35.3402 31.4775 34.9731 31.2945 34.631C30.8385 33.778 30.272 32.9358 29.4048 32.5479C28.8691 32.3083 28.2616 32.2085 27.6352 32.289C27.0848 32.3598 26.5833 32.5617 26.1586 32.8589C25.8453 33.0783 25.5579 33.2963 25.2831 33.5049L25.281 33.5065C24.1199 34.388 23.1818 35.1002 21.4434 35.0246C21.0529 35.0077 19.1249 34.3157 19.3506 34.0451C19.8023 33.5885 20.5627 33.6879 21.2824 33.7819C21.6692 33.8325 22.0443 33.8815 22.3531 33.8418C23.2897 33.7213 23.8544 33.0555 24.4225 32.3857L24.4306 32.3762C24.4684 32.3315 24.5064 32.2869 24.5443 32.2424C24.6216 32.152 24.6994 32.0623 24.7787 31.9745C25.6434 31.0172 26.5644 30.4595 27.8765 30.2908C28.5361 30.206 29.0917 30.4243 29.6544 30.6455C30.1427 30.8374 30.6364 31.0315 31.2081 31.0315C32.3244 31.0315 33.2299 30.4797 34.0911 29.8462C34.932 29.2276 35.8797 28.7474 36.9011 28.4387C38.0975 28.0771 39.0604 28.1909 40.0792 28.3114L40.08 28.3114C40.6104 28.3741 41.1561 28.4387 41.7578 28.4387C42.8687 28.4387 43.8265 28.0434 44.8023 27.6407L44.8046 27.6397C45.174 27.4873 45.5458 27.3339 45.9296 27.2005C46.3018 27.3298 46.6701 27.4803 47.039 27.631L47.0399 27.6314C48.0354 28.0381 49.0352 28.4466 50.1254 28.4466C50.7276 28.4466 51.2738 28.3821 51.8047 28.3193C52.8238 28.1989 53.7871 28.085 54.9838 28.4466C56.0056 28.7553 56.9536 29.2357 57.7949 29.8543C58.6563 30.4878 59.5621 31.0397 60.6789 31.0397C61.2507 31.0397 61.7446 30.8456 62.233 30.6537C62.796 30.4325 63.3518 30.2141 64.0116 30.2989C65.3242 30.4677 66.2454 31.0254 67.1105 31.9828C67.18 32.0597 67.2484 32.1382 67.3162 32.2172C67.3666 32.276 67.4167 32.335 67.4668 32.394C68.0351 33.0639 68.6 33.7298 69.5369 33.8503C69.8458 33.89 70.221 33.841 70.608 33.7904C71.3279 33.6963 72.0887 33.597 72.5405 34.0536C72.7662 34.3242 70.8376 35.0163 70.4469 35.0332C68.708 35.1088 67.7695 34.3966 66.6079 33.515C66.3324 33.3059 66.0443 33.0872 65.7301 32.8673C65.3052 32.57 64.8036 32.3682 64.253 32.2974C63.6264 32.2168 63.0187 32.3166 62.4828 32.5563C61.6152 32.9442 61.0485 33.7865 60.5924 34.6395C60.4094 34.9817 60.6861 35.3488 61.0373 35.1874C61.1069 35.1554 61.1758 35.1216 61.2443 35.0867C61.3468 35.0344 61.4486 34.9795 61.5508 34.9244C62.0571 34.6516 62.5729 34.3736 63.2436 34.3736C64.5357 34.3736 65.4979 35.115 66.4753 35.8682C67.4844 36.6458 68.5099 37.4359 69.9315 37.4359C70.5469 37.4359 71.1371 37.3277 71.6843 37.129C72.2057 36.9399 72.7972 36.8341 73.2455 37.1619C73.367 37.2508 73.4812 37.3491 73.587 37.4559C73.7135 37.5836 73.6978 37.7902 73.5594 37.905C72.1016 39.1145 70.0419 39.4231 68.2994 38.6969C67.7267 38.4582 67.2444 38.0948 66.7677 37.7357L66.767 37.7352C65.9872 37.1476 65.2226 36.5716 64.1026 36.5716C63.1259 36.5716 62.2368 36.9492 61.5718 37.5674ZM66.3614 40.5923C66.7734 40.501 67.2213 40.5653 67.6016 40.7492C67.7391 40.8157 67.8599 40.8764 67.9126 40.9134C67.982 40.962 68.0509 41.0118 68.1195 41.0623C68.197 41.1193 68.2741 41.177 68.3511 41.2347C69.0532 41.7606 69.751 42.2833 70.691 42.1911C71.001 42.1607 71.356 42.0289 71.7221 41.893C72.403 41.6402 73.1228 41.3731 73.6642 41.7172C73.9442 41.9306 72.2168 43.0369 71.8397 43.1408C70.6267 43.4752 69.7303 43.3151 68.8256 42.9743C67.8928 42.623 67.0441 42.1446 66.1831 41.6477L66.0131 41.5495C65.6238 41.3248 65.7135 40.7357 66.1518 40.6387L66.3614 40.5923ZM68.9464 50.2981C68.7191 50.0627 68.889 49.6886 69.1523 49.8063C70.1433 50.2493 71.1942 50.4165 72.2469 50.2483L72.2795 50.243L72.3104 50.2378L72.3317 50.2341L72.3627 50.2285L72.3696 50.2272L72.3764 50.2259L72.3829 50.2247L72.3938 50.2227L72.4057 50.2204L72.4183 50.218C72.6789 50.1672 72.8595 50.5861 72.6385 50.7647C72.2959 51.0417 71.903 51.2268 71.4718 51.2957C70.5694 51.4399 69.6703 51.048 68.9464 50.2981ZM67.3256 44.8827C67.783 44.7519 68.3177 44.8155 68.7057 45.0924L68.7172 45.1007L68.721 45.1035L68.7226 45.1046L68.7246 45.1062L68.7271 45.108L68.7338 45.1132L68.7373 45.1158L68.7414 45.1191L68.7437 45.1209L68.7455 45.1224L68.747 45.1237L68.7485 45.1249L68.7501 45.1262L68.7512 45.1271L68.7597 45.1345L68.7816 45.1544L68.7917 45.1637L68.8151 45.1852L68.8512 45.2188L68.8876 45.2529L68.9238 45.2872C68.9538 45.3157 68.9837 45.3444 69.0135 45.3731L69.0972 45.454L69.0978 45.4546C69.6393 45.9784 70.1775 46.499 70.9023 46.4071C71.1414 46.3768 71.415 46.2457 71.6974 46.1103C72.2226 45.8585 72.7777 45.5924 73.1952 45.9351C73.4111 46.1476 72.079 47.2495 71.7881 47.3531C70.8528 47.6861 70.1615 47.5266 69.4638 47.1872C68.7445 46.8373 68.0899 46.3608 67.426 45.8658L67.1805 45.6828C66.8801 45.4589 66.9659 44.9855 67.3256 44.8827ZM25.549 40.5831C25.1371 40.4919 24.6894 40.5561 24.3093 40.74C24.1718 40.8065 24.0511 40.8672 23.9983 40.9042C23.8506 41.0078 23.7052 41.1167 23.56 41.2255C22.8582 41.7514 22.1606 42.274 21.2209 42.1818C20.911 42.1514 20.5562 42.0197 20.1903 41.8838C19.5095 41.631 18.79 41.3639 18.2487 41.708C17.9689 41.9213 19.6956 43.0275 20.0727 43.1314C21.2852 43.4658 22.1813 43.3057 23.0857 42.9649C24.0181 42.6137 24.8666 42.1353 25.7272 41.6384L25.8972 41.5403C26.2863 41.3156 26.1966 40.7265 25.7585 40.6295L25.549 40.5831ZM22.9649 50.2881C23.1921 50.0527 23.0223 49.6786 22.7591 49.7963C21.7684 50.2392 20.7179 50.4065 19.6656 50.2383L19.633 50.233L19.6022 50.2277L19.5808 50.224L19.5498 50.2184L19.5441 50.2173L19.5275 50.2143L19.5136 50.2116L19.4942 50.2079C19.2337 50.1572 19.0531 50.576 19.274 50.7546C19.6166 51.0315 20.0093 51.2166 20.4404 51.2855C21.3424 51.4297 22.2412 51.0378 22.9649 50.2881ZM24.5852 44.8732C24.1279 44.7424 23.5933 44.806 23.2055 45.0828L23.1978 45.0883L23.1866 45.0966L23.1806 45.1011L23.179 45.1023L23.1773 45.1037L23.174 45.1063L23.1717 45.108L23.1688 45.1104L23.167 45.1118L23.1652 45.1133L23.1644 45.1139L23.1623 45.1156L23.1601 45.1175L23.1516 45.1249C23.1209 45.1527 23.0904 45.1808 23.0601 45.2092C23.0358 45.2319 23.0116 45.2547 22.9875 45.2777C22.9293 45.333 22.8714 45.389 22.8135 45.445C22.2722 45.9687 21.7343 46.4893 21.0097 46.3974C20.7707 46.3672 20.4972 46.236 20.2148 46.1006C19.6898 45.8488 19.135 45.5828 18.7176 45.9255C18.5018 46.138 19.8334 47.2397 20.1242 47.3433C21.0592 47.6763 21.7502 47.5168 22.4477 47.1774C23.1667 46.8275 23.8211 46.3511 24.4848 45.8562L24.7302 45.6732C25.0304 45.4493 24.9447 44.976 24.5852 44.8732ZM30.8179 44.3182C30.5152 44.6234 30.8795 45.013 31.2692 44.8336C32.7357 44.1583 34.3665 43.7819 36.0848 43.7819C36.1223 43.7819 36.1599 43.7821 36.1973 43.7824C36.2533 43.783 36.3093 43.7839 36.3652 43.7852C36.7929 43.7955 36.9753 43.2927 36.5786 43.1318C35.9635 42.8822 35.2915 42.7448 34.5877 42.7448C33.115 42.7448 31.7819 43.3462 30.8179 44.3182ZM32.8305 47.9597C32.4919 47.719 32.4919 47.228 32.8305 46.9873C33.6141 46.4303 34.5706 46.103 35.603 46.103C36.6355 46.103 37.5919 46.4303 38.3756 46.9873C38.7142 47.228 38.7142 47.719 38.3756 47.9597C37.5919 48.5167 36.6355 48.844 35.603 48.844C34.5706 48.844 33.6141 48.5167 32.8305 47.9597ZM40.3981 51.3507C40.6839 50.6892 40.4663 49.704 39.8089 49.9916C39.6073 50.0798 39.406 50.1706 39.2043 50.2616C37.9759 50.8156 36.7358 51.375 35.3614 51.375C34.2911 51.375 33.2688 51.2385 32.3058 50.9627C32.0405 50.8867 30.8341 50.3862 30.1906 50.1167C29.9396 50.0115 29.649 50.0505 29.4524 50.2394C29.0237 50.6513 28.6477 51.1418 28.3544 51.6834C27.9408 52.4473 27.6917 53.3127 27.6917 54.2023C27.6917 57.0361 30.1673 59.1386 32.2447 60.8335C32.508 61.0483 32.8838 61.0552 33.1492 60.843C36.2778 58.3417 38.7845 55.0866 40.3981 51.3507ZM61.1495 44.7852C61.5391 44.9646 61.9034 44.5749 61.6007 44.2698C60.6367 43.2976 59.3036 42.6962 57.831 42.6962C57.1271 42.6962 56.4551 42.8336 55.84 43.0832C55.4433 43.2441 55.6258 43.747 56.0534 43.7367C56.1006 43.7356 56.1479 43.7348 56.1953 43.7342C56.2227 43.7339 56.2503 43.7337 56.2778 43.7335L56.3111 43.7334L56.3338 43.7334C58.052 43.7334 59.6829 44.1098 61.1495 44.7852ZM59.5881 47.9117C59.9267 47.671 59.9267 47.1799 59.5881 46.9392C58.8045 46.3821 57.848 46.0548 56.8156 46.0548C55.7831 46.0548 54.8267 46.3821 54.0431 46.9392C53.7045 47.1799 53.7045 47.671 54.0431 47.9117C54.8267 48.4688 55.7831 48.7961 56.8156 48.7961C57.848 48.7961 58.8045 48.4688 59.5881 47.9117ZM45.0929 24.494C45.7369 23.9669 46.1687 23.9392 46.8351 24.4847C46.9365 24.5676 47.0347 24.6451 47.1299 24.7176C48.6996 25.9104 49.4811 25.7113 50.7087 25.3987C51.4346 25.2138 52.3163 24.9892 53.609 24.9892C54.5397 24.9892 55.4217 25.1994 56.2105 25.5753C56.8928 25.9003 57.4538 26.3739 58.0074 26.8412C58.4454 27.211 58.8789 27.5769 59.3642 27.8623C60.6019 28.5901 61.801 28.3091 63.0462 28.0174C63.3457 27.9472 63.6478 27.8765 63.9537 27.8189C64.1764 27.7771 64.4062 27.7552 64.6409 27.7552C65.5466 27.7552 66.3766 28.081 67.0216 28.6225C67.087 28.6774 67.1486 28.7322 67.207 28.7868C67.2709 28.8465 67.331 28.9061 67.388 28.9653C67.4736 29.0541 67.5552 29.1465 67.6349 29.2406C67.6982 29.3153 67.7604 29.391 67.8226 29.4668L67.8233 29.4677L67.8239 29.4685C67.9889 29.6694 68.1539 29.8702 68.3399 30.0519C68.5549 30.2618 68.8078 30.4541 69.1568 30.6211C70.1153 31.0799 70.8949 30.9831 71.7206 30.6427C72.0114 30.5228 71.935 30.1098 71.6225 30.076L71.0466 30.0136C69.9571 29.9205 69.0017 29.3546 68.3834 28.5207C68.3008 28.4093 68.219 28.2968 68.1372 28.1843C67.7557 27.6597 67.3727 27.1331 66.8932 26.6932C66.0751 26.2025 65.3001 26.1809 64.5059 26.2627C64.2835 26.2856 64.062 26.316 63.8405 26.3463C63.757 26.3578 63.6735 26.3692 63.5898 26.3803L63.5527 26.3852C63.3881 26.4066 63.2233 26.4264 63.0579 26.4413C62.8569 26.4594 62.6527 26.471 62.4444 26.471C61.5988 26.471 60.8088 26.232 60.1373 25.8174C59.8295 25.6005 59.5504 25.4009 59.2943 25.2167C59.1541 25.1159 59.0209 25.0197 58.8936 24.9278C57.4023 23.8512 56.7269 23.3638 55.3515 22.9525C54.1048 22.5796 52.9459 22.7176 51.7528 22.8597C51.5652 22.882 51.378 22.9068 51.1908 22.9316L51.1899 22.9317C50.7993 22.9834 50.4087 23.0352 50.0156 23.0644C49.7557 23.0837 49.6258 23.0934 49.5636 22.9889C49.5014 22.8843 49.5677 22.7793 49.7003 22.5692C49.9422 22.186 50.2669 21.8558 50.6515 21.622C51.7384 20.9615 53.4081 20.8333 54.657 20.8569C55.5062 20.8729 56.3071 21.0794 57.0204 21.4349C57.2837 21.5661 57.5263 21.7216 57.7567 21.8905C58.0591 22.1123 58.3424 22.3599 58.6257 22.6076C58.8819 22.8315 59.1381 23.0555 59.4086 23.2605C59.5541 23.3707 59.7033 23.4749 59.8586 23.57C61.07 24.3113 61.875 24.1129 62.9439 23.8494C63.2785 23.7669 63.6391 23.678 64.0461 23.6096C64.3361 23.5608 64.6274 23.5685 64.9186 23.5761C65.1864 23.5831 65.4541 23.5901 65.7206 23.5533C66.044 23.5087 66.1029 23.0912 65.8426 22.893C65.2826 22.4667 64.7995 22.1703 63.9849 22.2661C63.5674 22.3153 63.1395 22.3656 62.692 22.3572C61.9207 22.3426 61.2041 22.1116 60.5986 21.7228C60.5175 21.6635 60.4386 21.6056 60.3618 21.549C60.2719 21.4828 60.1849 21.4184 60.1005 21.3558C59.9308 21.2299 59.7617 21.1029 59.5926 20.976L59.5873 20.9719C59.253 20.721 58.9186 20.47 58.5789 20.2266C57.7882 19.6602 57.2133 19.331 56.2812 19.0338C55.1504 18.6731 54.0907 18.7787 52.9999 18.8874C52.4136 18.9459 51.8182 19.0052 51.1978 18.9935C50.939 18.9886 50.5726 18.9506 50.2478 18.9103C49.9263 18.8704 49.7655 18.8505 49.7258 18.7333C49.6861 18.6162 49.8008 18.502 50.0302 18.2735C50.1457 18.1585 50.2623 18.0465 50.358 17.9632C51.1403 17.2822 52.0507 17.1716 53.0478 17.1191C53.9363 17.0724 54.7861 17.1997 55.5532 17.467C56.2466 17.7087 56.8587 18.0352 57.4503 18.3508C58.9779 19.1658 60.363 19.6379 62.0839 19.1502C62.3396 19.0782 62.4119 18.7404 62.2042 18.574C61.6925 18.1641 61.1327 17.9329 60.4876 17.8124C59.4593 17.6202 58.5027 17.1057 57.5434 16.5896C56.5999 16.0821 55.6539 15.5731 54.6343 15.3683C53.4303 15.1265 52.3292 15.2974 51.1958 15.4733C49.5149 15.7341 48.3211 16.2865 46.8106 17.0483C46.6711 17.1187 46.5232 17.1747 46.3688 17.2145C46.0482 17.297 45.7645 17.2924 45.4484 17.1931C45.3338 17.1571 45.2232 17.112 45.1174 17.0586C43.6075 16.2968 42.4141 15.7445 40.7338 15.4837C39.6007 15.3078 38.5 15.137 37.2964 15.3788C36.2772 15.5835 35.3315 16.0924 34.3882 16.6C33.4293 17.1159 32.4732 17.6304 31.4452 17.8225C30.8004 17.943 30.2408 18.1743 29.7292 18.584C29.5216 18.7504 29.5939 19.0882 29.8495 19.1602C31.5698 19.6479 32.9544 19.1758 34.4815 18.3609C35.0728 18.0453 35.6847 17.7188 36.3779 17.4772C37.1447 17.21 37.9942 17.0826 38.8824 17.1293C39.8792 17.1818 40.7893 17.2925 41.5712 17.9733C41.6132 18.0099 41.6593 18.052 41.7075 18.0975C41.769 18.1556 41.8342 18.2191 41.8989 18.2836C42.1283 18.512 42.2429 18.6262 42.2032 18.7434C42.1635 18.8605 42.0028 18.8805 41.6815 18.9203C41.3567 18.9606 40.9905 18.9986 40.7317 19.0035C40.1119 19.0152 39.517 18.9559 38.9312 18.8975L38.9302 18.8975C37.8398 18.7888 36.7806 18.6832 35.6501 19.0438C34.4028 19.4417 33.7952 19.8968 32.4535 20.9017L32.4501 20.9043C32.127 21.1462 31.7615 21.42 31.3343 21.7325C30.729 22.1212 30.0126 22.3522 29.2415 22.3668C28.7943 22.3752 28.3665 22.3249 27.9491 22.2758C27.1349 22.1799 26.6519 22.4764 26.092 22.9026C25.8318 23.1007 25.8907 23.5182 26.214 23.5628C26.4786 23.5993 26.7459 23.5898 27.0125 23.5803L27.0172 23.5802C27.0688 23.5783 27.1204 23.5765 27.1719 23.575C27.2014 23.5742 27.2308 23.5734 27.2602 23.5729C27.4743 23.5688 27.6841 23.5848 27.888 23.619C28.2948 23.6874 28.6552 23.7763 28.9898 23.8588C30.0583 24.1223 30.8631 24.3207 32.074 23.5795C32.5116 23.3116 32.9007 22.9713 33.2936 22.6275L33.2941 22.6272C33.791 22.1925 34.2945 21.7521 34.9112 21.4446C35.6242 21.0892 36.4249 20.8827 37.2737 20.8667C38.5222 20.8432 40.1914 20.9713 41.2778 21.6317C41.6623 21.8655 41.9869 22.1957 42.2287 22.5788C42.3612 22.7889 42.4275 22.8939 42.3654 22.9984C42.3032 23.103 42.1733 23.0933 41.9135 23.074C41.5203 23.0447 41.1295 22.9929 40.7387 22.9411L40.5796 22.9201C40.5177 22.912 40.4557 22.9039 40.3937 22.896C40.3215 22.8868 40.2493 22.8778 40.177 22.8692C38.9843 22.7272 37.8257 22.5892 36.5795 22.962C35.2045 23.3733 34.5295 23.8607 33.0387 24.9371C32.6788 25.1969 32.2715 25.491 31.7953 25.8267C31.1241 26.2411 30.3344 26.4801 29.4891 26.4801C28.9989 26.4801 28.5312 26.416 28.0748 26.3533C27.4568 26.2685 26.8598 26.1866 26.256 26.2708C25.5204 26.3733 24.9923 26.6935 24.5214 27.2489C24.3298 27.475 24.1552 27.7186 23.9804 27.9626L23.9801 27.9631C23.7062 28.3455 23.4317 28.7287 23.0899 29.0459C22.5009 29.5926 21.7358 29.95 20.8899 30.0224L20.3141 30.0847C20.0018 30.1186 19.9255 30.5315 20.2161 30.6514C20.7122 30.856 21.1917 30.9725 21.7032 30.9334C22.2972 30.888 22.893 30.6407 23.3599 30.2692C23.6623 30.0286 23.9132 29.7322 24.1637 29.4361C24.3136 29.259 24.4633 29.0821 24.6239 28.9173C24.8554 28.6797 25.105 28.4617 25.397 28.287C25.9521 27.9549 26.6006 27.7642 27.2933 27.7642C27.528 27.7642 27.7577 27.7861 27.9803 27.828C28.342 27.896 28.6979 27.9902 29.0539 28.0844C29.3513 28.1632 29.6488 28.2419 29.9497 28.3054C30.7762 28.4797 31.5344 28.4793 32.5682 27.8713C33.0533 27.5859 33.4866 27.2201 33.9246 26.8503C34.4779 26.3831 35.0387 25.9095 35.7208 25.5845C36.5094 25.2088 37.391 24.9986 38.3215 24.9986C39.6137 24.9986 40.4951 25.2231 41.2207 25.408C42.4797 25.7287 43.2694 25.9299 44.9221 24.6311C44.9501 24.6091 44.9783 24.5866 45.0069 24.5637C45.0353 24.5409 45.064 24.5177 45.0929 24.494Z" fill="#252F4A"/>
<path fill-rule="evenodd" clip-rule="evenodd" d="M61.5716 37.5673C61.5439 37.5932 61.5156 37.6186 61.4868 37.6436C61.4402 37.6842 61.3923 37.7237 61.3431 37.7622C60.6253 38.7614 59.4574 39.4115 58.1385 39.4115C53.3458 39.4115 48.9349 42.2459 48.9349 47.5982C48.9349 48.035 48.9375 48.4653 48.94 48.8925C48.9474 50.137 48.9546 51.3545 48.8981 52.6239C48.8613 53.4512 51.0456 54.9206 51.1905 53.0312L51.1929 53.0313L51.2419 52.1546H51.247C51.3076 51.7362 51.3639 51.2006 51.4125 50.6755C51.4669 50.087 52.0602 49.7081 52.5988 49.9438C52.8255 50.0429 53.0404 50.1405 53.2467 50.235L53.4422 50.3247L53.4432 50.3252C54.6739 50.8907 55.6242 51.3273 57.0463 51.3273C59.0406 51.3273 60.8681 50.8534 62.4563 49.8872C62.5091 49.8551 62.5763 49.8584 62.6242 49.8976C63.8298 50.8843 64.716 52.4765 64.716 54.155C64.716 59.6556 57.5249 57.4272 57.5249 67.8612C57.5249 72.8774 56.7557 77.4378 51.7065 79.9882C50.7414 80.4757 49.6372 80.552 48.5639 80.4325L48.4455 80.4193C47.5715 80.3316 46.8339 79.7779 46.4816 79.0087C46.418 78.8697 46.3076 78.7545 46.163 78.7076C45.1838 78.3899 44.1669 78.1569 43.1207 78.017C42.4714 77.9302 42.0046 77.3208 42.1033 76.6693L42.1155 76.588L42.1234 76.5346L42.1319 76.476L42.1485 76.359C42.1542 76.3181 42.1598 76.2771 42.1653 76.2361C42.2668 75.4831 43.0229 74.9876 43.7637 75.1351C44.4519 75.2722 45.1634 75.3441 45.8916 75.3441C47.9293 75.3441 49.8364 74.7813 51.4677 73.8017C51.6559 73.6887 51.6481 73.4174 51.4536 73.3156C49.9507 72.5288 48.2428 72.0842 46.4316 72.0842C45.6612 72.0842 45.0269 72.2038 44.3514 72.3311C43.8672 72.4224 43.362 72.5176 42.7706 72.5755C42.5767 72.5945 42.3943 72.4778 42.3372 72.2904C42.2107 71.8753 42.1424 71.4686 42.0969 71.0691C42.0311 70.4902 42.5157 69.9972 43.0942 70.0247L49.2663 70.3185L51.4751 70.2691C51.5061 70.2652 51.5407 70.2612 51.5781 70.2569L51.5805 70.2566C52.1423 70.1916 53.3332 70.0537 52.8495 69.2565C52.6563 68.939 52.3098 68.6426 51.9881 68.3674L51.9872 68.3666C51.8431 68.2435 51.7037 68.1242 51.5855 68.0094C50.8585 67.3031 50.1594 66.8734 49.0822 66.8734C48.4734 66.8734 47.9444 67.0948 47.4217 67.3135C46.9118 67.5269 46.4081 67.7377 45.8425 67.7377C45.322 67.7377 45.122 67.5698 44.7872 67.2203C44.1553 66.5608 44.9919 65.7759 45.8781 65.5661C45.9773 65.5427 46.0759 65.5168 46.1739 65.4885C47.7215 65.0416 49.0286 64.0223 49.8545 62.673C50.1363 62.2126 49.75 61.6742 49.2166 61.609C48.3369 61.5013 47.6848 61.2035 46.9998 60.8906C46.0699 60.466 45.0793 60.0136 43.376 59.9709C43.5997 57.8489 43.7564 55.4229 43.7564 53.2413C43.7564 50.9104 43.6254 48.6103 43.3705 46.348C42.7163 41.8374 38.6474 39.4606 34.2583 39.4606C31.9295 39.5234 30.9818 38.5965 30.1415 37.7746C29.4897 37.1371 28.9025 36.5628 27.7853 36.5628C26.8799 36.5628 26.2068 36.9395 25.5702 37.3943C25.4173 37.5035 25.2673 37.6165 25.1173 37.7296C24.8831 37.906 24.649 38.0824 24.4044 38.2441C24.1489 38.4129 23.8811 38.5665 23.59 38.6878C21.8482 39.4141 19.7891 39.1054 18.3318 37.8961C18.1935 37.7813 18.1777 37.5747 18.3043 37.447C18.41 37.3402 18.5241 37.2419 18.6456 37.1531C19.0938 36.8253 19.685 36.931 20.2062 37.1202C20.7533 37.3188 21.3433 37.427 21.9585 37.427C23.3796 37.427 24.4047 36.637 25.4134 35.8595C26.3905 35.1064 27.3523 34.365 28.6441 34.365C29.3145 34.365 29.8301 34.643 30.3362 34.9158C30.5065 35.0076 30.6758 35.0989 30.8496 35.1787C31.2007 35.3402 31.4773 34.973 31.2943 34.6309C30.8383 33.778 30.2718 32.9358 29.4046 32.5479C28.8689 32.3083 28.2614 32.2085 27.635 32.289C27.0846 32.3598 26.5831 32.5616 26.1584 32.8589C25.8451 33.0782 25.5577 33.2963 25.2829 33.5049L25.2808 33.5065C24.1197 34.388 23.1816 35.1001 21.4432 35.0246C21.0527 35.0076 19.1247 34.3157 19.3504 34.045C19.8021 33.5884 20.5625 33.6878 21.2822 33.7819C21.669 33.8324 22.0441 33.8814 22.3529 33.8417C23.2895 33.7213 23.8542 33.0555 24.4223 32.3857L24.4304 32.3761C24.4682 32.3315 24.5062 32.2869 24.5441 32.2424C24.6214 32.152 24.6992 32.0622 24.7785 31.9744C25.6432 31.0171 26.5642 30.4595 27.8763 30.2907C28.5359 30.2059 29.0915 30.4243 29.6542 30.6455C30.1425 30.8374 30.6362 31.0314 31.2079 31.0314C32.3242 31.0314 33.2297 30.4796 34.0909 29.8461C34.9318 29.2276 35.8795 28.7473 36.901 28.4386C38.0973 28.077 39.0602 28.1909 40.079 28.3113C40.6095 28.374 41.1559 28.4386 41.7576 28.4386C42.8685 28.4386 43.8264 28.0433 44.8021 27.6406L44.8044 27.6397C45.1738 27.4873 45.5456 27.3338 45.9294 27.2004C46.3016 27.3298 46.6699 27.4802 47.0388 27.6309C48.0343 28.0377 49.035 28.4466 50.1252 28.4466C50.7274 28.4466 51.2736 28.382 51.8046 28.3193C52.8236 28.1988 53.7869 28.085 54.9836 28.4466C56.0054 28.7553 56.9534 29.2356 57.7947 29.8542C58.6561 30.4878 59.562 31.0396 60.6787 31.0396C61.2505 31.0396 61.7444 30.8456 62.2328 30.6536C62.7958 30.4324 63.3516 30.214 64.0114 30.2989C65.324 30.4676 66.2452 31.0253 67.1103 31.9827C67.1798 32.0597 67.2482 32.1381 67.316 32.2172C67.3664 32.2759 67.4165 32.335 67.4666 32.394C68.0349 33.0639 68.5998 33.7298 69.5367 33.8502C69.8456 33.8899 70.2209 33.8409 70.6078 33.7904C71.3277 33.6963 72.0885 33.5969 72.5403 34.0535C72.766 34.3242 70.8374 35.0162 70.4467 35.0332C68.7078 35.1087 67.7693 34.3965 66.6077 33.5149C66.3322 33.3058 66.0442 33.0872 65.7299 32.8673C65.305 32.57 64.8034 32.3681 64.2528 32.2973C63.6262 32.2168 63.0185 32.3166 62.4826 32.5563C61.615 32.9442 61.0483 33.7865 60.5922 34.6395C60.4092 34.9816 60.6859 35.3488 61.0371 35.1873C61.1067 35.1554 61.1756 35.1216 61.2441 35.0866C61.3466 35.0343 61.4484 34.9795 61.5506 34.9244C62.0569 34.6515 62.5727 34.3736 63.2434 34.3736C64.5355 34.3736 65.4977 35.115 66.4751 35.8682C67.4842 36.6457 68.5097 37.4359 69.9313 37.4359C70.5467 37.4359 71.1369 37.3276 71.6841 37.129C72.2055 36.9398 72.797 36.834 73.2453 37.1619C73.3668 37.2507 73.481 37.349 73.5868 37.4558C73.7133 37.5836 73.6976 37.7902 73.5592 37.905C72.1014 39.1144 70.0417 39.4231 68.2992 38.6968C67.7265 38.4581 67.2442 38.0948 66.7675 37.7357C65.9877 37.1481 65.2224 36.5715 64.1024 36.5715C63.1257 36.5715 62.2366 36.9492 61.5716 37.5673ZM66.3612 40.5922C66.7732 40.501 67.2211 40.5652 67.6014 40.7491C67.7389 40.8157 67.8597 40.8763 67.9124 40.9133C67.9818 40.962 68.0507 41.0118 68.1193 41.0622C68.1968 41.1192 68.2739 41.177 68.3509 41.2347C69.053 41.7606 69.7509 42.2833 70.6908 42.191C71.0008 42.1606 71.3558 42.0289 71.7219 41.893C72.4028 41.6402 73.1226 41.3731 73.664 41.7172C73.944 41.9305 72.2166 43.0368 71.8395 43.1408C70.6265 43.4751 69.7301 43.315 68.8254 42.9742C67.8927 42.6229 67.0439 42.1445 66.1829 41.6476L66.0129 41.5494C65.6236 41.3247 65.7133 40.7356 66.1516 40.6386L66.3612 40.5922ZM68.9462 50.2981C68.7189 50.0627 68.8888 49.6886 69.1521 49.8063C70.1431 50.2492 71.194 50.4165 72.2467 50.2483L72.2793 50.243L72.3102 50.2377L72.3315 50.234L72.3625 50.2284L72.3694 50.2272L72.3762 50.2259L72.3827 50.2247L72.3936 50.2226L72.4055 50.2204L72.4181 50.2179C72.6787 50.1672 72.8593 50.586 72.6383 50.7647C72.2957 51.0416 71.9029 51.2267 71.4716 51.2956C70.5693 51.4398 69.6701 51.048 68.9462 50.2981ZM67.3254 44.8827C67.7828 44.7519 68.3176 44.8155 68.7055 45.0923L68.717 45.1006L68.7208 45.1034L68.7224 45.1046L68.7244 45.1061L68.7269 45.108L68.7337 45.1131L68.7371 45.1158L68.7412 45.119L68.7435 45.1209L68.7453 45.1224L68.7468 45.1236L68.7483 45.1248L68.7499 45.1261L68.751 45.127L68.7595 45.1344L68.7814 45.1544L68.7915 45.1636L68.8149 45.1852L68.851 45.2187L68.8874 45.2529L68.9237 45.2872C68.9536 45.3157 68.9835 45.3443 69.0133 45.3731L69.097 45.454C69.6385 45.9777 70.1773 46.4989 70.9021 46.4071C71.1412 46.3768 71.4148 46.2456 71.6972 46.1102C72.2224 45.8584 72.7775 45.5923 73.195 45.9351C73.4109 46.1476 72.0788 47.2495 71.7879 47.353C70.8526 47.686 70.1613 47.5266 69.4636 47.1872C68.7443 46.8372 68.0897 46.3607 67.4258 45.8658L67.1803 45.6828C66.8799 45.4589 66.9657 44.9855 67.3254 44.8827ZM25.5488 40.5831C25.1369 40.4919 24.6892 40.5561 24.3091 40.74C24.1716 40.8065 24.0509 40.8672 23.9981 40.9042C23.8504 41.0078 23.705 41.1167 23.5598 41.2255C22.858 41.7513 22.1604 42.2739 21.2207 42.1818C20.9108 42.1514 20.556 42.0196 20.1901 41.8837C19.5093 41.631 18.7898 41.3638 18.2485 41.7079C17.9687 41.9213 19.6954 43.0274 20.0725 43.1314C21.285 43.4657 22.1811 43.3056 23.0855 42.9649C24.0179 42.6136 24.8664 42.1352 25.727 41.6384L25.897 41.5402C26.2861 41.3155 26.1965 40.7265 25.7583 40.6295L25.5488 40.5831ZM22.9647 50.288C23.1919 50.0526 23.0221 49.6786 22.7589 49.7962C21.7682 50.2392 20.7178 50.4064 19.6654 50.2382L19.6328 50.2329L19.602 50.2277L19.5806 50.2239L19.5496 50.2184L19.5439 50.2173L19.5273 50.2142L19.5134 50.2116L19.494 50.2079C19.2335 50.1571 19.0529 50.5759 19.2738 50.7545C19.6164 51.0315 20.0091 51.2166 20.4402 51.2855C21.3422 51.4296 22.2411 51.0378 22.9647 50.288ZM24.585 44.8731C24.1277 44.7423 23.5931 44.8059 23.2053 45.0828L23.1976 45.0883L23.1864 45.0966L23.1804 45.1011L23.1788 45.1023L23.1771 45.1036L23.1738 45.1062L23.1715 45.108L23.1686 45.1103L23.1668 45.1117L23.165 45.1132L23.1621 45.1156L23.1599 45.1175L23.1514 45.1249C23.1207 45.1526 23.0902 45.1807 23.0599 45.2092C23.0356 45.2318 23.0114 45.2547 22.9873 45.2776C22.9291 45.3329 22.8712 45.3889 22.8133 45.4449C22.272 45.9687 21.7341 46.4892 21.0095 46.3974C20.7705 46.3671 20.497 46.236 20.2146 46.1006C19.6896 45.8488 19.1348 45.5827 18.7174 45.9254C18.5016 46.1379 19.8332 47.2397 20.124 47.3432C21.059 47.6762 21.75 47.5167 22.4475 47.1774C23.1665 46.8275 23.8209 46.351 24.4846 45.8562L24.73 45.6732C25.0303 45.4493 24.9445 44.9759 24.585 44.8731ZM30.8177 44.3181C30.515 44.6233 30.8793 45.013 31.269 44.8335C32.7355 44.1582 34.3663 43.7819 36.0846 43.7819C36.1221 43.7819 36.1597 43.782 36.1971 43.7824C36.2531 43.7829 36.3091 43.7839 36.365 43.7852C36.7927 43.7954 36.9751 43.2927 36.5784 43.1317C35.9633 42.8822 35.2913 42.7448 34.5875 42.7448C33.1148 42.7448 31.7817 43.3462 30.8177 44.3181ZM32.8303 47.9597C32.4917 47.719 32.4917 47.2279 32.8303 46.9872C33.6139 46.4302 34.5704 46.103 35.6028 46.103C36.6353 46.103 37.5917 46.4302 38.3754 46.9872C38.714 47.2279 38.714 47.719 38.3754 47.9597C37.5917 48.5167 36.6353 48.8439 35.6028 48.8439C34.5704 48.8439 33.6139 48.5167 32.8303 47.9597ZM40.3979 51.3507C40.6837 50.6891 40.4661 49.7039 39.8087 49.9915C39.6071 50.0797 39.4058 50.1705 39.2041 50.2615C37.9757 50.8156 36.7356 51.3749 35.3612 51.3749C34.2909 51.3749 33.2686 51.2384 32.3056 50.9626C32.0403 50.8866 30.8339 50.3861 30.1904 50.1166C29.9394 50.0115 29.6488 50.0504 29.4522 50.2394C29.0235 50.6513 28.6475 51.1418 28.3542 51.6834C27.9406 52.4472 27.6915 53.3126 27.6915 54.2023C27.6915 57.036 30.1671 59.1385 32.2445 60.8334C32.5078 61.0483 32.8836 61.0551 33.149 60.843C36.2776 58.3416 38.7843 55.0866 40.3979 51.3507ZM61.1493 44.7852C61.5389 44.9646 61.9033 44.5749 61.6006 44.2697C60.6365 43.2976 59.3034 42.6961 57.8308 42.6961C57.1269 42.6961 56.4549 42.8335 55.8398 43.0831C55.4431 43.2441 55.6256 43.7469 56.0532 43.7367C56.1004 43.7356 56.1477 43.7347 56.1951 43.7342C56.2225 43.7338 56.2501 43.7336 56.2776 43.7335L56.3109 43.7334L56.3336 43.7334C58.0519 43.7334 59.6827 44.1098 61.1493 44.7852ZM59.5879 47.9117C59.9265 47.671 59.9265 47.1798 59.5879 46.9391C58.8043 46.382 57.8478 46.0548 56.8154 46.0548C55.783 46.0548 54.8265 46.382 54.0429 46.9391C53.7043 47.1798 53.7043 47.671 54.0429 47.9117C54.8265 48.4687 55.783 48.796 56.8154 48.796C57.8478 48.796 58.8043 48.4687 59.5879 47.9117ZM45.0927 24.494C45.7367 23.9669 46.1685 23.9392 46.8349 24.4846C46.9363 24.5676 47.0345 24.6451 47.1297 24.7175C48.6994 25.9103 49.4809 25.7113 50.7085 25.3986C51.4344 25.2137 52.3161 24.9892 53.6088 24.9892C54.5395 24.9892 55.4215 25.1994 56.2103 25.5752C56.8926 25.9003 57.4536 26.3738 58.0072 26.8412C58.4453 27.211 58.8787 27.5768 59.364 27.8622C60.6017 28.59 61.8008 28.3091 63.046 28.0173C63.3455 27.9472 63.6476 27.8764 63.9535 27.8189C64.1762 27.777 64.406 27.7551 64.6407 27.7551C65.5464 27.7551 66.3764 28.0809 67.0214 28.6224C67.0868 28.6773 67.1484 28.7321 67.2068 28.7867C67.2707 28.8465 67.3308 28.906 67.3878 28.9652C67.4734 29.054 67.555 29.1465 67.6347 29.2406C67.698 29.3153 67.7602 29.391 67.8224 29.4667L67.8231 29.4676C67.9881 29.6685 68.1537 29.8701 68.3397 30.0518C68.5547 30.2618 68.8076 30.454 69.1566 30.6211C70.1151 31.0799 70.8947 30.9831 71.7204 30.6426C72.0112 30.5227 71.9348 30.1098 71.6224 30.0759L71.0464 30.0136C69.9569 29.9204 69.0015 29.3546 68.3832 28.5207C68.3006 28.4092 68.2188 28.2968 68.137 28.1843C67.7555 27.6597 67.3725 27.133 66.893 26.6932C66.0749 26.2024 65.2999 26.1808 64.5057 26.2627C64.2833 26.2856 64.0618 26.3159 63.8403 26.3463C63.7568 26.3577 63.6733 26.3692 63.5897 26.3802L63.5525 26.3851C63.3879 26.4066 63.2231 26.4263 63.0577 26.4412C62.8567 26.4594 62.6525 26.4709 62.4442 26.4709C61.5986 26.4709 60.8086 26.2319 60.1371 25.8174C59.8293 25.6004 59.5502 25.4008 59.2941 25.2166C59.1539 25.1158 59.0207 25.0196 58.8934 24.9277C57.4021 23.8512 56.7267 23.3637 55.3513 22.9524C54.1046 22.5796 52.9457 22.7176 51.7526 22.8596C51.5651 22.8819 51.3778 22.9067 51.1906 22.9315C50.8 22.9832 50.4085 23.0351 50.0154 23.0643C49.7555 23.0837 49.6256 23.0934 49.5634 22.9888C49.5012 22.8842 49.5675 22.7792 49.7001 22.5692C49.9421 22.186 50.2667 21.8557 50.6513 21.622C51.7382 20.9614 53.4079 20.8333 54.6568 20.8569C55.506 20.8729 56.307 21.0793 57.0202 21.4349C57.2835 21.5661 57.5261 21.7216 57.7565 21.8905C58.0589 22.1123 58.3422 22.3599 58.6255 22.6076C58.8817 22.8315 59.1379 23.0555 59.4084 23.2604C59.5539 23.3707 59.7031 23.4749 59.8584 23.5699C61.0698 24.3113 61.8748 24.1128 62.9437 23.8493C63.2783 23.7668 63.6389 23.6779 64.0459 23.6095C64.3359 23.5608 64.6272 23.5684 64.9184 23.576C65.1862 23.583 65.4539 23.59 65.7204 23.5532C66.0438 23.5086 66.1028 23.0911 65.8424 22.893C65.2824 22.4667 64.7993 22.1702 63.9847 22.2661C63.5672 22.3152 63.1393 22.3656 62.6918 22.3571C61.9205 22.3426 61.2039 22.1115 60.5984 21.7228C60.5173 21.6635 60.4384 21.6056 60.3616 21.549C60.2717 21.4828 60.1847 21.4184 60.1003 21.3558C59.9306 21.2298 59.7615 21.1029 59.5924 20.9759L59.5871 20.9719C59.2528 20.7209 58.9184 20.4699 58.5787 20.2266C57.788 19.6601 57.2131 19.331 56.281 19.0338C55.1502 18.6731 54.0905 18.7787 52.9997 18.8874C52.4134 18.9458 51.818 19.0051 51.1976 18.9934C50.9388 18.9886 50.5724 18.9506 50.2476 18.9103C49.9261 18.8704 49.7653 18.8504 49.7256 18.7333C49.6859 18.6161 49.8006 18.5019 50.03 18.2735C50.1455 18.1584 50.2621 18.0465 50.3578 17.9632C51.1401 17.2822 52.0505 17.1715 53.0476 17.1191C53.9361 17.0723 54.7859 17.1997 55.553 17.467C56.2464 17.7086 56.8585 18.0352 57.4501 18.3508C58.9777 19.1658 60.3628 19.6379 62.0837 19.1501C62.3394 19.0781 62.4117 18.7403 62.204 18.574C61.6923 18.1641 61.1325 17.9329 60.4874 17.8123C59.4591 17.6202 58.5025 17.1056 57.5432 16.5896C56.5997 16.082 55.6537 15.5731 54.6341 15.3683C53.4301 15.1265 52.329 15.2973 51.1956 15.4732C49.5147 15.7341 48.3209 16.2864 46.8104 17.0483C46.6709 17.1187 46.523 17.1747 46.3686 17.2144C46.048 17.2969 45.7643 17.2924 45.4482 17.193C45.3336 17.157 45.223 17.1119 45.1172 17.0586C43.6073 16.2968 42.4139 15.7445 40.7336 15.4837C39.6005 15.3078 38.4998 15.1369 37.2962 15.3787C36.277 15.5835 35.3313 16.0924 34.388 16.5999C33.4292 17.1159 32.473 17.6304 31.445 17.8225C30.8002 17.943 30.2406 18.1742 29.729 18.584C29.5214 18.7503 29.5937 19.0882 29.8493 19.1601C31.5696 19.6478 32.9542 19.1758 34.4813 18.3609C35.0726 18.0453 35.6845 17.7188 36.3777 17.4772C37.1445 17.2099 37.994 17.0826 38.8822 17.1293C39.879 17.1817 40.7891 17.2924 41.571 17.9733C41.613 18.0099 41.6591 18.052 41.7073 18.0975C41.7688 18.1555 41.834 18.2191 41.8987 18.2836C42.1281 18.512 42.2427 18.6262 42.203 18.7433C42.1633 18.8605 42.0026 18.8804 41.6813 18.9203C41.3565 18.9606 40.9903 18.9986 40.7315 19.0034C40.1117 19.0152 39.5168 18.9559 38.931 18.8975C37.8405 18.7888 36.7804 18.6832 35.6499 19.0438C34.4026 19.4416 33.795 19.8967 32.4533 20.9017L32.4499 20.9042C32.1268 21.1462 31.7613 21.42 31.3341 21.7325C30.7288 22.1212 30.0124 22.3522 29.2413 22.3668C28.7941 22.3752 28.3663 22.3249 27.9489 22.2757C27.1347 22.1799 26.6517 22.4763 26.0918 22.9025C25.8316 23.1007 25.8905 23.5181 26.2138 23.5627C26.4784 23.5992 26.7457 23.5898 27.0123 23.5803L27.017 23.5801C27.0686 23.5783 27.1202 23.5764 27.1717 23.575C27.2012 23.5741 27.2306 23.5734 27.26 23.5728C27.4741 23.5688 27.6839 23.5848 27.8878 23.619C28.2946 23.6874 28.655 23.7763 28.9896 23.8588C30.0581 24.1223 30.8629 24.3207 32.0738 23.5794C32.5114 23.3115 32.9005 22.9713 33.2935 22.6275C33.7903 22.1928 34.2943 21.7521 34.911 21.4446C35.624 21.0891 36.4247 20.8827 37.2735 20.8667C38.522 20.8431 40.1912 20.9712 41.2776 21.6317C41.6621 21.8654 41.9867 22.1956 42.2285 22.5788C42.361 22.7888 42.4273 22.8938 42.3652 22.9984C42.303 23.1029 42.1731 23.0932 41.9133 23.0739C41.5201 23.0446 41.1293 22.9929 40.7386 22.9411L40.5794 22.9201C40.5175 22.912 40.4555 22.9039 40.3935 22.896C40.3213 22.8868 40.2491 22.8778 40.1768 22.8692C38.9841 22.7272 37.8255 22.5892 36.5793 22.962C35.2043 23.3733 34.5293 23.8607 33.0385 24.9371C32.6786 25.1969 32.2713 25.491 31.7951 25.8266C31.1239 26.2411 30.3342 26.4801 29.4889 26.4801C28.9987 26.4801 28.531 26.4159 28.0746 26.3533C27.4566 26.2685 26.8596 26.1865 26.2558 26.2707C25.5202 26.3732 24.9921 26.6935 24.5212 27.2488C24.3296 27.4749 24.155 27.7186 23.9802 27.9625C23.7063 28.345 23.4315 28.7286 23.0897 29.0458C22.5007 29.5925 21.7356 29.95 20.8897 30.0223L20.3139 30.0847C20.0016 30.1185 19.9253 30.5314 20.216 30.6513C20.712 30.8559 21.1915 30.9725 21.703 30.9334C22.297 30.8879 22.8928 30.6406 23.3597 30.2692C23.6621 30.0286 23.913 29.7321 24.1635 29.4361C24.3134 29.259 24.4631 29.082 24.6237 28.9173C24.8552 28.6797 25.1048 28.4616 25.3968 28.287C25.9519 27.9549 26.6004 27.7641 27.2931 27.7641C27.5278 27.7641 27.7575 27.786 27.9801 27.8279C28.3418 27.8959 28.6977 27.9901 29.0537 28.0844C29.3511 28.1631 29.6486 28.2419 29.9495 28.3053C30.776 28.4796 31.5342 28.4792 32.568 27.8712C33.0531 27.5859 33.4864 27.22 33.9244 26.8503C34.4778 26.383 35.0386 25.9095 35.7206 25.5845C36.5092 25.2087 37.3908 24.9985 38.3213 24.9985C39.6135 24.9985 40.4949 25.2231 41.2205 25.4079C42.4795 25.7286 43.2692 25.9298 44.9219 24.6311C44.9499 24.609 44.9781 24.5866 45.0067 24.5637C45.0351 24.5409 45.0638 24.5177 45.0927 24.494Z" fill="white"/>
</g>
<defs>
<clipPath id="clip0_20_3093">
<rect width="92" height="92" fill="white"/>
</clipPath>
</defs>
</svg>
