<svg width="204" height="55" viewBox="0 0 204 55" fill="none" xmlns="http://www.w3.org/2000/svg">
<g clip-path="url(#clip0_3133_13040)">
<mask id="mask0_3133_13040" style="mask-type:luminance" maskUnits="userSpaceOnUse" x="0" y="0" width="204" height="55">
<path d="M203.5 0H0.5V55H203.5V0Z" fill="white"/>
</mask>
<g mask="url(#mask0_3133_13040)">
<path d="M113.218 33.7551C109.693 31.4429 105.255 32.3843 101.245 33.5918C97.1123 34.836 93.2923 35.6717 90.083 36.0665C93.0011 42.3369 99.2189 46.6666 106.418 46.6666C116.418 46.6666 124.524 38.3128 124.524 28.0079C124.524 26.4023 124.327 24.8441 123.957 23.3574C123.154 23.8938 122.746 24.083 121.586 25.0574C118.437 27.8995 116.651 32.0173 116.695 36.3305L116.701 36.952L116.304 36.4845C115.397 35.4171 114.355 34.5016 113.218 33.7551Z" fill="#252F4A"/>
<path d="M89.2411 33.7084L89.2437 33.7168C88.69 33.7833 88.1546 33.8366 87.6394 33.8764C83.3191 34.2106 80.4059 33.6004 79.8159 31.9465C79.0859 29.9004 81.906 26.8999 87.2481 24.0918L87.2432 24.1134C87.0011 25.1763 86.9151 25.5538 86.8444 26.6843C85.1933 28.0358 84.3734 29.2525 84.667 30.1533C84.8877 30.8303 85.7218 31.0994 87.0246 31.0612C87.4722 31.0481 87.9752 30.9987 88.5277 30.9171C88.3837 29.9693 88.309 28.9978 88.309 28.0083C88.309 17.7034 96.4153 9.34961 106.415 9.34961C113.144 9.34961 119.016 13.1329 122.137 18.7482C122.51 18.5115 122.845 18.2662 123.155 18.0395C123.236 17.9801 123.315 17.9217 123.393 17.8654C124.752 16.8917 125.447 16.0909 125.267 15.5849C125.059 15.0011 123.716 14.8966 121.604 15.1961C121.189 14.672 120.75 14.1697 120.287 13.6911C125.898 12.5641 129.78 13.4238 130.472 15.3637C130.802 16.2874 130.375 17.4466 129.324 18.7482C128.945 19.2165 128.486 19.7032 127.953 20.2039C123.12 24.7392 113.86 23.9663 109.906 18.4403L109.838 19.399C109.628 22.3378 108.542 24.8941 106.861 27.0473C105.001 29.4304 102.191 30.7362 99.3328 31.5571C95.6092 32.6263 92.1693 33.3517 89.2411 33.7084Z" fill="#99A1B7"/>
<path d="M16.6142 46.0135C13.2248 46.0135 10.4673 45.8337 8.34169 45.4743C6.2161 45.1148 4.57883 44.5157 3.42986 43.6769C2.33835 42.7782 1.56279 41.6099 1.10321 40.172C0.701069 38.7341 0.5 36.9666 0.5 34.8697C0.5 31.8141 0.84469 29.4775 1.53407 27.8599C2.22345 26.2422 3.42986 25.1338 5.15331 24.5347C6.87676 23.9356 9.17469 23.636 12.0471 23.636C13.4833 23.636 15.0344 23.6959 16.7004 23.8158C18.4239 23.8757 20.0611 23.9655 21.6122 24.0854C23.2208 24.1453 24.5996 24.2352 25.7485 24.355C26.9549 24.4748 27.7592 24.6246 28.1614 24.8043C28.1614 22.0483 27.9316 19.8615 27.472 18.2439C27.0124 16.6262 26.2943 15.428 25.3177 14.6491C24.3985 13.8702 23.2208 13.361 21.7846 13.1213C20.4058 12.8817 18.7973 12.7618 16.9589 12.7618C15.0631 12.7618 13.1386 12.8517 11.1854 13.0314C9.28959 13.1513 7.53742 13.3909 5.92886 13.7504C4.32031 14.05 3.08517 14.4694 2.22345 15.0086V13.6605C2.22345 12.4024 2.56814 11.5336 3.25752 11.0543C4.00435 10.5151 4.83735 10.1556 5.75652 9.97585C6.84804 9.67629 8.42787 9.43663 10.496 9.2569C12.6216 9.07716 14.8333 9.01724 17.1313 9.07716C20.0611 9.07716 22.5601 9.22694 24.6283 9.5265C26.7539 9.82607 28.506 10.4851 29.8848 11.5037C31.2636 12.4623 32.2976 13.9301 32.987 15.9073C33.6764 17.8844 34.0211 20.5805 34.0211 23.9955V42.5086C33.6764 43.7068 32.154 44.6055 29.4539 45.2047C26.7539 45.7439 22.474 46.0135 16.6142 46.0135ZM16.6142 42.9579C19.2569 42.9579 21.3537 42.868 22.9048 42.6883C24.5134 42.5086 25.7198 42.2689 26.5241 41.9694C27.3858 41.6698 27.9316 41.2804 28.1614 40.8011V27.4105C27.6443 27.2308 26.6677 27.0511 25.2315 26.8713C23.8527 26.6916 22.3878 26.5418 20.8367 26.422C19.2856 26.2422 17.9643 26.1524 16.8728 26.1524C14.4025 26.1524 12.3918 26.3021 10.8407 26.6017C9.34704 26.9013 8.25552 27.6502 7.56614 28.8484C6.93421 30.0467 6.61824 31.904 6.61824 34.4203C6.61824 36.3975 6.84804 38.0151 7.30762 39.2733C7.76721 40.5314 8.68638 41.4601 10.0651 42.0592C11.5013 42.6584 13.6844 42.9579 16.6142 42.9579Z" fill="#252F4A"/>
<path d="M40.4587 55.0003L40.5449 17.0755C40.5449 15.3979 40.5162 13.96 40.4587 12.7617C40.4587 11.5036 40.43 10.6947 40.3726 10.3353C40.7747 10.2154 41.579 10.0956 42.7854 9.97579C43.9918 9.85596 45.3706 9.76609 46.9217 9.70618C48.4728 9.58636 50.0526 9.49649 51.6611 9.43657C53.3271 9.31675 54.8208 9.25684 56.1421 9.25684C60.7954 9.25684 64.4147 9.91588 66.9998 11.234C69.6425 12.4921 71.5095 14.4992 72.601 17.2552C73.6926 20.0112 74.1234 23.576 73.8936 27.9497C73.7787 32.2634 73.233 35.7383 72.2564 38.3745C71.2797 40.9507 69.6999 42.838 67.5169 44.0363C65.3338 45.1746 62.3465 45.7438 58.5549 45.7438C56.257 45.7438 54.1601 45.5041 52.2644 45.0248C50.426 44.5455 48.9324 43.7367 47.7834 42.5983C47.3142 42.109 46.912 41.5348 46.577 40.8756V55.0003H40.4587ZM57.3485 41.9693C60.9103 41.9693 63.5529 40.8609 65.2764 38.6441C66.9998 36.4273 67.8616 32.6828 67.8616 27.4104C67.9765 22.0782 67.1722 18.3336 65.4487 16.1768C63.7253 14.0199 60.6231 12.9415 56.1421 12.9415C55.2804 12.9415 54.1889 12.9714 52.8676 13.0313C51.6037 13.0913 50.3686 13.1811 49.1621 13.301C48.0132 13.3609 47.1515 13.4507 46.577 13.5706V31.5444C46.577 34.3603 47.0078 36.5172 47.8696 38.015C48.7887 39.5128 50.0526 40.5613 51.6611 41.1604C53.2697 41.6996 55.1655 41.9693 57.3485 41.9693Z" fill="#252F4A"/>
<path d="M144.63 45.7435C141.988 45.7435 140.092 45.1443 138.943 43.9461C137.794 42.6879 137.22 40.4711 137.22 37.2958V2.96568C137.22 2.24673 137.277 1.67756 137.392 1.25817C137.507 0.778865 137.737 0.449344 138.081 0.269604C138.483 0.0898681 139.029 0 139.719 0H143.338C143.338 0.0599121 143.309 0.449345 143.252 1.1683C143.194 1.88725 143.166 2.78595 143.166 3.86438V36.3072C143.166 38.5839 143.395 40.2315 143.855 41.25C144.372 42.2685 145.349 42.7778 146.785 42.7778C147.187 42.7778 147.733 42.7179 148.422 42.598C149.111 42.4782 149.571 42.3883 149.801 42.3284V45.1144C149.456 45.1743 148.882 45.2941 148.077 45.4739C147.331 45.6536 146.182 45.7435 144.63 45.7435Z" fill="#252F4A"/>
<path d="M161.352 45.7435C158.709 45.7435 156.813 45.1443 155.664 43.9461C154.515 42.6879 153.941 40.4711 153.941 37.2958V2.96568C153.941 2.24673 153.998 1.67756 154.113 1.25817C154.228 0.778865 154.458 0.449344 154.803 0.269604C155.205 0.0898681 155.751 0 156.44 0H160.059C160.059 0.0599121 160.03 0.449345 159.973 1.1683C159.916 1.88725 159.887 2.78595 159.887 3.86438V36.3072C159.887 38.5839 160.117 40.2315 160.576 41.25C161.093 42.2685 162.07 42.7778 163.506 42.7778C163.908 42.7778 164.454 42.7179 165.143 42.598C165.833 42.4782 166.292 42.3883 166.522 42.3284V45.1144C166.177 45.1743 165.603 45.2941 164.799 45.4739C164.052 45.6536 162.903 45.7435 161.352 45.7435Z" fill="#252F4A"/>
<path d="M186.438 45.9235C183.795 45.9235 181.411 45.7138 179.286 45.2944C177.217 44.875 175.408 44.0363 173.857 42.7781C172.363 41.5199 171.214 39.6626 170.41 37.2062C169.606 34.7498 169.203 31.5145 169.203 27.5003C169.203 23.4861 169.606 20.2508 170.41 17.7944C171.214 15.338 172.363 13.4807 173.857 12.2225C175.408 10.9644 177.217 10.1256 179.286 9.70623C181.411 9.28684 183.795 9.07715 186.438 9.07715C189.023 9.07715 191.35 9.28684 193.418 9.70623C195.543 10.1256 197.353 10.9644 198.847 12.2225C200.34 13.4807 201.489 15.338 202.294 17.7944C203.098 20.2508 203.5 23.4861 203.5 27.5003C203.5 31.5744 203.098 34.8396 202.294 37.2961C201.489 39.7525 200.34 41.6098 198.847 42.868C197.353 44.0662 195.543 44.875 193.418 45.2944C191.35 45.7138 189.023 45.9235 186.438 45.9235ZM186.438 42.4186C188.736 42.4186 190.689 42.0591 192.298 41.3402C193.964 40.6212 195.227 39.2133 196.089 37.1163C196.951 35.0194 197.382 31.814 197.382 27.5003C197.382 23.1866 196.951 19.9812 196.089 17.8843C195.227 15.7873 193.964 14.3794 192.298 13.6604C190.689 12.9415 188.736 12.582 186.438 12.582C184.14 12.582 182.158 12.9415 180.492 13.6604C178.883 14.3794 177.62 15.7873 176.7 17.8843C175.839 19.9812 175.408 23.1866 175.408 27.5003C175.408 31.814 175.839 35.0194 176.7 37.1163C177.62 39.2133 178.883 40.6212 180.492 41.3402C182.158 42.0591 184.14 42.4186 186.438 42.4186Z" fill="#252F4A"/>
</g>
</g>
<defs>
<clipPath id="clip0_3133_13040">
<rect width="203" height="55" fill="white" transform="translate(0.5)"/>
</clipPath>
</defs>
</svg>
