<svg width="190" height="48" viewBox="0 0 190 48" fill="none" xmlns="http://www.w3.org/2000/svg">
<g clip-path="url(#clip0_433_34636)">
<g clip-path="url(#clip1_433_34636)">
<path d="M118.723 29.0898C116.877 27.8835 114.553 28.3746 112.453 29.0046C110.289 29.6537 108.289 30.0898 106.608 30.2957C108.136 33.5673 111.392 35.8262 115.162 35.8262C120.398 35.8262 124.643 31.4677 124.643 26.0912C124.643 25.2535 124.54 24.4406 124.347 23.6649C123.926 23.9448 123.712 24.0435 123.105 24.5519C121.456 26.0347 120.521 28.1831 120.544 30.4335L120.547 30.7577L120.339 30.5138C119.864 29.9569 119.319 29.4793 118.723 29.0898Z" fill="#3F3F46"/>
<path d="M106.167 29.0653L106.169 29.0696C105.879 29.1043 105.598 29.1321 105.329 29.1529C103.066 29.3273 101.541 29.0089 101.232 28.146C100.849 27.0785 102.326 25.513 105.124 24.0479L105.121 24.0592C104.994 24.6137 104.949 24.8107 104.912 25.4005C104.048 26.1056 103.618 26.7404 103.772 27.2104C103.888 27.5636 104.324 27.704 105.007 27.6841C105.241 27.6773 105.504 27.6515 105.794 27.6089C105.718 27.1144 105.679 26.6076 105.679 26.0913C105.679 20.7148 109.924 16.3563 115.161 16.3563C118.684 16.3563 121.759 18.3302 123.394 21.2599C123.589 21.1364 123.764 21.0085 123.926 20.8902L123.927 20.8901L123.927 20.89C123.969 20.8591 124.011 20.8287 124.051 20.7994C124.763 20.2913 125.127 19.8735 125.033 19.6095C124.923 19.3049 124.22 19.2504 123.115 19.4067C122.897 19.1332 122.667 18.8712 122.425 18.6215C125.363 18.0334 127.396 18.482 127.758 19.4941C127.931 19.976 127.707 20.5809 127.157 21.2599C126.959 21.5043 126.718 21.7582 126.439 22.0194C123.908 24.3857 119.059 23.9824 116.989 21.0993L116.953 21.5995C116.843 23.1328 116.274 24.4665 115.394 25.5899C114.42 26.8332 112.949 27.5146 111.452 27.9428C109.502 28.5007 107.701 28.8791 106.167 29.0653Z" fill="#A1A1AA"/>
<path d="M68.1356 35.4851C66.3607 35.4851 64.9167 35.3913 63.8036 35.2037C62.6906 35.0162 61.8332 34.7036 61.2315 34.266C60.6599 33.7971 60.2538 33.1876 60.0131 32.4373C59.8026 31.6871 59.6973 30.765 59.6973 29.6709C59.6973 28.0767 59.8778 26.8576 60.2388 26.0136C60.5998 25.1696 61.2315 24.5914 62.134 24.2788C63.0365 23.9662 64.2398 23.8099 65.744 23.8099C66.4961 23.8099 67.3083 23.8411 68.1808 23.9037C69.0833 23.9349 69.9406 23.9818 70.7529 24.0443C71.5952 24.0756 72.3172 24.1225 72.9189 24.185C73.5506 24.2475 73.9718 24.3257 74.1824 24.4194C74.1824 22.9815 74.0621 21.8406 73.8214 20.9966C73.5807 20.1526 73.2047 19.5274 72.6933 19.1211C72.2119 18.7147 71.5952 18.449 70.8431 18.324C70.1211 18.1989 69.2788 18.1364 68.3161 18.1364C67.3234 18.1364 66.3156 18.1833 65.2928 18.2771C64.3 18.3396 63.3825 18.4646 62.5401 18.6522C61.6978 18.8085 61.051 19.0273 60.5998 19.3086V18.6053C60.5998 17.9488 60.7803 17.4956 61.1413 17.2455C61.5323 16.9642 61.9686 16.7766 62.4499 16.6829C63.0215 16.5266 63.8488 16.4015 64.9318 16.3078C66.0448 16.214 67.2031 16.1827 68.4064 16.214C69.9406 16.214 71.2493 16.2921 72.3323 16.4484C73.4453 16.6047 74.3629 16.9486 75.0849 17.48C75.8069 17.9801 76.3484 18.7459 76.7094 19.7775C77.0704 20.809 77.2509 22.2157 77.2509 23.9974V33.6564C77.0704 34.2816 76.2732 34.7505 74.8593 35.0631C73.4454 35.3444 71.2041 35.4851 68.1356 35.4851ZM68.1356 33.8909C69.5195 33.8909 70.6175 33.844 71.4298 33.7502C72.2721 33.6564 72.9038 33.5314 73.325 33.3751C73.7763 33.2188 74.0621 33.0156 74.1824 32.7656V25.7792C73.9116 25.6854 73.4002 25.5916 72.6481 25.4979C71.9261 25.4041 71.159 25.3259 70.3468 25.2634C69.5345 25.1696 68.8426 25.1228 68.271 25.1228C66.9774 25.1228 65.9245 25.2009 65.1123 25.3572C64.3301 25.5135 63.7585 25.9042 63.3975 26.5294C63.0666 27.1546 62.9011 28.1236 62.9011 29.4365C62.9011 30.468 63.0215 31.312 63.2621 31.9685C63.5028 32.6249 63.9841 33.1094 64.7061 33.422C65.4582 33.7346 66.6014 33.8909 68.1356 33.8909Z" fill="#3F3F46"/>
<path d="M80.622 40.1739L80.6671 20.387C80.6671 19.5118 80.6521 18.7616 80.622 18.1364C80.622 17.48 80.607 17.058 80.5769 16.8704C80.7875 16.8079 81.2087 16.7454 81.8404 16.6829C82.4722 16.6203 83.1941 16.5735 84.0064 16.5422C84.8186 16.4797 85.6459 16.4328 86.4883 16.4015C87.3607 16.339 88.1429 16.3078 88.8348 16.3078C91.2715 16.3078 93.1668 16.6516 94.5205 17.3393C95.9044 17.9957 96.8821 19.0429 97.4536 20.4808C98.0252 21.9187 98.2509 23.7786 98.1305 26.0605C98.0704 28.3112 97.7846 30.1242 97.2732 31.4996C96.7617 32.8437 95.9344 33.8284 94.7913 34.4535C93.6481 35.0475 92.0838 35.3444 90.0983 35.3444C88.8949 35.3444 87.7969 35.2194 86.8042 34.9693C85.8415 34.7192 85.0593 34.2972 84.4576 33.7033C84.2119 33.448 84.0014 33.1484 83.8259 32.8045V40.1739H80.622ZM89.4665 33.3751C91.3317 33.3751 92.7155 32.7968 93.618 31.6402C94.5205 30.4837 94.9718 28.53 94.9718 25.7792C95.0319 22.9972 94.6108 21.0435 93.7083 19.9182C92.8058 18.7928 91.1813 18.2302 88.8348 18.2302C88.3835 18.2302 87.8119 18.2458 87.12 18.2771C86.4582 18.3083 85.8114 18.3552 85.1796 18.4177C84.578 18.449 84.1267 18.4959 83.8259 18.5584V27.9361C83.8259 29.4052 84.0515 30.5305 84.5028 31.312C84.9841 32.0935 85.6459 32.6405 86.4883 32.9531C87.3306 33.2344 88.3234 33.3751 89.4665 33.3751Z" fill="#3F3F46"/>
<path d="M135.173 35.3444C133.789 35.3444 132.796 35.0318 132.194 34.4066C131.593 33.7502 131.292 32.5936 131.292 30.9369V13.0256C131.292 12.6505 131.322 12.3535 131.382 12.1347C131.442 11.8846 131.563 11.7127 131.743 11.6189C131.954 11.5251 132.239 11.4783 132.6 11.4783H134.496C134.496 11.5095 134.481 11.7127 134.451 12.0878C134.42 12.4629 134.405 12.9318 134.405 13.4945V30.4211C134.405 31.609 134.526 32.4686 134.766 33C135.037 33.5314 135.549 33.7971 136.301 33.7971C136.511 33.7971 136.797 33.7658 137.158 33.7033C137.519 33.6408 137.76 33.5939 137.88 33.5627V35.0162C137.7 35.0475 137.399 35.11 136.978 35.2037C136.586 35.2975 135.985 35.3444 135.173 35.3444Z" fill="#3F3F46"/>
<path d="M143.929 35.3444C142.545 35.3444 141.552 35.0318 140.951 34.4066C140.349 33.7502 140.048 32.5936 140.048 30.9369V13.0256C140.048 12.6505 140.078 12.3535 140.138 12.1347C140.198 11.8846 140.319 11.7127 140.499 11.6189C140.71 11.5251 140.996 11.4783 141.357 11.4783H143.252C143.252 11.5095 143.237 11.7127 143.207 12.0878C143.177 12.4629 143.162 12.9318 143.162 13.4945V30.4211C143.162 31.609 143.282 32.4686 143.523 33C143.793 33.5314 144.305 33.7971 145.057 33.7971C145.268 33.7971 145.553 33.7658 145.914 33.7033C146.275 33.6408 146.516 33.5939 146.636 33.5627V35.0162C146.456 35.0475 146.155 35.11 145.734 35.2037C145.343 35.2975 144.741 35.3444 143.929 35.3444Z" fill="#3F3F46"/>
<path d="M157.065 35.4382C155.682 35.4382 154.433 35.3288 153.32 35.11C152.237 34.8912 151.289 34.4535 150.477 33.7971C149.695 33.1407 149.093 32.1716 148.672 30.89C148.251 29.6084 148.04 27.9204 148.04 25.8261C148.04 23.7317 148.251 22.0438 148.672 20.7621C149.093 19.4805 149.695 18.5115 150.477 17.8551C151.289 17.1986 152.237 16.761 153.32 16.5422C154.433 16.3234 155.682 16.214 157.065 16.214C158.419 16.214 159.637 16.3234 160.72 16.5422C161.834 16.761 162.781 17.1986 163.563 17.8551C164.346 18.5115 164.947 19.4805 165.368 20.7621C165.79 22.0438 166 23.7317 166 25.8261C166 27.9517 165.79 29.6553 165.368 30.9369C164.947 32.2185 164.346 33.1876 163.563 33.844C162.781 34.4692 161.834 34.8912 160.72 35.11C159.637 35.3288 158.419 35.4382 157.065 35.4382ZM157.065 33.6095C158.269 33.6095 159.292 33.422 160.134 33.0469C161.006 32.6718 161.668 31.9372 162.119 30.8431C162.571 29.7491 162.796 28.0767 162.796 25.8261C162.796 23.5754 162.571 21.9031 162.119 20.809C161.668 19.715 161.006 18.9804 160.134 18.6053C159.292 18.2302 158.269 18.0426 157.065 18.0426C155.862 18.0426 154.824 18.2302 153.952 18.6053C153.109 18.9804 152.448 19.715 151.966 20.809C151.515 21.9031 151.289 23.5754 151.289 25.8261C151.289 28.0767 151.515 29.7491 151.966 30.8431C152.448 31.9372 153.109 32.6718 153.952 33.0469C154.824 33.422 155.862 33.6095 157.065 33.6095Z" fill="#3F3F46"/>
</g>
<path d="M12.5641 45.2902C5.88846 41.6428 1.12742 34.9253 0.175108 27.0334C0.0188751 26.076 5.14984e-05 25.0791 5.14984e-05 24.1117C5.14984e-05 10.7952 10.7848 0 24.0884 0C23.6546 2.00139 20.4332 2.6764 20.4332 2.6764C20.5273 2.97399 20.5886 3.28715 20.6126 3.61198C20.6296 3.84105 20.3447 3.9386 20.1733 3.78591C19.5012 3.18729 18.7884 3.01461 18.076 2.84199C17.5316 2.71012 16.6502 2.5334 16.1245 2.21171C15.0018 2.6042 14.6202 3.47676 13.8778 4.33146C13.3788 4.90585 12.8693 5.49244 12.2195 5.96736C12.2976 6.3068 12.3312 6.66249 12.314 7.02754C12.285 7.64013 12.1161 8.21294 11.8397 8.71646C11.7808 8.82377 11.6539 8.8706 11.5357 8.83913C11.0728 8.71593 10.59 8.63973 10.0922 8.61617C8.97506 8.56329 5.80395 8.83286 5.70193 10.2987C5.67837 10.6374 5.6403 10.9787 5.58719 11.3218C5.53929 11.6312 5.48012 11.9357 5.4103 12.2346C6.38292 11.2132 7.6196 10.5494 8.94104 10.3975C9.1158 10.3774 9.25297 10.5366 9.21165 10.7078C8.80296 12.4007 7.8788 13.8223 6.68149 14.7639C5.80712 15.4516 4.97025 16.0232 4.12827 16.5984L4.12803 16.5985C1.89773 18.1221 1.30817 19.8918 1.08368 21.7732C1.78822 20.4411 2.81968 19.3129 4.06738 18.4916C4.21655 18.3934 4.41537 18.4719 4.45607 18.6459C4.60419 19.279 4.67157 19.942 4.64711 20.6231C4.60711 21.7365 4.3257 22.7842 3.85509 23.7178C4.35185 23.967 4.8164 24.2698 5.24148 24.6184C5.36742 24.7217 5.36616 24.9126 5.24656 25.0231C2.45909 27.6004 1.61447 30.7353 3.22576 34.101C2.91483 32.3778 3.1251 30.6022 3.98093 29.0425C4.12593 28.7783 4.28317 28.525 4.45156 28.2831C4.56371 28.1219 4.80292 28.1417 4.88915 28.3181C5.40877 29.3814 5.75115 30.5242 5.90207 31.6976C6.35107 31.5809 6.82059 31.5142 7.30454 31.5039C7.57401 31.4981 7.38995 31.7308 7.03308 32.1819C4.9968 34.7563 4.48993 36.8049 6.57955 39.2278C6.5118 39.0329 6.39539 37.8234 6.43783 36.9071C6.45785 36.4751 6.51318 36.1083 6.62557 35.9437C6.6808 35.8628 6.74982 35.8307 6.83521 35.8638C8.06519 36.3401 9.38194 37.4458 10.1745 38.5278C10.5584 39.0518 10.8162 39.6296 10.9525 40.2207C11.8039 39.827 12.9465 39.9727 13.2436 40.9371C13.4244 41.5241 13.118 42.1246 12.5591 42.2784C12.126 42.3976 11.6684 42.2135 11.4002 41.8513C10.4447 44.2997 13.4536 43.7287 12.5641 45.2902Z" fill="#99A1B7"/>
<path d="M35.6127 45.2902C42.2883 41.6428 47.0493 34.9253 48.0016 27.0334C48.1579 26.076 48.1767 25.0791 48.1767 24.1117C48.1767 10.7952 37.392 0 24.0884 0C24.5222 2.00139 27.7436 2.6764 27.7436 2.6764C27.6495 2.97399 27.5882 3.28715 27.5641 3.61198C27.5472 3.84105 27.832 3.9386 28.0035 3.78591C28.6756 3.18729 29.3884 3.01461 30.1008 2.84199C30.6451 2.71012 31.5266 2.5334 32.0523 2.21171C33.175 2.6042 33.5566 3.47676 34.299 4.33146C34.7979 4.90585 35.3075 5.49244 35.9572 5.96736C35.8791 6.3068 35.8455 6.66249 35.8628 7.02754C35.8917 7.64013 36.0606 8.21294 36.3371 8.71646C36.396 8.82377 36.5229 8.8706 36.6411 8.83913C37.1039 8.71593 37.5868 8.63973 38.0846 8.61617C39.2017 8.56329 42.3728 8.83286 42.4748 10.2987C42.4984 10.6374 42.5365 10.9787 42.5896 11.3218C42.6375 11.6312 42.6966 11.9357 42.7665 12.2346C41.7938 11.2132 40.5572 10.5494 39.2357 10.3975C39.061 10.3774 38.9238 10.5366 38.9651 10.7078C39.3738 12.4007 40.298 13.8223 41.4953 14.7639C42.3696 15.4516 43.2065 16.0232 44.0485 16.5984L44.0487 16.5985C46.279 18.122 46.8686 19.8918 47.0931 21.7732C46.3885 20.4411 45.3571 19.3129 44.1094 18.4916C43.9602 18.3934 43.7614 18.4719 43.7207 18.6459C43.5726 19.279 43.5052 19.942 43.5296 20.6231C43.5697 21.7365 43.8511 22.7842 44.3217 23.7178C43.8249 23.967 43.3604 24.2698 42.9353 24.6184C42.8093 24.7217 42.8106 24.9126 42.9302 25.0231C45.7177 27.6004 46.5623 30.7353 44.951 34.101C45.2619 32.3778 45.0517 30.6022 44.1958 29.0425C44.0508 28.7783 43.8936 28.525 43.7252 28.2831C43.613 28.1219 43.3738 28.1417 43.2876 28.3181C42.768 29.3814 42.4256 30.5242 42.2747 31.6976C41.8257 31.5809 41.3562 31.5142 40.8722 31.5039C40.6027 31.4981 40.7868 31.7308 41.1437 32.1819C43.18 34.7563 43.6868 36.8048 41.5972 39.2278C41.665 39.0329 41.7814 37.8234 41.7389 36.9071C41.7189 36.4751 41.6636 36.1083 41.5512 35.9437C41.496 35.8628 41.4269 35.8307 41.3416 35.8638C40.1116 36.3401 38.7948 37.4458 38.0022 38.5278C37.6184 39.0518 37.3606 39.6296 37.2243 40.2207C36.3728 39.827 35.2302 39.9727 34.9332 40.9371C34.7524 41.5241 35.0588 42.1246 35.6176 42.2784C36.0508 42.3976 36.5084 42.2135 36.7765 41.8513C37.7321 44.2997 34.7231 43.7287 35.6127 45.2902Z" fill="#99A1B7"/>
<path fill-rule="evenodd" clip-rule="evenodd" d="M14.8095 39.1996C14.8095 41.5513 14.2281 43.767 13.2012 45.7108C15.3642 46.8081 17.7146 47.5879 20.1915 47.9891C18.7707 47.14 17.6526 45.8348 17.0382 44.2751C16.9465 44.0424 17.2326 43.8667 17.423 44.0285C19.1925 45.5321 21.4826 46.439 23.984 46.439C26.5611 46.439 28.9139 45.4764 30.7043 43.8903C30.8913 43.7246 31.1809 43.8944 31.0941 44.1289C30.4906 45.76 29.3404 47.1249 27.8667 48C30.3647 47.6027 32.7348 46.8205 34.9148 45.7158C33.8942 43.7754 33.3166 41.5651 33.3166 39.2198V38.3448C33.3166 38.0593 33.3834 37.8275 33.4976 37.6305C33.707 37.2689 34.056 37.0417 34.4041 36.8152L34.4044 36.815C34.5971 36.6895 34.7896 36.5642 34.9578 36.4164C35.1781 36.2229 35.3784 36.0065 35.5553 35.7712C35.8504 35.3788 36.0012 34.9114 36.1515 34.4453C36.3311 33.8885 36.5101 33.3335 36.934 32.9106C37.1453 32.6997 37.4009 32.5528 37.6563 32.406C37.9383 32.2439 38.2202 32.0819 38.4423 31.834C38.6478 31.6047 38.8173 31.3422 38.9417 31.0555C39.0928 30.7074 39.178 30.3454 39.2632 29.9834L39.2633 29.9831C39.3697 29.5312 39.4761 29.0792 39.7105 28.6541C40.4414 27.53 40.7483 26.1514 40.5883 24.8215C40.5601 24.5876 40.4986 24.3602 40.4372 24.133L40.437 24.1325L40.437 24.1323C40.3537 23.8243 40.2705 23.5167 40.2705 23.1939C40.2705 22.687 40.4244 22.2012 40.58 21.7103C40.7388 21.2093 40.8993 20.703 40.8993 20.1637C40.8993 18.9321 40.5119 17.7913 39.8527 16.8569C39.6679 16.5951 39.4473 16.3667 39.2272 16.1389L39.2268 16.1385C38.9536 15.8557 38.6811 15.5737 38.4785 15.2292C38.2513 14.843 38.1674 14.4358 38.0831 14.0272L38.0829 14.0268L38.0827 14.0261C38.0217 13.7305 37.9606 13.4343 37.8451 13.1448C37.7165 12.8225 37.5318 12.529 37.3031 12.2763C36.9597 11.8968 36.5263 11.6838 36.0906 11.4697C35.7082 11.2818 35.3242 11.093 34.9981 10.7902C34.631 10.4493 34.3356 10.032 34.137 9.56343C33.8269 9.03593 33.3544 8.61589 32.7884 8.3724C32.5566 8.27268 32.3088 8.22466 32.0602 8.1765C31.8268 8.1313 31.5929 8.08598 31.3711 7.99763C31.0913 7.88615 30.8289 7.7254 30.5663 7.56456L30.5661 7.56441C30.344 7.42835 30.1218 7.29227 29.889 7.18591C29.1676 6.85635 28.3658 6.67276 27.5214 6.67276C26.906 6.67276 26.3133 6.77027 25.7578 6.95071C25.1206 7.22588 24.5842 7.30353 24.1002 7.30353L24.0814 7.30349L24.063 7.30337V7.30299L24.0377 7.30312L24.0259 7.30314C23.5418 7.30314 23.0054 7.22554 22.3683 6.95054C21.8128 6.7702 21.2201 6.67276 20.6047 6.67276C19.7602 6.67276 18.9585 6.85624 18.2371 7.18559C18.0043 7.29188 17.7821 7.42789 17.56 7.56387L17.5598 7.564C17.2972 7.72475 17.0347 7.88539 16.7549 7.9968C16.5332 8.0851 16.2992 8.1304 16.0658 8.1756L16.0655 8.17564C15.8171 8.22374 15.5694 8.27171 15.3376 8.37136C14.7716 8.61469 14.2992 9.03447 13.9891 9.56165C13.7904 10.0299 13.495 10.4469 13.128 10.7876C12.8018 11.0903 12.4178 11.2789 12.0353 11.4668C11.5998 11.6807 11.1664 11.8936 10.823 12.2728C10.5943 12.5253 10.4096 12.8187 10.281 13.1408C10.1655 13.4303 10.1043 13.7264 10.0433 14.0217L10.0432 14.022C9.95885 14.4307 9.87478 14.8378 9.64754 15.224C9.445 15.5681 9.17254 15.8499 8.89942 16.1324L8.89926 16.1326L8.89889 16.133C8.67874 16.3607 8.45814 16.5889 8.2734 16.8506C7.61417 17.7844 7.22681 18.9245 7.22681 20.1554C7.22681 20.6943 7.38725 21.2003 7.5461 21.7011C7.70165 22.1916 7.85561 22.6771 7.85561 23.1836C7.85561 23.5063 7.77242 23.8137 7.68913 24.1215L7.68905 24.1217L7.68892 24.1222C7.62747 24.3493 7.56596 24.5766 7.53782 24.8103C7.37775 26.1394 7.68468 27.5171 8.41557 28.6405C8.64999 29.0654 8.75639 29.5171 8.86277 29.9687C8.94803 30.3306 9.03328 30.6925 9.1844 31.0405C9.30878 31.3269 9.47826 31.5892 9.68376 31.8184C9.90589 32.0661 10.1878 32.2281 10.4698 32.3901C10.7252 32.5368 10.9807 32.6836 11.1921 32.8943C11.616 33.3171 11.795 33.8717 11.9746 34.4282C12.1249 34.894 12.2756 35.361 12.5708 35.7533C12.7477 35.9883 12.948 36.2046 13.1683 36.398C13.3364 36.5457 13.5289 36.6709 13.7217 36.7964L13.722 36.7966C14.07 37.023 14.419 37.25 14.6285 37.6114C14.7426 37.8083 14.8095 38.0399 14.8095 38.3252V39.1996ZM32.2427 19.6004C32.2282 19.6139 32.2134 19.6271 32.1983 19.6402C32.1739 19.6613 32.1488 19.682 32.123 19.7021C31.7471 20.2234 31.1355 20.5626 30.4449 20.5626C27.9352 20.5626 25.6254 22.0414 25.6254 24.8339C25.6254 25.0618 25.6267 25.2863 25.628 25.5092C25.6319 26.1585 25.6357 26.7937 25.6061 27.456C25.5868 27.8876 26.7306 28.6543 26.8065 27.6685L26.8078 27.6686L26.8334 27.2111H26.8361C26.8678 26.9928 26.8973 26.7134 26.9228 26.4394C26.9512 26.1324 27.2619 25.9347 27.544 26.0577C27.6627 26.1094 27.7752 26.1603 27.8833 26.2096L27.9856 26.2564L27.9859 26.2565L27.9862 26.2567C28.6306 26.5517 29.1283 26.7795 29.873 26.7795C30.9173 26.7795 31.8743 26.5322 32.7059 26.0281C32.7336 26.0114 32.7688 26.0131 32.7939 26.0336C33.4252 26.5484 33.8892 27.3791 33.8892 28.2548C33.8892 31.1247 30.1236 29.962 30.1236 35.4059C30.1236 38.023 29.7208 40.4023 27.0767 41.733C26.5714 41.9873 25.9931 42.0272 25.431 41.9648L25.3691 41.9579C24.9114 41.9122 24.5251 41.6233 24.3407 41.222C24.3073 41.1495 24.2495 41.0894 24.1738 41.0649C23.661 40.8991 23.1285 40.7775 22.5807 40.7046C22.2407 40.6593 21.9962 40.3413 22.0479 40.0014L22.0543 39.959L22.0584 39.9311L22.0629 39.9006L22.0716 39.8395C22.0746 39.8182 22.0775 39.7968 22.0804 39.7754C22.1335 39.3825 22.5295 39.124 22.9174 39.201C23.2778 39.2725 23.6504 39.31 24.0317 39.31C25.0988 39.31 26.0974 39.0164 26.9517 38.5053C27.0502 38.4463 27.0461 38.3048 26.9443 38.2516C26.1573 37.8412 25.2629 37.6092 24.3145 37.6092C23.9111 37.6092 23.5789 37.6716 23.2252 37.738C22.9716 37.7856 22.7071 37.8353 22.3973 37.8655C22.2958 37.8754 22.2003 37.8146 22.1704 37.7168C22.1042 37.5002 22.0684 37.288 22.0446 37.0796C22.0101 36.7775 22.2639 36.5203 22.5668 36.5347L25.7989 36.6879L26.9555 36.6622C26.9718 36.6602 26.9899 36.6581 27.0095 36.6558L27.0108 36.6557C27.3049 36.6217 27.9286 36.5498 27.6753 36.1339L27.675 36.1337C27.5738 35.968 27.3926 35.8136 27.2242 35.67L27.2237 35.6696C27.1483 35.6053 27.0753 35.5431 27.0134 35.4832C26.6327 35.1147 26.2665 34.8905 25.7025 34.8905C25.3837 34.8905 25.1066 35.006 24.8329 35.1201C24.5659 35.2315 24.3022 35.3415 24.006 35.3415C23.7334 35.3415 23.6287 35.2538 23.4534 35.0715C23.1225 34.7274 23.5606 34.3179 24.0247 34.2085C24.0766 34.1962 24.1282 34.1827 24.1795 34.1679C24.9899 33.9348 25.6744 33.403 26.1069 32.699C26.2545 32.4588 26.0522 32.1779 25.7728 32.1439C25.3122 32.0877 24.9707 31.9323 24.612 31.7691C24.1251 31.5475 23.6063 31.3115 22.7144 31.2892C22.8315 30.1821 22.9136 28.9164 22.9136 27.7781C22.9136 26.562 22.845 25.3619 22.7115 24.1816C22.3689 21.8282 20.2382 20.5882 17.9398 20.5882C16.7203 20.6209 16.224 20.1373 15.784 19.7085C15.4427 19.3759 15.1352 19.0763 14.5502 19.0763C14.076 19.0763 13.7236 19.2728 13.3902 19.5101C13.3102 19.5671 13.2316 19.6261 13.153 19.685C13.0304 19.7771 12.9078 19.8691 12.7797 19.9535C12.6459 20.0416 12.5057 20.1217 12.3532 20.185C11.4411 20.5639 10.3629 20.4029 9.59975 19.7719C9.52732 19.712 9.51906 19.6042 9.58532 19.5376C9.64071 19.4819 9.70047 19.4306 9.76406 19.3842C9.99877 19.2132 10.3084 19.2684 10.5813 19.3671C10.8678 19.4707 11.1768 19.5272 11.4989 19.5272C12.2431 19.5272 12.7799 19.115 13.3081 18.7093C13.8198 18.3164 14.3234 17.9296 14.9999 17.9296C15.351 17.9296 15.6209 18.0746 15.886 18.217C15.9752 18.2649 16.0638 18.3125 16.1548 18.3542C16.3386 18.4384 16.4835 18.2468 16.3877 18.0683C16.1489 17.6233 15.8523 17.1839 15.3981 16.9815C15.1176 16.8565 14.7995 16.8045 14.4714 16.8465C14.1832 16.8834 13.9206 16.9887 13.6982 17.1438C13.5341 17.2582 13.3837 17.372 13.2398 17.4808L13.2387 17.4817C12.6306 17.9416 12.1394 18.3131 11.2291 18.2737C11.0246 18.2649 10.015 17.9039 10.1332 17.7627C10.3697 17.5244 10.7679 17.5763 11.1448 17.6254C11.3473 17.6517 11.5437 17.6773 11.7055 17.6566C12.1959 17.5938 12.4916 17.2464 12.7891 16.8969L12.7933 16.8919C12.8131 16.8686 12.833 16.8454 12.8529 16.8222C12.8933 16.775 12.9341 16.7282 12.9756 16.6824C13.4284 16.1829 13.9107 15.8919 14.5978 15.8039C14.9432 15.7596 15.2342 15.8736 15.5289 15.989C15.7845 16.0891 16.0431 16.1903 16.3424 16.1903C16.927 16.1903 17.4012 15.9024 17.8522 15.5719C18.2925 15.2492 18.7888 14.9986 19.3237 14.8376C19.9501 14.6489 20.4544 14.7083 20.9879 14.7712L20.9883 14.7712C21.2661 14.8039 21.5518 14.8376 21.8669 14.8376C22.4486 14.8376 22.9502 14.6313 23.4612 14.4212L23.4624 14.4207C23.6558 14.3412 23.8505 14.2612 24.0515 14.1916C24.2464 14.259 24.4393 14.3375 24.6325 14.4162L24.6329 14.4164C25.1542 14.6286 25.6777 14.8417 26.2487 14.8417C26.564 14.8417 26.85 14.808 27.1281 14.7753C27.6617 14.7125 28.1661 14.6531 28.7928 14.8417C29.3279 15.0028 29.8243 15.2534 30.2648 15.5762C30.7159 15.9067 31.1903 16.1946 31.7751 16.1946C32.0745 16.1946 32.3332 16.0934 32.5889 15.9932C32.8837 15.8778 33.1748 15.7639 33.5203 15.8081C34.2076 15.8962 34.6901 16.1872 35.1431 16.6867C35.1795 16.7268 35.2153 16.7678 35.2508 16.809C35.2772 16.8396 35.3034 16.8705 35.3296 16.9013C35.6273 17.2508 35.9231 17.5982 36.4137 17.661C36.5755 17.6817 36.7719 17.6562 36.9746 17.6298C37.3515 17.5807 37.7499 17.5289 37.9865 17.7671C38.1047 17.9083 37.0948 18.2694 36.8902 18.2782C35.9796 18.3176 35.4882 17.9461 34.8799 17.4861C34.7356 17.377 34.5848 17.2629 34.4202 17.1482C34.1977 16.9931 33.935 16.8878 33.6467 16.8508C33.3186 16.8088 33.0003 16.8609 32.7197 16.9859C32.2654 17.1883 31.9686 17.6278 31.7298 18.0728C31.634 18.2513 31.7789 18.4429 31.9628 18.3587C31.9992 18.342 32.0353 18.3243 32.0712 18.3061C32.1249 18.2788 32.1782 18.2502 32.2317 18.2215C32.4968 18.0791 32.7669 17.9341 33.1181 17.9341C33.7948 17.9341 34.2986 18.3209 34.8104 18.7139C35.3389 19.1195 35.8759 19.5318 36.6203 19.5318C36.9425 19.5318 37.2516 19.4753 37.5382 19.3717C37.8112 19.273 38.121 19.2178 38.3557 19.3888C38.4194 19.4352 38.4791 19.4865 38.5345 19.5422C38.6008 19.6089 38.5926 19.7167 38.5201 19.7765C37.7567 20.4076 36.6781 20.5686 35.7656 20.1897C35.4657 20.0651 35.2132 19.8756 34.9636 19.6882L34.9632 19.688C34.5548 19.3814 34.1545 19.0808 33.5679 19.0808C33.0565 19.0808 32.5909 19.2779 32.2427 19.6004ZM34.7508 21.1786C34.9665 21.131 35.2011 21.1645 35.4002 21.2605C35.4722 21.2952 35.5355 21.3268 35.5631 21.3461C35.5994 21.3715 35.6355 21.3975 35.6714 21.4238C35.712 21.4535 35.7524 21.4837 35.7927 21.5138C36.1604 21.7882 36.5258 22.0609 37.018 22.0128C37.1804 21.9969 37.3662 21.9282 37.5579 21.8573C37.9146 21.7254 38.2915 21.586 38.575 21.7655C38.7216 21.8768 37.817 22.454 37.6195 22.5083C36.9843 22.6827 36.515 22.5992 36.0412 22.4214C35.5527 22.2381 35.1083 21.9885 34.6574 21.7292L34.5684 21.678C34.3645 21.5608 34.4115 21.2534 34.6411 21.2028L34.7508 21.1786ZM36.1045 26.2425C35.9854 26.1197 36.0744 25.9245 36.2123 25.9859C36.7312 26.217 37.2815 26.3043 37.8328 26.2165L37.8498 26.2138L37.866 26.211L37.8772 26.2091L37.8934 26.2062L37.897 26.2055L37.9006 26.2049L37.904 26.2042L37.9097 26.2032L37.9159 26.202L37.9225 26.2007C38.059 26.1742 38.1536 26.3927 38.0379 26.4859C37.8584 26.6304 37.6527 26.727 37.4269 26.763C36.9544 26.8382 36.4835 26.6338 36.1045 26.2425ZM35.2557 23.4171C35.4952 23.3488 35.7753 23.382 35.9784 23.5265L35.9844 23.5308L35.9864 23.5323L35.9872 23.5329L35.9883 23.5337L35.9896 23.5346L35.9931 23.5373L35.9949 23.5387L35.9971 23.5404L35.9983 23.5414L35.9993 23.5421L36.0001 23.5428L36.0008 23.5434L36.0016 23.5441L36.0022 23.5446L36.0067 23.5484L36.0182 23.5588L36.0234 23.5637L36.0357 23.5749L36.0546 23.5924L36.0737 23.6102L36.0926 23.6281C36.1083 23.643 36.124 23.6579 36.1396 23.673L36.1834 23.7151L36.1837 23.7155C36.4673 23.9887 36.7491 24.2603 37.1287 24.2124C37.2539 24.1966 37.3972 24.1282 37.5451 24.0575C37.8201 23.9262 38.1107 23.7873 38.3294 23.9662C38.4424 24.077 37.7449 24.6519 37.5926 24.706C37.1027 24.8797 36.7407 24.7965 36.3754 24.6194C35.9987 24.4369 35.6559 24.1882 35.3083 23.93L35.1797 23.8345C35.0224 23.7177 35.0674 23.4707 35.2557 23.4171ZM13.379 21.1738C13.1633 21.1262 12.9289 21.1597 12.7298 21.2557C12.6578 21.2904 12.5946 21.322 12.567 21.3413C12.4896 21.3954 12.4135 21.4522 12.3375 21.509C11.9699 21.7833 11.6046 22.056 11.1126 22.0079C10.9503 21.9921 10.7645 21.9233 10.5728 21.8524C10.2163 21.7205 9.83957 21.5812 9.55615 21.7607C9.40961 21.872 10.3138 22.4491 10.5113 22.5034C11.1462 22.6778 11.6155 22.5943 12.0891 22.4165C12.5773 22.2332 13.0216 21.9836 13.4723 21.7244L13.5613 21.6732C13.7651 21.556 13.7181 21.2486 13.4887 21.198L13.379 21.1738ZM12.0258 26.2373C12.1448 26.1145 12.0559 25.9193 11.9181 25.9807C11.3993 26.2118 10.8492 26.299 10.2981 26.2113L10.281 26.2085L10.2649 26.2058L10.2537 26.2038L10.2375 26.2009L10.2345 26.2004L10.2258 26.1988L10.2185 26.1974L10.2084 26.1954C10.072 26.169 9.97738 26.3875 10.0931 26.4807C10.2724 26.6252 10.4781 26.7217 10.7038 26.7577C11.1762 26.8329 11.6469 26.6285 12.0258 26.2373ZM12.8743 23.4121C12.6348 23.3439 12.3549 23.377 12.1518 23.5215L12.1478 23.5244L12.1419 23.5287L12.1388 23.531L12.1379 23.5317L12.137 23.5324L12.1353 23.5337L12.1341 23.5346L12.1326 23.5359L12.1317 23.5366L12.1307 23.5374L12.1303 23.5377L12.1292 23.5386L12.128 23.5396L12.1236 23.5435C12.1075 23.5579 12.0916 23.5726 12.0756 23.5874C12.0629 23.5992 12.0502 23.6112 12.0376 23.6231C12.0071 23.652 11.9768 23.6812 11.9465 23.7104C11.6631 23.9837 11.3814 24.2553 11.0019 24.2074C10.8768 24.1916 10.7336 24.1231 10.5857 24.0525C10.3108 23.9212 10.0202 23.7823 9.80166 23.9611C9.68866 24.072 10.386 24.6468 10.5382 24.7008C11.0279 24.8746 11.3897 24.7914 11.755 24.6143C12.1315 24.4318 12.4742 24.1832 12.8217 23.925L12.9502 23.8295C13.1075 23.7127 13.0626 23.4657 12.8743 23.4121ZM16.1381 23.1225C15.9796 23.2818 16.1704 23.4851 16.3744 23.3915C17.1424 23.0391 17.9964 22.8428 18.8962 22.8428C18.9158 22.8428 18.9355 22.8428 18.9551 22.843C18.9844 22.8433 19.0137 22.8438 19.043 22.8445C19.2669 22.8498 19.3625 22.5875 19.1547 22.5035C18.8327 22.3733 18.4808 22.3017 18.1122 22.3017C17.341 22.3017 16.6429 22.6154 16.1381 23.1225ZM17.192 25.0225C17.0147 24.8969 17.0147 24.6407 17.192 24.5151C17.6024 24.2245 18.1033 24.0538 18.6439 24.0538C19.1845 24.0538 19.6854 24.2245 20.0957 24.5151C20.2731 24.6407 20.2731 24.8969 20.0957 25.0225C19.6854 25.3131 19.1845 25.4838 18.6439 25.4838C18.1033 25.4838 17.6024 25.3131 17.192 25.0225ZM21.1549 26.7917C21.3045 26.4465 21.1906 25.9325 20.8463 26.0826C20.7407 26.1286 20.6353 26.176 20.5297 26.2234C19.8865 26.5125 19.2371 26.8044 18.5173 26.8044C17.9569 26.8044 17.4216 26.7331 16.9173 26.5892C16.7784 26.5496 16.1466 26.2885 15.8096 26.1478C15.6782 26.093 15.526 26.1133 15.423 26.2119C15.1986 26.4268 15.0017 26.6827 14.8481 26.9653C14.6315 27.3638 14.5011 27.8153 14.5011 28.2795C14.5011 29.758 15.7974 30.8549 16.8853 31.7392C17.0231 31.8513 17.2199 31.8549 17.3589 31.7442C18.9972 30.4391 20.3099 28.7408 21.1549 26.7917ZM32.0215 23.3662C32.2255 23.4598 32.4163 23.2565 32.2578 23.0973C31.753 22.5901 31.0549 22.2763 30.2837 22.2763C29.9151 22.2763 29.5633 22.348 29.2412 22.4782C29.0334 22.5622 29.129 22.8245 29.3529 22.8192C29.3776 22.8186 29.4024 22.8182 29.4272 22.8179C29.4416 22.8177 29.456 22.8176 29.4704 22.8175L29.4879 22.8175L29.4998 22.8174C30.3995 22.8174 31.2536 23.0138 32.0215 23.3662ZM31.2039 24.9974C31.3812 24.8718 31.3812 24.6156 31.2039 24.49C30.7935 24.1994 30.2927 24.0286 29.752 24.0286C29.2114 24.0286 28.7106 24.1994 28.3002 24.49C28.1229 24.6156 28.1229 24.8718 28.3002 24.9974C28.7106 25.2881 29.2114 25.4588 29.752 25.4588C30.2927 25.4588 30.7935 25.2881 31.2039 24.9974ZM23.6133 12.7795C23.9506 12.5045 24.1767 12.49 24.5257 12.7746C24.5788 12.8179 24.6302 12.8583 24.6801 12.8961C25.502 13.5185 25.9113 13.4146 26.5541 13.2515C26.9342 13.155 27.3959 13.0379 28.0729 13.0379C28.5602 13.0379 29.0221 13.1475 29.4352 13.3436C29.7925 13.5132 30.0862 13.7603 30.3761 14.0041C30.6055 14.1971 30.8325 14.388 31.0866 14.5368C31.7348 14.9166 32.3627 14.77 33.0148 14.6178C33.1716 14.5812 33.3298 14.5443 33.49 14.5142C33.6066 14.4924 33.7269 14.481 33.8498 14.481C34.3241 14.481 34.7588 14.651 35.0965 14.9335C35.1308 14.9621 35.163 14.9907 35.1936 15.0192C35.2271 15.0504 35.2585 15.0814 35.2884 15.1123C35.3332 15.1587 35.3759 15.2069 35.4177 15.256C35.4508 15.295 35.4834 15.3345 35.5159 15.374L35.5163 15.3744L35.5167 15.3749C35.6031 15.4797 35.6894 15.5845 35.7868 15.6792C35.8994 15.7888 36.0319 15.8891 36.2146 15.9763C36.7166 16.2156 37.1248 16.1651 37.5572 15.9875C37.7094 15.9249 37.6695 15.7095 37.5058 15.6918L37.2043 15.6593C36.6337 15.6107 36.1334 15.3155 35.8096 14.8804C35.7664 14.8222 35.7235 14.7636 35.6807 14.7049C35.4809 14.4312 35.2804 14.1564 35.0293 13.9269C34.6009 13.6709 34.195 13.6596 33.7792 13.7023C33.6627 13.7143 33.5467 13.7301 33.4307 13.7459C33.387 13.7519 33.3432 13.7579 33.2994 13.7636L33.28 13.7662C33.1938 13.7774 33.1075 13.7877 33.0209 13.7955C32.9156 13.8049 32.8087 13.811 32.6996 13.811C32.2568 13.811 31.8431 13.6863 31.4915 13.47C31.3303 13.3568 31.1841 13.2526 31.05 13.1565C30.9766 13.104 30.9069 13.0538 30.8402 13.0058C30.0593 12.4441 29.7056 12.1898 28.9853 11.9752C28.3325 11.7807 27.7256 11.8527 27.1008 11.9268C27.0026 11.9384 26.9046 11.9514 26.8066 11.9643L26.8061 11.9644C26.6016 11.9914 26.397 12.0184 26.1912 12.0336C26.0551 12.0437 25.987 12.0488 25.9545 11.9942C25.9219 11.9396 25.9566 11.8848 26.0261 11.7753C26.1528 11.5753 26.3228 11.403 26.5242 11.2811C27.0933 10.9364 27.9677 10.8696 28.6217 10.8819C29.0664 10.8902 29.4858 10.998 29.8593 11.1834C29.9972 11.2519 30.1242 11.333 30.2449 11.4211C30.4032 11.5369 30.5516 11.6661 30.6999 11.7953C30.8341 11.9121 30.9682 12.029 31.1099 12.1359C31.1861 12.1934 31.2642 12.2478 31.3456 12.2974C31.9799 12.6842 32.4015 12.5806 32.9612 12.4432C33.1364 12.4001 33.3252 12.3537 33.5384 12.318C33.6902 12.2926 33.8428 12.2966 33.9953 12.3006C34.1355 12.3042 34.2757 12.3079 34.4152 12.2887C34.5846 12.2654 34.6154 12.0476 34.4791 11.9442C34.1859 11.7218 33.9329 11.5671 33.5063 11.6171C33.2877 11.6428 33.0636 11.669 32.8293 11.6646C32.4254 11.657 32.0501 11.5365 31.733 11.3337C31.6906 11.3027 31.6493 11.2725 31.609 11.243C31.562 11.2084 31.5164 11.1749 31.4722 11.1422C31.3833 11.0765 31.2948 11.0102 31.2063 10.944L31.2035 10.9419C31.0284 10.8109 30.8533 10.68 30.6754 10.553C30.2613 10.2575 29.9603 10.0858 29.4722 9.93069C28.88 9.74253 28.3251 9.7976 27.7539 9.85431C27.4469 9.88481 27.1351 9.91576 26.8102 9.90966C26.6747 9.90711 26.4828 9.88729 26.3127 9.86627C26.1444 9.84545 26.0602 9.83504 26.0394 9.77393C26.0186 9.7128 26.0787 9.65321 26.1988 9.53403C26.2593 9.47399 26.3204 9.41559 26.3705 9.37213C26.7801 9.01682 27.2568 8.95909 27.779 8.93172C28.2443 8.90734 28.6893 8.97379 29.091 9.11325C29.4541 9.23932 29.7746 9.40969 30.0844 9.57436C30.8843 9.99959 31.6097 10.2459 32.5108 9.99141C32.6447 9.95385 32.6826 9.77759 32.5738 9.69079C32.3059 9.47696 32.0127 9.35631 31.6749 9.29343C31.1364 9.19317 30.6355 8.92472 30.1332 8.65546C29.6391 8.39065 29.1437 8.12513 28.6098 8.01828C27.9793 7.8921 27.4027 7.98125 26.8092 8.07304C25.9289 8.20912 25.3038 8.4973 24.5128 8.8948C24.4398 8.93151 24.3623 8.96074 24.2815 8.98148C24.1136 9.02453 23.965 9.02214 23.7995 8.97032C23.7395 8.95152 23.6816 8.92799 23.6262 8.90015C22.8355 8.50269 22.2106 8.21455 21.3307 8.07846C20.7373 7.9867 20.1609 7.89756 19.5306 8.02372C18.9969 8.13056 18.5017 8.39605 18.0077 8.66088C17.5056 8.93005 17.0049 9.19848 16.4666 9.29872C16.1289 9.3616 15.8359 9.48224 15.568 9.69604C15.4593 9.78282 15.4971 9.95908 15.631 9.99663C16.5318 10.2511 17.2569 10.0048 18.0566 9.57963C18.3662 9.41497 18.6867 9.24462 19.0496 9.11858C19.4512 8.97913 19.896 8.91268 20.3611 8.93706C20.8831 8.96443 21.3597 9.02217 21.7692 9.37741C21.7912 9.39651 21.8153 9.41847 21.8406 9.44219C21.8728 9.47248 21.9069 9.50563 21.9408 9.5393C22.0609 9.65846 22.1209 9.71805 22.1001 9.77917C22.0793 9.84029 21.9952 9.85069 21.8269 9.8715C21.6569 9.89252 21.4651 9.91232 21.3296 9.91487C21.005 9.92099 20.6935 9.89005 20.3867 9.8596L20.3862 9.85956C19.8152 9.80285 19.2605 9.74777 18.6685 9.93591C18.0154 10.1435 17.6972 10.3809 16.9946 10.9053L16.9928 10.9066C16.8237 11.0328 16.6322 11.1757 16.4085 11.3387C16.0915 11.5415 15.7164 11.6621 15.3126 11.6696C15.0784 11.6741 14.8544 11.6478 14.6359 11.6222C14.2095 11.5722 13.9566 11.7268 13.6634 11.9492C13.5271 12.0526 13.5579 12.2704 13.7272 12.2936C13.8658 12.3127 14.0058 12.3077 14.1454 12.3028L14.1478 12.3027C14.1749 12.3017 14.2019 12.3008 14.2288 12.3C14.2443 12.2996 14.2597 12.2992 14.2751 12.2989C14.3872 12.2968 14.4971 12.3051 14.6038 12.323C14.8169 12.3587 15.0056 12.4051 15.1808 12.4481C15.7403 12.5856 16.1618 12.6891 16.7959 12.3023C17.025 12.1626 17.2288 11.9851 17.4346 11.8057L17.4348 11.8055C17.695 11.5787 17.9587 11.3489 18.2816 11.1885C18.655 11.0031 19.0743 10.8954 19.5188 10.887C20.1725 10.8747 21.0466 10.9416 21.6155 11.2861C21.8169 11.4081 21.9868 11.5804 22.1135 11.7803C22.1829 11.8899 22.2176 11.9446 22.1851 11.9992C22.1525 12.0537 22.0845 12.0487 21.9484 12.0386C21.7425 12.0233 21.5379 11.9963 21.3333 11.9693L21.2499 11.9583C21.2175 11.9541 21.185 11.9499 21.1526 11.9458C21.1148 11.941 21.0769 11.9363 21.0391 11.9318C20.4145 11.8577 19.8078 11.7857 19.1552 11.9802C18.4352 12.1948 18.0817 12.4491 17.301 13.0107C17.1126 13.1462 16.8993 13.2997 16.6499 13.4748C16.2985 13.691 15.8849 13.8157 15.4423 13.8157C15.1856 13.8157 14.9406 13.7823 14.7016 13.7496C14.3781 13.7053 14.0654 13.6626 13.7492 13.7065C13.364 13.76 13.0875 13.9271 12.8409 14.2168C12.7405 14.3348 12.6491 14.4619 12.5576 14.5892L12.5574 14.5894C12.414 14.789 12.2703 14.9889 12.0913 15.1544C11.7828 15.4396 11.3822 15.6261 10.9392 15.6639L10.6377 15.6964C10.4742 15.714 10.4342 15.9295 10.5864 15.992C10.8462 16.0988 11.0973 16.1596 11.3651 16.1392C11.6762 16.1155 11.9882 15.9864 12.2327 15.7927C12.391 15.6671 12.5224 15.5125 12.6536 15.358C12.7321 15.2656 12.8104 15.1733 12.8945 15.0873C13.0158 14.9633 13.1465 14.8496 13.2994 14.7585C13.5901 14.5852 13.9297 14.4857 14.2924 14.4857C14.4153 14.4857 14.5356 14.4971 14.6522 14.5189C14.8416 14.5544 15.028 14.6036 15.2143 14.6528C15.3701 14.6938 15.5259 14.7349 15.6834 14.768C16.1162 14.859 16.5133 14.8588 17.0547 14.5415C17.3087 14.3927 17.5356 14.2018 17.7649 14.0089C18.0547 13.7651 18.3484 13.518 18.7056 13.3485C19.1185 13.1524 19.5802 13.0427 20.0674 13.0427C20.7441 13.0427 21.2056 13.1599 21.5856 13.2563C22.2449 13.4237 22.6585 13.5286 23.5239 12.851C23.5386 12.8395 23.5534 12.8278 23.5683 12.8159C23.5832 12.804 23.5982 12.7919 23.6133 12.7795Z" fill="#252F4A"/>
<path fill-rule="evenodd" clip-rule="evenodd" d="M32.2426 19.6004C32.228 19.6138 32.2132 19.6271 32.1982 19.6402C32.1738 19.6613 32.1487 19.6819 32.1229 19.702C31.747 20.2233 31.1354 20.5626 30.4448 20.5626C27.935 20.5626 25.6252 22.0414 25.6252 24.8339C25.6252 25.0617 25.6266 25.2863 25.6279 25.5091C25.6318 26.1584 25.6355 26.7937 25.606 27.4559C25.5867 27.8876 26.7305 28.6542 26.8064 27.6684L26.8076 27.6685L26.8333 27.2111H26.836C26.8677 26.9928 26.8972 26.7134 26.9226 26.4394C26.9511 26.1323 27.2618 25.9347 27.5439 26.0576C27.6626 26.1094 27.7751 26.1603 27.8831 26.2096L27.9855 26.2564L27.986 26.2566C28.6305 26.5517 29.1282 26.7795 29.8728 26.7795C30.9172 26.7795 31.8741 26.5322 32.7058 26.0281C32.7335 26.0113 32.7687 26.0131 32.7937 26.0336C33.4251 26.5483 33.8891 27.3791 33.8891 28.2548C33.8891 31.1246 30.1235 29.962 30.1235 35.4059C30.1235 38.023 29.7206 40.4023 27.0766 41.733C26.5712 41.9873 25.993 42.0271 25.4309 41.9648L25.3689 41.9579C24.9113 41.9121 24.525 41.6233 24.3405 41.2219C24.3072 41.1494 24.2494 41.0893 24.1737 41.0648C23.6609 40.8991 23.1284 40.7775 22.5806 40.7045C22.2406 40.6593 21.9961 40.3413 22.0478 40.0014L22.0542 39.959L22.0583 39.9311L22.0627 39.9005L22.0715 39.8395C22.0744 39.8181 22.0774 39.7968 22.0803 39.7754C22.1334 39.3825 22.5293 39.124 22.9173 39.2009C23.2776 39.2725 23.6503 39.31 24.0316 39.31C25.0986 39.31 26.0973 39.0163 26.9516 38.5053C27.0501 38.4463 27.046 38.3047 26.9442 38.2516C26.1572 37.8411 25.2628 37.6092 24.3143 37.6092C23.9109 37.6092 23.5788 37.6715 23.225 37.738C22.9715 37.7856 22.7069 37.8353 22.3972 37.8655C22.2957 37.8754 22.2002 37.8145 22.1703 37.7167C22.104 37.5002 22.0683 37.288 22.0444 37.0795C22.01 36.7775 22.2638 36.5203 22.5667 36.5346L25.7987 36.6879L26.9554 36.6621C26.9717 36.6601 26.9898 36.658 27.0094 36.6558L27.0106 36.6556C27.3048 36.6217 27.9284 36.5498 27.6751 36.1339C27.5739 35.9682 27.3925 35.8135 27.2241 35.67L27.2236 35.6696C27.1481 35.6053 27.0751 35.5431 27.0132 35.4832C26.6326 35.1146 26.2664 34.8905 25.7024 34.8905C25.3836 34.8905 25.1065 35.006 24.8328 35.1201C24.5658 35.2315 24.302 35.3414 24.0059 35.3414C23.7333 35.3414 23.6286 35.2538 23.4532 35.0715C23.1223 34.7274 23.5604 34.3179 24.0245 34.2084C24.0765 34.1962 24.1281 34.1827 24.1794 34.1679C24.9898 33.9347 25.6743 33.403 26.1068 32.699C26.2544 32.4588 26.0521 32.1779 25.7727 32.1438C25.3121 32.0876 24.9706 31.9323 24.6119 31.769C24.1249 31.5475 23.6062 31.3114 22.7142 31.2892C22.8314 30.1821 22.9134 28.9163 22.9134 27.7781C22.9134 26.5619 22.8449 25.3619 22.7114 24.1816C22.3688 21.8282 20.2381 20.5881 17.9397 20.5881C16.7202 20.6209 16.2239 20.1373 15.7839 19.7085C15.4426 19.3759 15.1351 19.0762 14.55 19.0762C14.0759 19.0762 13.7234 19.2728 13.3901 19.5101C13.31 19.567 13.2315 19.626 13.1529 19.685C13.0303 19.7771 12.9077 19.8691 12.7796 19.9534C12.6458 20.0415 12.5056 20.1217 12.3531 20.185C11.441 20.5639 10.3628 20.4028 9.59963 19.7719C9.52719 19.712 9.51893 19.6042 9.5852 19.5376C9.64059 19.4819 9.70034 19.4306 9.76394 19.3842C9.99865 19.2132 10.3083 19.2684 10.5812 19.3671C10.8677 19.4707 11.1766 19.5272 11.4988 19.5272C12.243 19.5272 12.7797 19.1149 13.308 18.7093C13.8197 18.3164 14.3233 17.9296 14.9997 17.9296C15.3508 17.9296 15.6208 18.0746 15.8858 18.2169C15.975 18.2648 16.0637 18.3125 16.1547 18.3541C16.3385 18.4383 16.4834 18.2468 16.3876 18.0683C16.1488 17.6233 15.8521 17.1839 15.398 16.9815C15.1175 16.8565 14.7993 16.8044 14.4713 16.8464C14.1831 16.8834 13.9205 16.9887 13.6981 17.1438C13.534 17.2582 13.3835 17.372 13.2397 17.4808L13.2385 17.4816C12.6305 17.9416 12.1392 18.3131 11.2289 18.2737C11.0245 18.2649 10.0148 17.9038 10.133 17.7626C10.3695 17.5244 10.7678 17.5763 11.1447 17.6253C11.3472 17.6517 11.5436 17.6773 11.7053 17.6566C12.1958 17.5937 12.4915 17.2463 12.789 16.8969L12.7932 16.8919C12.813 16.8686 12.8329 16.8453 12.8528 16.8221C12.8932 16.775 12.934 16.7281 12.9755 16.6823C13.4283 16.1829 13.9106 15.8919 14.5977 15.8039C14.9431 15.7596 15.2341 15.8736 15.5287 15.9889C15.7844 16.0891 16.0429 16.1903 16.3423 16.1903C16.9269 16.1903 17.4011 15.9024 17.852 15.5719C18.2924 15.2492 18.7886 14.9986 19.3235 14.8375C19.95 14.6489 20.4543 14.7083 20.9877 14.7711C21.2655 14.8038 21.5517 14.8375 21.8668 14.8375C22.4485 14.8375 22.9501 14.6313 23.4611 14.4212L23.4623 14.4207C23.6557 14.3412 23.8504 14.2611 24.0514 14.1915C24.2463 14.259 24.4391 14.3375 24.6323 14.4162C25.1536 14.6284 25.6776 14.8417 26.2485 14.8417C26.5639 14.8417 26.8499 14.808 27.1279 14.7753C27.6616 14.7124 28.166 14.653 28.7927 14.8417C29.3278 15.0028 29.8242 15.2534 30.2647 15.5761C30.7158 15.9067 31.1902 16.1946 31.7749 16.1946C32.0744 16.1946 32.333 16.0934 32.5888 15.9932C32.8836 15.8778 33.1746 15.7638 33.5202 15.8081C34.2075 15.8962 34.6899 16.1871 35.1429 16.6867C35.1793 16.7268 35.2151 16.7677 35.2507 16.809C35.2771 16.8396 35.3033 16.8704 35.3295 16.9012C35.6271 17.2507 35.9229 17.5981 36.4136 17.661C36.5753 17.6817 36.7718 17.6561 36.9744 17.6298C37.3514 17.5807 37.7498 17.5288 37.9864 17.7671C38.1046 17.9083 37.0947 18.2693 36.8901 18.2782C35.9795 18.3176 35.488 17.946 34.8798 17.4861C34.7355 17.377 34.5846 17.2629 34.4201 17.1482C34.1976 16.9931 33.9349 16.8877 33.6466 16.8508C33.3184 16.8088 33.0002 16.8608 32.7196 16.9859C32.2653 17.1883 31.9685 17.6277 31.7297 18.0728C31.6339 18.2513 31.7787 18.4429 31.9627 18.3586C31.9991 18.3419 32.0352 18.3243 32.071 18.3061C32.1247 18.2788 32.178 18.2502 32.2316 18.2214C32.4967 18.0791 32.7668 17.9341 33.118 17.9341C33.7946 17.9341 34.2985 18.3209 34.8103 18.7138C35.3388 19.1195 35.8757 19.5318 36.6202 19.5318C36.9424 19.5318 37.2515 19.4753 37.5381 19.3717C37.8111 19.273 38.1208 19.2178 38.3556 19.3888C38.4192 19.4352 38.479 19.4865 38.5344 19.5422C38.6007 19.6088 38.5924 19.7166 38.52 19.7765C37.7566 20.4075 36.678 20.5686 35.7655 20.1897C35.4656 20.0651 35.213 19.8756 34.9634 19.6882C34.5551 19.3816 34.1543 19.0808 33.5678 19.0808C33.0564 19.0808 32.5908 19.2778 32.2426 19.6004ZM34.7506 21.1786C34.9664 21.131 35.201 21.1645 35.4001 21.2604C35.4721 21.2951 35.5354 21.3268 35.563 21.3461C35.5993 21.3715 35.6354 21.3975 35.6713 21.4238C35.7119 21.4535 35.7522 21.4836 35.7926 21.5138C36.1602 21.7881 36.5257 22.0608 37.0179 22.0127C37.1803 21.9969 37.3661 21.9281 37.5578 21.8572C37.9144 21.7253 38.2913 21.586 38.5749 21.7655C38.7215 21.8768 37.8169 22.454 37.6194 22.5082C36.9842 22.6827 36.5148 22.5991 36.0411 22.4213C35.5526 22.2381 35.1081 21.9885 34.6573 21.7292L34.5683 21.678C34.3644 21.5607 34.4114 21.2534 34.6409 21.2028L34.7506 21.1786ZM36.1043 26.2425C35.9853 26.1197 36.0742 25.9245 36.2121 25.9859C36.7311 26.217 37.2814 26.3043 37.8326 26.2165L37.8497 26.2137L37.8659 26.211L37.8771 26.2091L37.8933 26.2062L37.8969 26.2055L37.9005 26.2048L37.9039 26.2042L37.9096 26.2031L37.9158 26.2019L37.9224 26.2007C38.0589 26.1742 38.1535 26.3927 38.0377 26.4859C37.8583 26.6304 37.6526 26.727 37.4268 26.7629C36.9543 26.8382 36.4834 26.6337 36.1043 26.2425ZM35.2556 23.4171C35.4951 23.3488 35.7751 23.382 35.9783 23.5264L35.9843 23.5308L35.9863 23.5322L35.9871 23.5328L35.9882 23.5336L35.9895 23.5346L35.993 23.5373L35.9948 23.5387L35.997 23.5404L35.9982 23.5413L35.9991 23.5421L35.9999 23.5428L36.0007 23.5434L36.0015 23.5441L36.0021 23.5446L36.0066 23.5484L36.018 23.5588L36.0233 23.5636L36.0356 23.5749L36.0545 23.5924L36.0735 23.6102L36.0925 23.6281C36.1082 23.643 36.1238 23.6579 36.1395 23.6729L36.1833 23.7151C36.4669 23.9884 36.749 24.2603 37.1286 24.2124C37.2537 24.1966 37.397 24.1282 37.5449 24.0575C37.82 23.9262 38.1106 23.7873 38.3293 23.9661C38.4423 24.077 37.7447 24.6519 37.5924 24.7059C37.1026 24.8797 36.7406 24.7965 36.3753 24.6194C35.9986 24.4368 35.6558 24.1882 35.3081 23.93L35.1796 23.8345C35.0223 23.7177 35.0672 23.4707 35.2556 23.4171ZM13.3789 21.1738C13.1632 21.1262 12.9287 21.1597 12.7297 21.2557C12.6577 21.2904 12.5945 21.322 12.5669 21.3413C12.4895 21.3954 12.4133 21.4522 12.3373 21.509C11.9698 21.7833 11.6045 22.056 11.1124 22.0079C10.9501 21.992 10.7644 21.9233 10.5727 21.8524C10.2162 21.7205 9.83945 21.5811 9.55602 21.7607C9.40948 21.872 10.3137 22.4491 10.5111 22.5033C11.1461 22.6778 11.6153 22.5943 12.0889 22.4165C12.5772 22.2332 13.0215 21.9836 13.4722 21.7244L13.5612 21.6732C13.765 21.5559 13.718 21.2486 13.4886 21.198L13.3789 21.1738ZM12.0257 26.2372C12.1447 26.1144 12.0558 25.9193 11.9179 25.9807C11.3991 26.2118 10.849 26.299 10.298 26.2112L10.2809 26.2085L10.2648 26.2058L10.2536 26.2038L10.2373 26.2009L10.2343 26.2003L10.2257 26.1987L10.2184 26.1974L10.2082 26.1954C10.0718 26.1689 9.97725 26.3874 10.0929 26.4806C10.2723 26.6251 10.478 26.7217 10.7037 26.7576C11.1761 26.8329 11.6467 26.6284 12.0257 26.2372ZM12.8742 23.4121C12.6347 23.3438 12.3548 23.377 12.1517 23.5214L12.1476 23.5243L12.1418 23.5287L12.1386 23.531L12.1378 23.5316L12.1369 23.5323L12.1352 23.5337L12.134 23.5346L12.1325 23.5358L12.1315 23.5366L12.1306 23.5373L12.129 23.5386L12.1279 23.5396L12.1234 23.5434C12.1074 23.5579 12.0914 23.5726 12.0755 23.5874C12.0628 23.5992 12.0501 23.6111 12.0375 23.6231C12.007 23.652 11.9767 23.6812 11.9464 23.7104C11.663 23.9837 11.3813 24.2552 11.0018 24.2073C10.8767 24.1915 10.7334 24.1231 10.5856 24.0525C10.3107 23.9211 10.0201 23.7823 9.80153 23.9611C9.68853 24.072 10.3859 24.6468 10.5381 24.7008C11.0278 24.8746 11.3896 24.7914 11.7549 24.6143C12.1314 24.4317 12.4741 24.1832 12.8216 23.925L12.9501 23.8295C13.1073 23.7127 13.0624 23.4657 12.8742 23.4121ZM16.138 23.1225C15.9795 23.2817 16.1703 23.485 16.3743 23.3914C17.1422 23.0391 17.9962 22.8427 18.8961 22.8427C18.9157 22.8427 18.9353 22.8428 18.9549 22.843C18.9843 22.8433 19.0136 22.8438 19.0429 22.8445C19.2668 22.8498 19.3623 22.5875 19.1546 22.5035C18.8325 22.3733 18.4806 22.3016 18.1121 22.3016C17.3409 22.3016 16.6428 22.6154 16.138 23.1225ZM17.1919 25.0224C17.0146 24.8969 17.0146 24.6407 17.1919 24.5151C17.6023 24.2245 18.1031 24.0537 18.6438 24.0537C19.1844 24.0537 19.6852 24.2245 20.0956 24.5151C20.2729 24.6407 20.2729 24.8969 20.0956 25.0224C19.6852 25.313 19.1844 25.4838 18.6438 25.4838C18.1031 25.4838 17.6023 25.313 17.1919 25.0224ZM21.1548 26.7917C21.3044 26.4465 21.1904 25.9325 20.8462 26.0826C20.7406 26.1286 20.6352 26.1759 20.5296 26.2234C19.8863 26.5125 19.2369 26.8043 18.5172 26.8043C17.9567 26.8043 17.4214 26.7331 16.9171 26.5892C16.7782 26.5496 16.1465 26.2884 15.8095 26.1478C15.6781 26.0929 15.5259 26.1133 15.4229 26.2119C15.1984 26.4268 15.0015 26.6827 14.848 26.9652C14.6314 27.3638 14.5009 27.8153 14.5009 28.2795C14.5009 29.7579 15.7973 30.8549 16.8851 31.7392C17.023 31.8513 17.2198 31.8549 17.3588 31.7442C18.9971 30.4391 20.3098 28.7408 21.1548 26.7917ZM32.0214 23.3662C32.2254 23.4598 32.4162 23.2565 32.2577 23.0972C31.7529 22.5901 31.0548 22.2762 30.2836 22.2762C29.915 22.2762 29.5631 22.3479 29.2411 22.4782C29.0333 22.5621 29.1288 22.8245 29.3528 22.8192C29.3775 22.8186 29.4023 22.8181 29.4271 22.8178C29.4414 22.8177 29.4559 22.8175 29.4703 22.8175L29.4877 22.8174L29.4996 22.8174C30.3994 22.8174 31.2534 23.0138 32.0214 23.3662ZM31.2038 24.9974C31.3811 24.8718 31.3811 24.6156 31.2038 24.49C30.7934 24.1993 30.2925 24.0286 29.7519 24.0286C29.2113 24.0286 28.7104 24.1993 28.3 24.49C28.1227 24.6156 28.1227 24.8718 28.3 24.9974C28.7104 25.288 29.2113 25.4588 29.7519 25.4588C30.2925 25.4588 30.7934 25.288 31.2038 24.9974ZM23.6132 12.7795C23.9504 12.5045 24.1765 12.49 24.5256 12.7746C24.5786 12.8179 24.6301 12.8583 24.6799 12.8961C25.5019 13.5184 25.9112 13.4146 26.554 13.2515C26.9341 13.155 27.3958 13.0378 28.0727 13.0378C28.5601 13.0378 29.022 13.1475 29.435 13.3436C29.7923 13.5132 30.0861 13.7603 30.376 14.0041C30.6054 14.197 30.8324 14.3879 31.0865 14.5368C31.7347 14.9165 32.3626 14.77 33.0147 14.6178C33.1715 14.5811 33.3297 14.5442 33.4899 14.5142C33.6065 14.4924 33.7268 14.4809 33.8497 14.4809C34.324 14.4809 34.7586 14.6509 35.0964 14.9335C35.1306 14.9621 35.1629 14.9907 35.1935 15.0192C35.2269 15.0504 35.2584 15.0814 35.2883 15.1123C35.3331 15.1586 35.3758 15.2069 35.4175 15.256C35.4507 15.2949 35.4833 15.3344 35.5158 15.3739L35.5162 15.3744C35.6026 15.4792 35.6893 15.5844 35.7867 15.6792C35.8993 15.7888 36.0318 15.8891 36.2145 15.9762C36.7164 16.2156 37.1247 16.1651 37.5571 15.9875C37.7093 15.9249 37.6693 15.7094 37.5057 15.6918L37.2041 15.6593C36.6336 15.6107 36.1333 15.3154 35.8095 14.8804C35.7663 14.8222 35.7234 14.7636 35.6806 14.7049C35.4808 14.4312 35.2803 14.1564 35.0292 13.9269C34.6007 13.6708 34.1949 13.6596 33.779 13.7023C33.6626 13.7142 33.5466 13.7301 33.4306 13.7459C33.3868 13.7519 33.3431 13.7578 33.2993 13.7636L33.2799 13.7662C33.1937 13.7774 33.1074 13.7877 33.0208 13.7954C32.9155 13.8049 32.8086 13.8109 32.6995 13.8109C32.2567 13.8109 31.843 13.6862 31.4914 13.4699C31.3302 13.3568 31.184 13.2526 31.0499 13.1565C30.9765 13.1039 30.9067 13.0537 30.8401 13.0058C30.0591 12.4441 29.7055 12.1898 28.9852 11.9752C28.3324 11.7807 27.7255 11.8527 27.1007 11.9268C27.0025 11.9384 26.9045 11.9513 26.8064 11.9643C26.6019 11.9913 26.3969 12.0183 26.191 12.0336C26.055 12.0437 25.9869 12.0487 25.9543 11.9942C25.9218 11.9396 25.9565 11.8848 26.0259 11.7752C26.1526 11.5753 26.3226 11.403 26.5241 11.281C27.0932 10.9364 27.9676 10.8696 28.6216 10.8819C29.0662 10.8902 29.4857 10.9979 29.8592 11.1834C29.997 11.2519 30.1241 11.333 30.2447 11.4211C30.4031 11.5368 30.5514 11.666 30.6998 11.7953C30.8339 11.9121 30.9681 12.0289 31.1098 12.1359C31.1859 12.1934 31.2641 12.2478 31.3454 12.2974C31.9798 12.6842 32.4013 12.5806 32.961 12.4431C33.1363 12.4001 33.3251 12.3537 33.5382 12.318C33.6901 12.2926 33.8426 12.2966 33.9952 12.3005C34.1353 12.3042 34.2755 12.3078 34.4151 12.2887C34.5845 12.2654 34.6153 12.0476 34.479 11.9442C34.1857 11.7218 33.9328 11.5671 33.5062 11.6171C33.2876 11.6427 33.0635 11.669 32.8292 11.6646C32.4253 11.657 32.05 11.5365 31.7329 11.3336C31.6904 11.3027 31.6491 11.2725 31.6089 11.243C31.5618 11.2084 31.5163 11.1748 31.4721 11.1422C31.3832 11.0764 31.2947 11.0102 31.2061 10.944L31.2034 10.9419C31.0283 10.8109 30.8532 10.68 30.6753 10.553C30.2612 10.2575 29.9602 10.0857 29.4721 9.93066C28.8799 9.7425 28.325 9.79757 27.7538 9.85428C27.4468 9.88478 27.135 9.91573 26.8101 9.90963C26.6746 9.90708 26.4827 9.88726 26.3126 9.86624C26.1443 9.84542 26.0601 9.83501 26.0393 9.7739C26.0185 9.71277 26.0785 9.65318 26.1987 9.534C26.2592 9.47396 26.3202 9.41556 26.3704 9.3721C26.78 9.01679 27.2567 8.95906 27.7789 8.93169C28.2441 8.90731 28.6891 8.97377 29.0909 9.11322C29.454 9.23929 29.7745 9.40966 30.0843 9.57433C30.8842 9.99956 31.6095 10.2459 32.5107 9.99138C32.6446 9.95382 32.6825 9.77756 32.5737 9.69076C32.3057 9.47693 32.0126 9.35628 31.6748 9.2934C31.1363 9.19315 30.6354 8.92469 30.1331 8.65543C29.639 8.39062 29.1436 8.1251 28.6097 8.01825C27.9792 7.89207 27.4026 7.98122 26.809 8.07301C25.9288 8.20909 25.3037 8.49727 24.5127 8.89477C24.4396 8.93148 24.3622 8.96071 24.2814 8.98145C24.1135 9.0245 23.9649 9.02211 23.7994 8.97029C23.7394 8.9515 23.6815 8.92796 23.6261 8.90012C22.8354 8.50266 22.2104 8.21452 21.3305 8.07843C20.7372 7.98667 20.1608 7.89753 19.5305 8.02369C18.9968 8.13053 18.5016 8.39602 18.0076 8.66085C17.5055 8.93002 17.0048 9.19845 16.4664 9.29869C16.1288 9.36158 15.8358 9.48221 15.5679 9.69601C15.4591 9.78279 15.497 9.95905 15.6309 9.9966C16.5317 10.251 17.2568 10.0048 18.0565 9.5796C18.3661 9.41494 18.6865 9.24459 19.0495 9.11855C19.4511 8.9791 19.8959 8.91265 20.361 8.93703C20.883 8.9644 21.3596 9.02214 21.7691 9.37738C21.7911 9.39648 21.8152 9.41844 21.8404 9.44216C21.8726 9.47245 21.9067 9.5056 21.9407 9.53927C22.0608 9.65844 22.1208 9.71802 22.1 9.77914C22.0792 9.84026 21.9951 9.85066 21.8268 9.87147C21.6567 9.89249 21.4649 9.91229 21.3294 9.91484C21.0049 9.92096 20.6933 9.89003 20.3866 9.85957C19.8156 9.80286 19.2604 9.74774 18.6684 9.93588C18.0152 10.1435 17.6971 10.3809 16.9945 10.9052L16.9927 10.9066C16.8235 11.0328 16.6321 11.1757 16.4084 11.3387C16.0914 11.5415 15.7163 11.662 15.3125 11.6696C15.0783 11.674 14.8543 11.6478 14.6357 11.6221C14.2093 11.5721 13.9564 11.7268 13.6632 11.9492C13.527 12.0525 13.5578 12.2703 13.7271 12.2936C13.8657 12.3127 14.0056 12.3077 14.1452 12.3028L14.1477 12.3027C14.1747 12.3017 14.2017 12.3008 14.2287 12.3C14.2441 12.2996 14.2596 12.2992 14.2749 12.2989C14.3871 12.2968 14.4969 12.3051 14.6037 12.323C14.8167 12.3587 15.0055 12.405 15.1807 12.4481C15.7402 12.5855 16.1616 12.6891 16.7957 12.3023C17.0249 12.1626 17.2286 11.985 17.4344 11.8056C17.6946 11.5789 17.9585 11.3489 18.2815 11.1885C18.6548 11.003 19.0741 10.8953 19.5186 10.887C20.1724 10.8747 21.0465 10.9415 21.6154 11.2861C21.8168 11.4081 21.9867 11.5803 22.1133 11.7802C22.1828 11.8898 22.2175 11.9446 22.1849 11.9992C22.1524 12.0537 22.0843 12.0487 21.9483 12.0386C21.7424 12.0233 21.5378 11.9963 21.3331 11.9693L21.2498 11.9583C21.2174 11.9541 21.1849 11.9499 21.1525 11.9457C21.1146 11.9409 21.0768 11.9362 21.039 11.9318C20.4144 11.8577 19.8077 11.7857 19.1551 11.9802C18.4351 12.1948 18.0816 12.449 17.3009 13.0106C17.1125 13.1462 16.8992 13.2997 16.6498 13.4748C16.2983 13.691 15.8848 13.8157 15.4422 13.8157C15.1854 13.8157 14.9405 13.7822 14.7015 13.7495C14.3779 13.7053 14.0653 13.6626 13.7491 13.7065C13.3639 13.76 13.0874 13.927 12.8408 14.2168C12.7404 14.3347 12.649 14.4619 12.5575 14.5892C12.414 14.7887 12.2701 14.9889 12.0912 15.1543C11.7827 15.4396 11.382 15.6261 10.9391 15.6638L10.6376 15.6964C10.474 15.714 10.4341 15.9295 10.5863 15.992C10.8461 16.0987 11.0971 16.1596 11.365 16.1392C11.676 16.1155 11.988 15.9864 12.2325 15.7926C12.3909 15.6671 12.5223 15.5124 12.6535 15.358C12.7319 15.2656 12.8103 15.1732 12.8944 15.0873C13.0157 14.9633 13.1464 14.8496 13.2993 14.7584C13.59 14.5852 13.9296 14.4856 14.2923 14.4856C14.4152 14.4856 14.5355 14.4971 14.652 14.5189C14.8414 14.5544 15.0278 14.6036 15.2142 14.6527C15.37 14.6938 15.5258 14.7349 15.6833 14.768C16.1161 14.859 16.5132 14.8587 17.0545 14.5415C17.3086 14.3927 17.5355 14.2018 17.7648 14.0089C18.0546 13.7651 18.3483 13.518 18.7055 13.3484C19.1184 13.1524 19.5801 13.0427 20.0673 13.0427C20.744 13.0427 21.2055 13.1599 21.5855 13.2563C22.2448 13.4236 22.6583 13.5286 23.5238 12.851C23.5384 12.8395 23.5532 12.8278 23.5682 12.8158C23.5831 12.804 23.5981 12.7918 23.6132 12.7795Z" fill="white"/>
</g>
<defs>
<clipPath id="clip0_433_34636">
<rect width="166" height="48" fill="white"/>
</clipPath>
<clipPath id="clip1_433_34636">
<rect width="106.303" height="28.6957" fill="white" transform="translate(59.6973 11.4783)"/>
</clipPath>
</defs>
</svg>
