<svg width="317" height="92" viewBox="0 0 317 92" fill="none" xmlns="http://www.w3.org/2000/svg">
<g clip-path="url(#clip0_97_4944)">
<g clip-path="url(#clip1_97_4944)">
<path d="M226.718 55.7556C223.193 53.4434 218.755 54.3848 214.745 55.5923C210.612 56.8365 206.792 57.6722 203.583 58.067C206.501 64.3374 212.719 68.6671 219.918 68.6671C229.918 68.6671 238.024 60.3133 238.024 50.0084C238.024 48.4028 237.827 46.8446 237.457 45.3579C236.654 45.8943 236.246 46.0835 235.086 47.0579C231.937 49.9 230.151 54.0178 230.195 58.331L230.201 58.9525L229.804 58.485C228.897 57.4176 227.855 56.5021 226.718 55.7556Z" fill="#3F3F46"/>
<path d="M202.741 55.7084L202.744 55.7168C202.19 55.7833 201.655 55.8366 201.139 55.8764C196.819 56.2106 193.906 55.6004 193.316 53.9465C192.586 51.9004 195.406 48.8999 200.748 46.0918L200.743 46.1134C200.501 47.1763 200.415 47.5538 200.344 48.6843C198.693 50.0358 197.873 51.2525 198.167 52.1533C198.388 52.8303 199.222 53.0994 200.525 53.0612C200.972 53.0481 201.475 52.9987 202.028 52.9171C201.884 51.9693 201.809 50.9978 201.809 50.0083C201.809 39.7034 209.915 31.3496 219.915 31.3496C226.644 31.3496 232.516 35.1329 235.637 40.7482C236.01 40.5115 236.345 40.2662 236.655 40.0395L236.655 40.0394L236.655 40.0392C236.736 39.9798 236.815 39.9217 236.893 39.8654C238.252 38.8917 238.947 38.0909 238.767 37.5849C238.559 37.0011 237.216 36.8966 235.104 37.1961C234.689 36.672 234.25 36.1697 233.787 35.6911C239.398 34.5641 243.28 35.4238 243.972 37.3637C244.302 38.2874 243.875 39.4466 242.824 40.7482C242.445 41.2165 241.986 41.7032 241.453 42.2039C236.62 46.7392 227.36 45.9663 223.406 40.4403L223.338 41.399C223.128 44.3378 222.042 46.8941 220.361 49.0473C218.501 51.4304 215.691 52.7362 212.833 53.5571C209.109 54.6263 205.669 55.3517 202.741 55.7084Z" fill="#A1A1AA"/>
<path d="M130.114 68.0131C126.725 68.0131 123.967 67.8333 121.842 67.4739C119.716 67.1144 118.079 66.5153 116.93 65.6765C115.838 64.7778 115.063 63.6095 114.603 62.1716C114.201 60.7337 114 58.9662 114 56.8693C114 53.8137 114.345 51.4771 115.034 49.8595C115.723 48.2418 116.93 47.1334 118.653 46.5343C120.377 45.9352 122.675 45.6356 125.547 45.6356C126.983 45.6356 128.534 45.6955 130.2 45.8154C131.924 45.8753 133.561 45.9651 135.112 46.085C136.721 46.1449 138.1 46.2348 139.249 46.3546C140.455 46.4744 141.259 46.6242 141.661 46.8039C141.661 44.0479 141.432 41.8611 140.972 40.2435C140.512 38.6258 139.794 37.4276 138.818 36.6487C137.898 35.8698 136.721 35.3606 135.285 35.1209C133.906 34.8813 132.297 34.7614 130.459 34.7614C128.563 34.7614 126.639 34.8513 124.685 35.031C122.79 35.1509 121.037 35.3905 119.429 35.75C117.82 36.0496 116.585 36.469 115.723 37.0082V35.6601C115.723 34.402 116.068 33.5332 116.758 33.0539C117.504 32.5147 118.337 32.1552 119.257 31.9755C120.348 31.6759 121.928 31.4363 123.996 31.2565C126.122 31.0768 128.333 31.0169 130.631 31.0768C133.561 31.0768 136.06 31.2266 138.128 31.5261C140.254 31.8257 142.006 32.4847 143.385 33.5033C144.764 34.4619 145.798 35.9297 146.487 37.9069C147.176 39.884 147.521 42.5801 147.521 45.9951V64.5082C147.176 65.7064 145.654 66.6051 142.954 67.2043C140.254 67.7435 135.974 68.0131 130.114 68.0131ZM130.114 64.9575C132.757 64.9575 134.854 64.8676 136.405 64.6879C138.013 64.5082 139.22 64.2685 140.024 63.969C140.886 63.6694 141.432 63.28 141.661 62.8007V49.4101C141.144 49.2304 140.168 49.0507 138.731 48.8709C137.353 48.6912 135.888 48.5414 134.337 48.4216C132.786 48.2418 131.464 48.152 130.373 48.152C127.902 48.152 125.892 48.3017 124.341 48.6013C122.847 48.9009 121.756 49.6498 121.066 50.848C120.434 52.0463 120.118 53.9036 120.118 56.4199C120.118 58.3971 120.348 60.0147 120.808 61.2729C121.267 62.531 122.186 63.4597 123.565 64.0588C125.001 64.658 127.184 64.9575 130.114 64.9575Z" fill="#3F3F46"/>
<path d="M153.959 77L154.045 39.0752C154.045 37.3976 154.016 35.9597 153.959 34.7614C153.959 33.5033 153.93 32.6944 153.873 32.335C154.275 32.2151 155.079 32.0953 156.285 31.9755C157.492 31.8557 158.871 31.7658 160.422 31.7059C161.973 31.5861 163.553 31.4962 165.161 31.4363C166.827 31.3164 168.321 31.2565 169.642 31.2565C174.295 31.2565 177.915 31.9156 180.5 33.2337C183.142 34.4918 185.01 36.4989 186.101 39.2549C187.193 42.0109 187.623 45.5757 187.394 49.9494C187.279 54.2631 186.733 57.738 185.756 60.3742C184.78 62.9504 183.2 64.8377 181.017 66.036C178.834 67.1743 175.847 67.7435 172.055 67.7435C169.757 67.7435 167.66 67.5038 165.764 67.0245C163.926 66.5452 162.432 65.7364 161.283 64.598C160.814 64.1087 160.412 63.5345 160.077 62.8753V77H153.959ZM170.849 63.969C174.41 63.969 177.053 62.8606 178.776 60.6438C180.5 58.427 181.362 54.6825 181.362 49.4101C181.476 44.0779 180.672 40.3333 178.949 38.1765C177.225 36.0196 174.123 34.9412 169.642 34.9412C168.78 34.9412 167.689 34.9711 166.368 35.031C165.104 35.091 163.869 35.1808 162.662 35.3007C161.513 35.3606 160.651 35.4504 160.077 35.5703V53.5441C160.077 56.36 160.508 58.5169 161.37 60.0147C162.289 61.5125 163.553 62.561 165.161 63.1601C166.77 63.6993 168.665 63.969 170.849 63.969Z" fill="#3F3F46"/>
<path d="M258.13 67.7435C255.488 67.7435 253.592 67.1443 252.443 65.9461C251.294 64.6879 250.72 62.4711 250.72 59.2958V24.9657C250.72 24.2467 250.777 23.6776 250.892 23.2582C251.007 22.7789 251.237 22.4493 251.581 22.2696C251.983 22.0899 252.529 22 253.219 22H256.838C256.838 22.0599 256.809 22.4493 256.752 23.1683C256.694 23.8873 256.666 24.7859 256.666 25.8644V58.3072C256.666 60.5839 256.895 62.2315 257.355 63.25C257.872 64.2685 258.849 64.7778 260.285 64.7778C260.687 64.7778 261.233 64.7179 261.922 64.598C262.611 64.4782 263.071 64.3883 263.301 64.3284V67.1144C262.956 67.1743 262.382 67.2941 261.577 67.4739C260.831 67.6536 259.682 67.7435 258.13 67.7435Z" fill="#3F3F46"/>
<path d="M274.852 67.7435C272.209 67.7435 270.313 67.1443 269.164 65.9461C268.015 64.6879 267.441 62.4711 267.441 59.2958V24.9657C267.441 24.2467 267.498 23.6776 267.613 23.2582C267.728 22.7789 267.958 22.4493 268.303 22.2696C268.705 22.0899 269.251 22 269.94 22H273.559C273.559 22.0599 273.53 22.4493 273.473 23.1683C273.416 23.8873 273.387 24.7859 273.387 25.8644V58.3072C273.387 60.5839 273.617 62.2315 274.076 63.25C274.593 64.2685 275.57 64.7778 277.006 64.7778C277.408 64.7778 277.954 64.7179 278.643 64.598C279.333 64.4782 279.792 64.3883 280.022 64.3284V67.1144C279.677 67.1743 279.103 67.2941 278.299 67.4739C277.552 67.6536 276.403 67.7435 274.852 67.7435Z" fill="#3F3F46"/>
<path d="M299.938 67.9232C297.295 67.9232 294.911 67.7135 292.786 67.2941C290.717 66.8747 288.908 66.036 287.357 64.7778C285.863 63.5196 284.714 61.6623 283.91 59.2059C283.106 56.7495 282.703 53.5142 282.703 49.5C282.703 45.4858 283.106 42.2505 283.91 39.7941C284.714 37.3377 285.863 35.4804 287.357 34.2222C288.908 32.9641 290.717 32.1253 292.786 31.7059C294.911 31.2865 297.295 31.0768 299.938 31.0768C302.523 31.0768 304.85 31.2865 306.918 31.7059C309.043 32.1253 310.853 32.9641 312.347 34.2222C313.84 35.4804 314.989 37.3377 315.794 39.7941C316.598 42.2505 317 45.4858 317 49.5C317 53.5741 316.598 56.8393 315.794 59.2958C314.989 61.7522 313.84 63.6095 312.347 64.8677C310.853 66.0659 309.043 66.8747 306.918 67.2941C304.85 67.7135 302.523 67.9232 299.938 67.9232ZM299.938 64.4183C302.236 64.4183 304.189 64.0588 305.798 63.3399C307.464 62.6209 308.727 61.213 309.589 59.116C310.451 57.0191 310.882 53.8137 310.882 49.5C310.882 45.1863 310.451 41.9809 309.589 39.884C308.727 37.787 307.464 36.3791 305.798 35.6601C304.189 34.9412 302.236 34.5817 299.938 34.5817C297.64 34.5817 295.658 34.9412 293.992 35.6601C292.383 36.3791 291.12 37.787 290.2 39.884C289.339 41.9809 288.908 45.1863 288.908 49.5C288.908 53.8137 289.339 57.0191 290.2 59.116C291.12 61.213 292.383 62.6209 293.992 63.3399C295.658 64.0588 297.64 64.4183 299.938 64.4183Z" fill="#3F3F46"/>
</g>
<path d="M23.9927 86.8062C11.2447 79.8155 2.15286 66.9401 0.334297 51.814C0.0359459 49.979 0 48.0683 0 46.2141C0 20.6908 20.5949 0 46 0C45.1716 3.83601 39.0198 5.12977 39.0198 5.12977C39.1996 5.70015 39.3166 6.30037 39.3625 6.92297C39.3949 7.36201 38.851 7.54899 38.5236 7.25633C37.2401 6.10897 35.879 5.778 34.5185 5.44715C33.479 5.19439 31.7957 4.85568 30.7918 4.23911C28.6479 4.99139 27.9192 6.66379 26.5014 8.30197C25.5486 9.40289 24.5756 10.5272 23.3348 11.4374C23.484 12.088 23.5481 12.7698 23.5151 13.4694C23.4599 14.6436 23.1373 15.7415 22.6094 16.7065C22.4969 16.9122 22.2546 17.002 22.0288 16.9417C21.145 16.7055 20.2229 16.5595 19.2724 16.5143C17.139 16.413 11.0833 16.9297 10.8885 19.7392C10.8435 20.3884 10.7708 21.0426 10.6694 21.7C10.578 22.2932 10.465 22.8767 10.3316 23.4496C12.189 21.4919 14.5506 20.2197 17.0741 19.9286C17.4078 19.8901 17.6697 20.1952 17.5908 20.5232C16.8104 23.7681 15.0456 26.4927 12.7591 28.2975C11.0894 29.6155 9.49128 30.7112 7.8834 31.8136L7.88294 31.8139C3.62388 34.7339 2.49803 38.126 2.06934 41.7319C3.41475 39.1789 5.38446 37.0165 7.76714 35.4423C8.05198 35.2541 8.43166 35.4044 8.50939 35.7379C8.79224 36.9513 8.92091 38.2222 8.87421 39.5275C8.79781 41.6616 8.26042 43.6698 7.36173 45.4591C8.31036 45.9367 9.19748 46.5171 10.0092 47.1853C10.2497 47.3832 10.2473 47.7491 10.0189 47.961C4.69588 52.9008 3.08295 58.9094 6.15993 65.3602C5.56617 62.0574 5.96771 58.6543 7.60204 55.6649C7.87895 55.1584 8.17922 54.673 8.50077 54.2093C8.71495 53.9004 9.17175 53.9382 9.33642 54.2763C10.3287 56.3143 10.9825 58.5047 11.2707 60.7537C12.1281 60.5301 13.0248 60.4022 13.9489 60.3824C14.4635 60.3713 14.112 60.8174 13.4306 61.682C9.54199 66.6163 8.57404 70.5426 12.5645 75.1866C12.4351 74.8131 12.2128 72.4948 12.2938 70.7385C12.3321 69.9106 12.4377 69.2076 12.6523 68.8921C12.7578 68.737 12.8896 68.6756 13.0527 68.739C15.4015 69.6519 17.916 71.7711 19.4296 73.8449C20.1626 74.8494 20.6549 75.9567 20.9151 77.0897C22.5412 76.3351 24.7231 76.6144 25.2903 78.4627C25.6357 79.5878 25.0505 80.7389 23.9833 81.0336C23.1562 81.2621 22.2823 80.9092 21.7702 80.2151C19.9454 84.9078 25.6914 83.8134 23.9927 86.8062Z" fill="#99A1B7"/>
<path d="M68.0073 86.8062C80.7553 79.8155 89.8471 66.9401 91.6657 51.814C91.9641 49.979 92 48.0683 92 46.2141C92 20.6908 71.4051 0 46 0C46.8284 3.83601 52.9802 5.12977 52.9802 5.12977C52.8004 5.70015 52.6834 6.30037 52.6375 6.92297C52.6051 7.36201 53.149 7.54899 53.4764 7.25633C54.7599 6.10897 56.121 5.778 57.4815 5.44715C58.521 5.19439 60.2043 4.85568 61.2082 4.23911C63.3521 4.99139 64.0808 6.66379 65.4986 8.30197C66.4514 9.40289 67.4244 10.5272 68.6652 11.4374C68.516 12.088 68.4519 12.7698 68.4849 13.4694C68.5401 14.6436 68.8627 15.7415 69.3906 16.7065C69.5031 16.9122 69.7454 17.002 69.9712 16.9417C70.855 16.7055 71.7771 16.5595 72.7276 16.5143C74.861 16.413 80.9167 16.9297 81.1115 19.7392C81.1565 20.3884 81.2292 21.0426 81.3306 21.7C81.4221 22.2932 81.535 22.8767 81.6684 23.4496C79.811 21.4919 77.4494 20.2197 74.926 19.9286C74.5922 19.8901 74.3303 20.1952 74.4092 20.5232C75.1896 23.7681 76.9544 26.4927 79.2409 28.2975C80.9106 29.6155 82.5087 30.7112 84.1166 31.8136L84.1171 31.8139C88.3761 34.7339 89.502 38.126 89.9307 41.7319C88.5852 39.1789 86.6155 37.0165 84.2329 35.4423C83.948 35.2541 83.5683 35.4044 83.4906 35.7379C83.2078 36.9513 83.0791 38.2222 83.1258 39.5275C83.2022 41.6616 83.7396 43.6698 84.6383 45.4591C83.6896 45.9367 82.8025 46.5171 81.9908 47.1852C81.7503 47.3832 81.7527 47.7491 81.9811 47.961C87.3041 52.9008 88.917 58.9094 85.8401 65.3602C86.4338 62.0574 86.0323 58.6543 84.398 55.6649C84.121 55.1584 83.8208 54.673 83.4992 54.2093C83.2851 53.9004 82.8283 53.9382 82.6636 54.2763C81.6713 56.3143 81.0175 58.5047 80.7293 60.7537C79.8718 60.5301 78.9752 60.4022 78.0511 60.3824C77.5365 60.3713 77.888 60.8173 78.5694 61.682C82.458 66.6163 83.426 70.5426 79.4355 75.1866C79.5649 74.8131 79.7872 72.4948 79.7062 70.7385C79.6679 69.9106 79.5623 69.2075 79.3477 68.8921C79.2422 68.737 79.1104 68.6756 78.9473 68.739C76.5985 69.6519 74.084 71.7711 72.5704 73.8449C71.8374 74.8493 71.3451 75.9567 71.0849 77.0896C69.4588 76.3351 67.2769 76.6144 66.7097 78.4627C66.3643 79.5878 66.9495 80.7389 68.0167 81.0336C68.8438 81.2621 69.7177 80.9092 70.2298 80.2151C72.0546 84.9078 66.3086 83.8134 68.0073 86.8062Z" fill="#99A1B7"/>
<path fill-rule="evenodd" clip-rule="evenodd" d="M28.2806 75.1328C28.2806 79.64 27.1704 83.8868 25.2095 87.6124C29.34 89.7156 33.8284 91.2103 38.5583 91.9792C35.8452 90.3518 33.7101 87.8502 32.5367 84.8607C32.3616 84.4147 32.908 84.0779 33.2715 84.388C36.6508 87.27 41.024 89.0081 45.8007 89.0081C50.7221 89.0081 55.2151 87.1631 58.6341 84.1231C58.9911 83.8056 59.5442 84.131 59.3785 84.5805C58.226 87.7067 56.0296 90.3228 53.2154 92.0001C57.9856 91.2387 62.5117 89.7393 66.6745 87.6221C64.7257 83.903 63.6226 79.6666 63.6226 75.1713V73.4943C63.6226 72.9472 63.7502 72.5029 63.9682 72.1252C64.3682 71.4321 65.0347 70.9967 65.6993 70.5625L65.6998 70.5621C66.068 70.3216 66.4355 70.0815 66.7567 69.7982C67.1773 69.4272 67.5599 69.0125 67.8977 68.5616C68.4613 67.8094 68.7492 66.9136 69.0362 66.0203C69.3792 64.953 69.721 63.8894 70.5306 63.0787C70.9341 62.6745 71.4221 62.393 71.9099 62.1115C72.4484 61.8009 72.9866 61.4903 73.4109 61.0152C73.8033 60.5757 74.1269 60.0726 74.3645 59.5232C74.653 58.856 74.8157 58.1621 74.9785 57.4682L74.9786 57.4677C75.1818 56.6016 75.385 55.7352 75.8326 54.9204C77.2284 52.7659 77.8145 50.1236 77.5089 47.5747C77.4551 47.1264 77.3377 46.6905 77.2203 46.255L77.22 46.2541L77.2199 46.2537C77.0608 45.6634 76.902 45.0738 76.902 44.455C76.902 43.4835 77.196 42.5524 77.4931 41.6115C77.7963 40.6512 78.1028 39.6808 78.1028 38.6472C78.1028 36.2867 77.363 34.1 76.1042 32.3092C75.7514 31.8073 75.3301 31.3697 74.9097 30.9329L74.909 30.9322C74.3873 30.3903 73.8669 29.8497 73.48 29.1895C73.0462 28.4492 72.8858 27.6687 72.7248 26.8855L72.7245 26.8848L72.7241 26.8834C72.6076 26.3169 72.4909 25.7493 72.2703 25.1943C72.0248 24.5766 71.6721 24.0139 71.2354 23.5297C70.5796 22.8023 69.7519 22.3941 68.92 21.9837C68.1898 21.6235 67.4565 21.2618 66.8337 20.6812C66.1327 20.0279 65.5686 19.228 65.1893 18.33C64.5971 17.319 63.6948 16.5139 62.614 16.0472C62.1714 15.8561 61.698 15.764 61.2233 15.6717C60.7777 15.5851 60.331 15.4982 59.9075 15.3289C59.3731 15.1152 58.872 14.8071 58.3706 14.4988L58.3701 14.4986C57.946 14.2378 57.5217 13.9769 57.0771 13.7731C55.6995 13.1414 54.1684 12.7896 52.5559 12.7896C51.3807 12.7896 50.2488 12.9764 49.1881 13.3223C47.9713 13.8497 46.9469 13.9985 46.0226 13.9985L45.9867 13.9985L45.9517 13.9982V13.9975L45.9033 13.9977L45.8807 13.9978C44.9563 13.9978 43.932 13.849 42.7153 13.322C41.6545 12.9763 40.5227 12.7896 39.3474 12.7896C37.7348 12.7896 36.2038 13.1412 34.8261 13.7725C34.3816 13.9762 33.9573 14.2369 33.5331 14.4975L33.5327 14.4978C33.0313 14.8059 32.5302 15.1138 31.9958 15.3273C31.5724 15.4965 31.1256 15.5834 30.6798 15.67L30.6793 15.6701C30.205 15.7623 29.7319 15.8542 29.2893 16.0452C28.2085 16.5116 27.3062 17.3162 26.714 18.3266C26.3347 19.224 25.7706 20.0234 25.0696 20.6764C24.4468 21.2565 23.7135 21.618 22.9831 21.9781C22.1514 22.3881 21.3236 22.7961 20.6679 23.523C20.2312 24.007 19.8785 24.5693 19.6329 25.1866C19.4123 25.7415 19.2955 26.309 19.179 26.875L19.1789 26.8757C19.0177 27.6589 18.8572 28.4392 18.4233 29.1794C18.0365 29.839 17.5162 30.3791 16.9946 30.9206L16.9943 30.921L16.9936 30.9217C16.5732 31.3582 16.1519 31.7956 15.7991 32.2971C14.5403 34.0868 13.8005 36.2721 13.8005 38.6312C13.8005 39.6642 14.1069 40.634 14.4103 41.5939C14.7073 42.534 15.0013 43.4645 15.0013 44.4354C15.0013 45.0539 14.8425 45.6431 14.6834 46.233L14.6833 46.2334L14.683 46.2343C14.5656 46.6696 14.4482 47.1052 14.3945 47.5532C14.0888 50.1005 14.6749 52.7412 16.0706 54.8944C16.5183 55.7087 16.7215 56.5745 16.9246 57.4401C17.0874 58.1338 17.2502 58.8274 17.5388 59.4943C17.7764 60.0434 18.1 60.5462 18.4924 60.9854C18.9166 61.4602 19.4549 61.7706 19.9935 62.0811C20.4812 62.3624 20.9692 62.6437 21.3727 63.0476C22.1823 63.8578 22.5241 64.9208 22.8671 65.9875C23.1541 66.8802 23.442 67.7754 24.0056 68.5272C24.3435 68.9777 24.726 69.3923 25.1466 69.7629C25.4677 70.0461 25.8352 70.286 26.2034 70.5264L26.204 70.5268C26.8686 70.9608 27.5351 71.3959 27.9351 72.0886C28.153 72.466 28.2806 72.91 28.2806 73.4568V75.1328ZM61.5718 37.5675C61.5441 37.5933 61.5158 37.6188 61.487 37.6438C61.4404 37.6843 61.3925 37.7238 61.3433 37.7624C60.6255 38.7616 59.4575 39.4117 58.1387 39.4117C53.346 39.4117 48.9351 42.2461 48.9351 47.5984C48.9351 48.0351 48.9377 48.4655 48.9402 48.8927C48.9476 50.1372 48.9548 51.3547 48.8983 52.624C48.8615 53.4513 51.0458 54.9207 51.1907 53.0313L51.1931 53.0315L51.2421 52.1548H51.2472C51.3078 51.7364 51.3641 51.2008 51.4127 50.6757C51.4671 50.0872 52.0604 49.7083 52.599 49.9439C52.8257 50.0431 53.0406 50.1406 53.2469 50.2351L53.4424 50.3249L53.4429 50.3251L53.4434 50.3253C54.6741 50.8908 55.6244 51.3275 57.0465 51.3275C59.0408 51.3275 60.8682 50.8535 62.4565 49.8874C62.5093 49.8552 62.5765 49.8586 62.6244 49.8978C63.83 50.8845 64.7162 52.4767 64.7162 54.1552C64.7162 59.6557 57.5251 57.4273 57.5251 67.8614C57.5251 72.8775 56.7558 77.4379 51.7067 79.9883C50.7416 80.4758 49.6374 80.5522 48.5641 80.4326L48.4457 80.4194C47.5717 80.3318 46.8341 79.7781 46.4818 79.0088C46.4182 78.8699 46.3078 78.7547 46.1631 78.7078C45.184 78.3901 44.1671 78.1571 43.1209 78.0172C42.4716 77.9304 42.0048 77.3209 42.1035 76.6694L42.1157 76.5882L42.1236 76.5347L42.1321 76.4762L42.1487 76.3591C42.1544 76.3182 42.16 76.2773 42.1655 76.2363C42.267 75.4833 43.0231 74.9877 43.7639 75.1353C44.4521 75.2724 45.1636 75.3443 45.8918 75.3443C47.9295 75.3443 49.8366 74.7814 51.4679 73.8019C51.6561 73.6889 51.6483 73.4175 51.4538 73.3157C49.9509 72.529 48.243 72.0844 46.4318 72.0844C45.6614 72.0844 45.0271 72.204 44.3516 72.3313C43.8674 72.4226 43.3622 72.5178 42.7708 72.5757C42.5769 72.5947 42.3945 72.478 42.3374 72.2906C42.2109 71.8755 42.1426 71.4688 42.0971 71.0693C42.0313 70.4903 42.5159 69.9974 43.0944 70.0249L49.2665 70.3186L51.4753 70.2692C51.5063 70.2654 51.5409 70.2614 51.5783 70.2571L51.5807 70.2568C52.1425 70.1918 53.3334 70.0539 52.8497 69.2567L52.8492 69.2563C52.656 68.9387 52.31 68.6428 51.9883 68.3676L51.9874 68.3668C51.8433 68.2437 51.7039 68.1244 51.5857 68.0096C50.8587 67.3032 50.1595 66.8736 49.0824 66.8736C48.4736 66.8736 47.9445 67.095 47.4219 67.3137C46.912 67.5271 46.4083 67.7379 45.8427 67.7379C45.3222 67.7379 45.1222 67.5699 44.7874 67.2205C44.1555 66.561 44.9921 65.7761 45.8783 65.5663C45.9775 65.5428 46.0761 65.517 46.1741 65.4887C47.7217 65.0418 49.0288 64.0225 49.8547 62.6732C50.1365 62.2128 49.7502 61.6744 49.2168 61.6091C48.3371 61.5015 47.685 61.2037 47 60.8908C46.0701 60.4662 45.0795 60.0137 43.3762 59.9711C43.5999 57.8491 43.7566 55.4231 43.7566 53.2414C43.7566 50.9105 43.6256 48.6104 43.3707 46.3482C42.7165 41.8376 38.6476 39.4608 34.2585 39.4608C31.9297 39.5235 30.982 38.5966 30.1417 37.7748C29.4899 37.1372 28.9027 36.5629 27.7855 36.5629C26.8801 36.5629 26.207 36.9396 25.5704 37.3945C25.4175 37.5037 25.2675 37.6167 25.1175 37.7297C24.8833 37.9062 24.6492 38.0826 24.4046 38.2442C24.1491 38.4131 23.8813 38.5667 23.5902 38.688C21.8484 39.4142 19.7893 39.1056 18.332 37.8963C18.1937 37.7815 18.1779 37.5749 18.3045 37.4471C18.4102 37.3404 18.5243 37.2421 18.6458 37.1532C19.094 36.8254 19.6852 36.9312 20.2064 37.1204C20.7535 37.319 21.3435 37.4272 21.9587 37.4272C23.3798 37.4272 24.4049 36.6371 25.4136 35.8596C26.3907 35.1065 27.3525 34.3652 28.6443 34.3652C29.3147 34.3652 29.8303 34.6431 30.3364 34.9159C30.5067 35.0078 30.676 35.099 30.8498 35.1789C31.2008 35.3403 31.4775 34.9732 31.2945 34.6311C30.8385 33.7782 30.272 32.936 29.4048 32.5481C28.8691 32.3084 28.2616 32.2086 27.6352 32.2892C27.0848 32.36 26.5833 32.5618 26.1586 32.8591C25.8453 33.0784 25.5579 33.2965 25.2831 33.505L25.281 33.5066C24.1199 34.3881 23.1818 35.1003 21.4434 35.0248C21.0529 35.0078 19.1249 34.3158 19.3506 34.0452C19.8023 33.5886 20.5627 33.688 21.2824 33.7821C21.6692 33.8326 22.0443 33.8816 22.3531 33.8419C23.2897 33.7215 23.8544 33.0556 24.4225 32.3858L24.4306 32.3763C24.4684 32.3317 24.5064 32.287 24.5443 32.2426C24.6216 32.1522 24.6994 32.0624 24.7787 31.9746C25.6434 31.0173 26.5644 30.4596 27.8765 30.2909C28.5361 30.2061 29.0917 30.4245 29.6544 30.6456C30.1427 30.8376 30.6364 31.0316 31.2081 31.0316C32.3244 31.0316 33.2299 30.4798 34.0911 29.8463C34.932 29.2277 35.8797 28.7475 36.9011 28.4388C38.0975 28.0772 39.0604 28.191 40.0792 28.3115L40.08 28.3116C40.6104 28.3743 41.1561 28.4388 41.7578 28.4388C42.8687 28.4388 43.8265 28.0435 44.8023 27.6408L44.8046 27.6399C45.174 27.4875 45.5458 27.334 45.9296 27.2006C46.3018 27.3299 46.6701 27.4804 47.039 27.6311L47.0399 27.6315C48.0354 28.0382 49.0352 28.4467 50.1254 28.4467C50.7276 28.4467 51.2738 28.3822 51.8047 28.3194C52.8238 28.199 53.7871 28.0851 54.9838 28.4467C56.0056 28.7555 56.9536 29.2358 57.7949 29.8544C58.6563 30.4879 59.5621 31.0398 60.6789 31.0398C61.2507 31.0398 61.7446 30.8458 62.233 30.6538C62.796 30.4326 63.3518 30.2142 64.0116 30.299C65.3242 30.4678 66.2454 31.0255 67.1105 31.9829C67.18 32.0598 67.2484 32.1383 67.3162 32.2174C67.3666 32.2761 67.4167 32.3352 67.4668 32.3942C68.0351 33.0641 68.6 33.7299 69.5369 33.8504C69.8458 33.8901 70.221 33.8411 70.608 33.7905C71.3279 33.6965 72.0887 33.5971 72.5405 34.0537C72.7662 34.3244 70.8376 35.0164 70.4469 35.0334C68.708 35.1089 67.7695 34.3967 66.6079 33.5151C66.3324 33.306 66.0443 33.0874 65.7301 32.8675C65.3052 32.5702 64.8036 32.3683 64.253 32.2975C63.6264 32.2169 63.0187 32.3168 62.4828 32.5564C61.6152 32.9444 61.0485 33.7866 60.5924 34.6396C60.4094 34.9818 60.6861 35.349 61.0373 35.1875C61.1069 35.1555 61.1758 35.1217 61.2443 35.0868C61.3468 35.0345 61.4486 34.9796 61.5508 34.9245C62.0571 34.6517 62.5729 34.3738 63.2436 34.3738C64.5357 34.3738 65.4979 35.1151 66.4753 35.8683C67.4844 36.6459 68.5099 37.436 69.9315 37.436C70.5469 37.436 71.1371 37.3278 71.6843 37.1292C72.2057 36.94 72.7972 36.8342 73.2455 37.162C73.367 37.2509 73.4812 37.3492 73.587 37.456C73.7135 37.5837 73.6978 37.7904 73.5594 37.9051C72.1016 39.1146 70.0419 39.4232 68.2994 38.697C67.7267 38.4583 67.2444 38.095 66.7677 37.7358L66.767 37.7353C65.9872 37.1477 65.2226 36.5717 64.1026 36.5717C63.1259 36.5717 62.2368 36.9494 61.5718 37.5675ZM66.3614 40.5924C66.7734 40.5012 67.2213 40.5654 67.6016 40.7493C67.7391 40.8158 67.8599 40.8765 67.9126 40.9135C67.982 40.9621 68.0509 41.012 68.1195 41.0624C68.197 41.1194 68.2741 41.1771 68.3511 41.2348C69.0532 41.7607 69.751 42.2834 70.691 42.1912C71.001 42.1608 71.356 42.0291 71.7221 41.8932C72.403 41.6404 73.1228 41.3732 73.6642 41.7173C73.9442 41.9307 72.2168 43.037 71.8397 43.1409C70.6267 43.4753 69.7303 43.3152 68.8256 42.9744C67.8928 42.6231 67.0441 42.1447 66.1831 41.6478L66.0131 41.5496C65.6238 41.3249 65.7135 40.7358 66.1518 40.6388L66.3614 40.5924ZM68.9464 50.2983C68.7191 50.0629 68.889 49.6888 69.1523 49.8064C70.1433 50.2494 71.1942 50.4167 72.2469 50.2484L72.2795 50.2432L72.3104 50.2379L72.3317 50.2342L72.3627 50.2286L72.3696 50.2273L72.3764 50.2261L72.3829 50.2248L72.3938 50.2228L72.4057 50.2205L72.4183 50.2181C72.6789 50.1674 72.8595 50.5862 72.6385 50.7648C72.2959 51.0418 71.903 51.2269 71.4718 51.2958C70.5694 51.44 69.6703 51.0481 68.9464 50.2983ZM67.3256 44.8828C67.783 44.752 68.3177 44.8156 68.7057 45.0925L68.7172 45.1008L68.721 45.1036L68.7226 45.1047L68.7246 45.1063L68.7271 45.1081L68.7338 45.1133L68.7373 45.1159L68.7414 45.1192L68.7437 45.1211L68.7455 45.1225L68.747 45.1238L68.7485 45.125L68.7501 45.1263L68.7512 45.1272L68.7597 45.1346L68.7816 45.1546L68.7917 45.1638L68.8151 45.1853L68.8512 45.2189L68.8876 45.253L68.9238 45.2874C68.9538 45.3158 68.9837 45.3445 69.0135 45.3733L69.0972 45.4541L69.0978 45.4547C69.6393 45.9785 70.1775 46.4991 70.9023 46.4072C71.1414 46.377 71.415 46.2458 71.6974 46.1104C72.2226 45.8586 72.7777 45.5925 73.1952 45.9353C73.4111 46.1478 72.079 47.2496 71.7881 47.3532C70.8528 47.6862 70.1615 47.5267 69.4638 47.1873C68.7445 46.8374 68.0899 46.3609 67.426 45.866L67.1805 45.683C66.8801 45.459 66.9659 44.9857 67.3256 44.8828ZM25.549 40.5833C25.1371 40.4921 24.6894 40.5563 24.3093 40.7402C24.1718 40.8067 24.0511 40.8673 23.9983 40.9043C23.8506 41.0079 23.7052 41.1169 23.56 41.2256C22.8582 41.7515 22.1606 42.2741 21.2209 42.1819C20.911 42.1515 20.5562 42.0198 20.1903 41.8839C19.5095 41.6311 18.79 41.364 18.2487 41.7081C17.9689 41.9214 19.6956 43.0276 20.0727 43.1316C21.2852 43.4659 22.1813 43.3058 23.0857 42.965C24.0181 42.6138 24.8666 42.1354 25.7272 41.6385L25.8972 41.5404C26.2863 41.3157 26.1966 40.7267 25.7585 40.6296L25.549 40.5833ZM22.9649 50.2882C23.1921 50.0528 23.0223 49.6788 22.7591 49.7964C21.7684 50.2393 20.7179 50.4066 19.6656 50.2384L19.633 50.2331L19.6022 50.2278L19.5808 50.2241L19.5498 50.2185L19.5441 50.2175L19.5275 50.2144L19.5136 50.2118L19.4942 50.208C19.2337 50.1573 19.0531 50.5761 19.274 50.7547C19.6166 51.0316 20.0093 51.2167 20.4404 51.2856C21.3424 51.4298 22.2412 51.038 22.9649 50.2882ZM24.5852 44.8733C24.1279 44.7425 23.5933 44.8061 23.2055 45.0829L23.1978 45.0885L23.1866 45.0967L23.1806 45.1013L23.179 45.1025L23.1773 45.1038L23.174 45.1064L23.1717 45.1082L23.1688 45.1105L23.167 45.1119L23.1652 45.1134L23.1644 45.114L23.1623 45.1158L23.1601 45.1176L23.1516 45.125C23.1209 45.1528 23.0904 45.1809 23.0601 45.2093C23.0358 45.232 23.0116 45.2548 22.9875 45.2778C22.9293 45.3331 22.8714 45.3891 22.8135 45.4451C22.2722 45.9688 21.7343 46.4894 21.0097 46.3975C20.7707 46.3673 20.4972 46.2361 20.2148 46.1007C19.6898 45.849 19.135 45.5829 18.7176 45.9256C18.5018 46.1381 19.8334 47.2398 20.1242 47.3434C21.0592 47.6764 21.7502 47.5169 22.4477 47.1775C23.1667 46.8277 23.8211 46.3512 24.4848 45.8563L24.7302 45.6734C25.0304 45.4495 24.9447 44.9761 24.5852 44.8733ZM30.8179 44.3183C30.5152 44.6235 30.8795 45.0131 31.2692 44.8337C32.7357 44.1584 34.3665 43.782 36.0848 43.782C36.1223 43.782 36.1599 43.7822 36.1973 43.7826C36.2533 43.7831 36.3093 43.784 36.3652 43.7854C36.7929 43.7956 36.9753 43.2928 36.5786 43.1319C35.9635 42.8823 35.2915 42.7449 34.5877 42.7449C33.115 42.7449 31.7819 43.3463 30.8179 44.3183ZM32.8305 47.9598C32.4919 47.7191 32.4919 47.2281 32.8305 46.9874C33.6141 46.4304 34.5706 46.1032 35.603 46.1032C36.6355 46.1032 37.5919 46.4304 38.3756 46.9874C38.7142 47.2281 38.7142 47.7191 38.3756 47.9598C37.5919 48.5168 36.6355 48.8441 35.603 48.8441C34.5706 48.8441 33.6141 48.5168 32.8305 47.9598ZM40.3981 51.3508C40.6839 50.6893 40.4663 49.7041 39.8089 49.9917C39.6073 50.0799 39.406 50.1707 39.2043 50.2617C37.9759 50.8158 36.7358 51.3751 35.3614 51.3751C34.2911 51.3751 33.2688 51.2386 32.3058 50.9628C32.0405 50.8868 30.8341 50.3863 30.1906 50.1168C29.9396 50.0116 29.649 50.0506 29.4524 50.2395C29.0237 50.6514 28.6477 51.142 28.3544 51.6835C27.9408 52.4474 27.6917 53.3128 27.6917 54.2024C27.6917 57.0362 30.1673 59.1387 32.2447 60.8336C32.508 61.0485 32.8838 61.0553 33.1492 60.8431C36.2778 58.3418 38.7845 55.0867 40.3981 51.3508ZM61.1495 44.7853C61.5391 44.9647 61.9034 44.5751 61.6007 44.2699C60.6367 43.2978 59.3036 42.6963 57.831 42.6963C57.1271 42.6963 56.4551 42.8337 55.84 43.0833C55.4433 43.2443 55.6258 43.7471 56.0534 43.7369C56.1006 43.7357 56.1479 43.7349 56.1953 43.7343C56.2227 43.734 56.2503 43.7338 56.2778 43.7337L56.3111 43.7336L56.3338 43.7335C58.052 43.7335 59.6829 44.1099 61.1495 44.7853ZM59.5881 47.9118C59.9267 47.6711 59.9267 47.18 59.5881 46.9393C58.8045 46.3822 57.848 46.0549 56.8156 46.0549C55.7831 46.0549 54.8267 46.3822 54.0431 46.9393C53.7045 47.18 53.7045 47.6711 54.0431 47.9118C54.8267 48.4689 55.7831 48.7962 56.8156 48.7962C57.848 48.7962 58.8045 48.4689 59.5881 47.9118ZM45.0929 24.4942C45.7369 23.967 46.1687 23.9394 46.8351 24.4848C46.9365 24.5677 47.0347 24.6453 47.1299 24.7177C48.6996 25.9105 49.4811 25.7114 50.7087 25.3988C51.4346 25.2139 52.3163 24.9894 53.609 24.9894C54.5397 24.9894 55.4217 25.1996 56.2105 25.5754C56.8928 25.9005 57.4538 26.374 58.0074 26.8413C58.4454 27.2111 58.8789 27.577 59.3642 27.8624C60.6019 28.5902 61.801 28.3092 63.0462 28.0175C63.3457 27.9474 63.6478 27.8766 63.9537 27.819C64.1764 27.7772 64.4062 27.7553 64.6409 27.7553C65.5466 27.7553 66.3766 28.0811 67.0216 28.6226C67.087 28.6775 67.1486 28.7323 67.207 28.7869C67.2709 28.8467 67.331 28.9062 67.388 28.9654C67.4736 29.0542 67.5552 29.1467 67.6349 29.2407C67.6982 29.3154 67.7604 29.3912 67.8226 29.4669L67.8233 29.4678L67.8239 29.4686C67.9889 29.6695 68.1539 29.8703 68.3399 30.052C68.5549 30.2619 68.8078 30.4542 69.1568 30.6212C70.1153 31.08 70.8949 30.9832 71.7206 30.6428C72.0114 30.5229 71.935 30.1099 71.6225 30.0761L71.0466 30.0137C69.9571 29.9206 69.0017 29.3547 68.3834 28.5208C68.3008 28.4094 68.219 28.297 68.1372 28.1845C67.7557 27.6599 67.3727 27.1332 66.8932 26.6933C66.0751 26.2026 65.3001 26.181 64.5059 26.2628C64.2835 26.2858 64.062 26.3161 63.8405 26.3465C63.757 26.3579 63.6735 26.3693 63.5898 26.3804L63.5527 26.3853C63.3881 26.4068 63.2233 26.4265 63.0579 26.4414C62.8569 26.4595 62.6527 26.4711 62.4444 26.4711C61.5988 26.4711 60.8088 26.2321 60.1373 25.8175C59.8295 25.6006 59.5504 25.401 59.2943 25.2168C59.1541 25.116 59.0209 25.0198 58.8936 24.9279C57.4023 23.8514 56.7269 23.3639 55.3515 22.9526C54.1048 22.5798 52.9459 22.7177 51.7528 22.8598C51.5652 22.8821 51.378 22.9069 51.1908 22.9317L51.1899 22.9319C50.7993 22.9836 50.4087 23.0353 50.0156 23.0645C49.7557 23.0839 49.6258 23.0935 49.5636 22.989C49.5014 22.8844 49.5677 22.7794 49.7003 22.5693C49.9422 22.1862 50.2669 21.8559 50.6515 21.6221C51.7384 20.9616 53.4081 20.8335 54.657 20.857C55.5062 20.8731 56.3071 21.0795 57.0204 21.435C57.2837 21.5663 57.5263 21.7217 57.7567 21.8906C58.0591 22.1124 58.3424 22.36 58.6257 22.6077C58.8819 22.8317 59.1381 23.0556 59.4086 23.2606C59.5541 23.3709 59.7033 23.475 59.8586 23.5701C61.07 24.3115 61.875 24.113 62.9439 23.8495C63.2785 23.767 63.6391 23.6781 64.0461 23.6097C64.3361 23.561 64.6274 23.5686 64.9186 23.5762C65.1864 23.5832 65.4541 23.5902 65.7206 23.5534C66.044 23.5088 66.1029 23.0913 65.8426 22.8931C65.2826 22.4669 64.7995 22.1704 63.9849 22.2663C63.5674 22.3154 63.1395 22.3657 62.692 22.3573C61.9207 22.3427 61.2041 22.1117 60.5986 21.7229C60.5175 21.6636 60.4386 21.6057 60.3618 21.5492C60.2719 21.4829 60.1849 21.4186 60.1005 21.356C59.9308 21.23 59.7617 21.1031 59.5926 20.9761L59.5873 20.9721C59.253 20.7211 58.9186 20.4701 58.5789 20.2267C57.7882 19.6603 57.2133 19.3312 56.2812 19.0339C55.1504 18.6733 54.0907 18.7788 52.9999 18.8875C52.4136 18.946 51.8182 19.0053 51.1978 18.9936C50.939 18.9887 50.5726 18.9507 50.2478 18.9104C49.9263 18.8705 49.7655 18.8506 49.7258 18.7335C49.6861 18.6163 49.8008 18.5021 50.0302 18.2737C50.1457 18.1586 50.2623 18.0466 50.358 17.9633C51.1403 17.2823 52.0507 17.1717 53.0478 17.1192C53.9363 17.0725 54.7861 17.1999 55.5532 17.4672C56.2466 17.7088 56.8587 18.0353 57.4503 18.351C58.9779 19.166 60.363 19.638 62.0839 19.1503C62.3396 19.0783 62.4119 18.7405 62.2042 18.5741C61.6925 18.1643 61.1327 17.933 60.4876 17.8125C59.4593 17.6203 58.5027 17.1058 57.5434 16.5897C56.5999 16.0822 55.6539 15.5733 54.6343 15.3685C53.4303 15.1266 52.3292 15.2975 51.1958 15.4734C49.5149 15.7342 48.3211 16.2866 46.8106 17.0485C46.6711 17.1188 46.5232 17.1748 46.3688 17.2146C46.0482 17.2971 45.7645 17.2925 45.4484 17.1932C45.3338 17.1572 45.2232 17.1121 45.1174 17.0587C43.6075 16.2969 42.4141 15.7447 40.7338 15.4838C39.6007 15.3079 38.5 15.1371 37.2964 15.3789C36.2772 15.5837 35.3315 16.0925 34.3882 16.6001C33.4293 17.116 32.4732 17.6305 31.4452 17.8226C30.8004 17.9432 30.2408 18.1744 29.7292 18.5842C29.5216 18.7505 29.5939 19.0883 29.8495 19.1603C31.5698 19.648 32.9544 19.176 34.4815 18.3611C35.0728 18.0455 35.6847 17.7189 36.3779 17.4774C37.1447 17.2101 37.9942 17.0827 38.8824 17.1295C39.8792 17.1819 40.7893 17.2926 41.5712 17.9735C41.6132 18.0101 41.6593 18.0522 41.7075 18.0976C41.769 18.1557 41.8342 18.2192 41.8989 18.2838C42.1283 18.5122 42.2429 18.6264 42.2032 18.7435C42.1635 18.8606 42.0028 18.8806 41.6815 18.9205C41.3567 18.9608 40.9905 18.9987 40.7317 19.0036C40.1119 19.0153 39.517 18.956 38.9312 18.8977L38.9302 18.8976C37.8398 18.7889 36.7806 18.6833 35.6501 19.0439C34.4028 19.4418 33.7952 19.8969 32.4535 20.9018L32.4501 20.9044C32.127 21.1464 31.7615 21.4202 31.3343 21.7327C30.729 22.1213 30.0126 22.3524 29.2415 22.3669C28.7943 22.3754 28.3665 22.325 27.9491 22.2759C27.1349 22.1801 26.6519 22.4765 26.092 22.9027C25.8318 23.1008 25.8907 23.5183 26.214 23.5629C26.4786 23.5994 26.7459 23.5899 27.0125 23.5804L27.0172 23.5803C27.0688 23.5784 27.1204 23.5766 27.1719 23.5751C27.2014 23.5743 27.2308 23.5736 27.2602 23.573C27.4743 23.569 27.6841 23.5849 27.888 23.6192C28.2948 23.6876 28.6552 23.7764 28.9898 23.859C30.0583 24.1224 30.8631 24.3209 32.074 23.5796C32.5116 23.3117 32.9007 22.9715 33.2936 22.6276L33.2941 22.6273C33.791 22.1926 34.2945 21.7522 34.9112 21.4448C35.6242 21.0893 36.4249 20.8829 37.2737 20.8668C38.5222 20.8433 40.1914 20.9714 41.2778 21.6319C41.6623 21.8656 41.9869 22.1958 42.2287 22.5789C42.3612 22.789 42.4275 22.894 42.3654 22.9985C42.3032 23.1031 42.1733 23.0934 41.9135 23.0741C41.5203 23.0448 41.1295 22.993 40.7387 22.9413L40.5796 22.9203C40.5177 22.9121 40.4557 22.9041 40.3937 22.8961C40.3215 22.8869 40.2493 22.878 40.177 22.8694C38.9843 22.7273 37.8257 22.5894 36.5795 22.9622C35.2045 23.3734 34.5295 23.8608 33.0387 24.9372C32.6788 25.197 32.2715 25.4912 31.7953 25.8268C31.1241 26.2413 30.3344 26.4803 29.4891 26.4803C28.9989 26.4803 28.5312 26.4161 28.0748 26.3534C27.4568 26.2686 26.8598 26.1867 26.256 26.2709C25.5204 26.3734 24.9923 26.6936 24.5214 27.249C24.3298 27.4751 24.1552 27.7188 23.9804 27.9627L23.9801 27.9632C23.7062 28.3456 23.4317 28.7288 23.0899 29.046C22.5009 29.5927 21.7358 29.9501 20.8899 30.0225L20.3141 30.0848C20.0018 30.1187 19.9255 30.5316 20.2161 30.6515C20.7122 30.8561 21.1917 30.9727 21.7032 30.9335C22.2972 30.8881 22.893 30.6408 23.3599 30.2693C23.6623 30.0288 23.9132 29.7323 24.1637 29.4362C24.3136 29.2591 24.4633 29.0822 24.6239 28.9174C24.8554 28.6798 25.105 28.4618 25.397 28.2872C25.9521 27.955 26.6006 27.7643 27.2933 27.7643C27.528 27.7643 27.7577 27.7862 27.9803 27.8281C28.342 27.8961 28.6979 27.9903 29.0539 28.0845C29.3513 28.1633 29.6488 28.242 29.9497 28.3055C30.7762 28.4798 31.5344 28.4794 32.5682 27.8714C33.0533 27.5861 33.4866 27.2202 33.9246 26.8505C34.4779 26.3832 35.0387 25.9097 35.7208 25.5847C36.5094 25.2089 37.391 24.9987 38.3215 24.9987C39.6137 24.9987 40.4951 25.2232 41.2207 25.4081C42.4797 25.7288 43.2694 25.93 44.9221 24.6312C44.9501 24.6092 44.9783 24.5868 45.0069 24.5639C45.0353 24.5411 45.064 24.5178 45.0929 24.4942Z" fill="#252F4A"/>
<path fill-rule="evenodd" clip-rule="evenodd" d="M61.5716 37.5673C61.5439 37.5932 61.5156 37.6186 61.4868 37.6436C61.4402 37.6842 61.3923 37.7237 61.3431 37.7622C60.6253 38.7614 59.4574 39.4115 58.1385 39.4115C53.3458 39.4115 48.9349 42.2459 48.9349 47.5982C48.9349 48.035 48.9375 48.4653 48.94 48.8925C48.9474 50.137 48.9546 51.3545 48.8981 52.6239C48.8613 53.4512 51.0456 54.9206 51.1905 53.0312L51.1929 53.0313L51.2419 52.1546H51.247C51.3076 51.7362 51.3639 51.2006 51.4125 50.6755C51.4669 50.087 52.0602 49.7081 52.5988 49.9438C52.8255 50.0429 53.0404 50.1405 53.2467 50.235L53.4422 50.3247L53.4432 50.3252C54.6739 50.8907 55.6242 51.3273 57.0463 51.3273C59.0406 51.3273 60.8681 50.8534 62.4563 49.8872C62.5091 49.8551 62.5763 49.8584 62.6242 49.8976C63.8298 50.8843 64.716 52.4765 64.716 54.155C64.716 59.6556 57.5249 57.4272 57.5249 67.8612C57.5249 72.8774 56.7557 77.4378 51.7065 79.9882C50.7414 80.4757 49.6372 80.552 48.5639 80.4325L48.4455 80.4193C47.5715 80.3316 46.8339 79.7779 46.4816 79.0087C46.418 78.8697 46.3076 78.7545 46.163 78.7076C45.1838 78.3899 44.1669 78.1569 43.1207 78.017C42.4714 77.9302 42.0046 77.3208 42.1033 76.6693L42.1155 76.588L42.1234 76.5346L42.1319 76.476L42.1485 76.359C42.1542 76.3181 42.1598 76.2771 42.1653 76.2361C42.2668 75.4831 43.0229 74.9876 43.7637 75.1351C44.4519 75.2722 45.1634 75.3441 45.8916 75.3441C47.9293 75.3441 49.8364 74.7813 51.4677 73.8017C51.6559 73.6887 51.6481 73.4174 51.4536 73.3156C49.9507 72.5288 48.2428 72.0842 46.4316 72.0842C45.6612 72.0842 45.0269 72.2038 44.3514 72.3311C43.8672 72.4224 43.362 72.5176 42.7706 72.5755C42.5767 72.5945 42.3943 72.4778 42.3372 72.2904C42.2107 71.8753 42.1424 71.4686 42.0969 71.0691C42.0311 70.4902 42.5157 69.9972 43.0942 70.0247L49.2663 70.3185L51.4751 70.2691C51.5061 70.2652 51.5407 70.2612 51.5781 70.2569L51.5805 70.2566C52.1423 70.1916 53.3332 70.0537 52.8495 69.2565C52.6563 68.939 52.3098 68.6426 51.9881 68.3674L51.9872 68.3666C51.8431 68.2435 51.7037 68.1242 51.5855 68.0094C50.8585 67.3031 50.1594 66.8734 49.0822 66.8734C48.4734 66.8734 47.9444 67.0948 47.4217 67.3135C46.9118 67.5269 46.4081 67.7377 45.8425 67.7377C45.322 67.7377 45.122 67.5698 44.7872 67.2203C44.1553 66.5608 44.9919 65.7759 45.8781 65.5661C45.9773 65.5427 46.0759 65.5168 46.1739 65.4885C47.7215 65.0416 49.0286 64.0223 49.8545 62.673C50.1363 62.2126 49.75 61.6742 49.2166 61.609C48.3369 61.5013 47.6848 61.2035 46.9998 60.8906C46.0699 60.466 45.0793 60.0136 43.376 59.9709C43.5997 57.8489 43.7564 55.4229 43.7564 53.2413C43.7564 50.9104 43.6254 48.6103 43.3705 46.348C42.7163 41.8374 38.6474 39.4606 34.2583 39.4606C31.9295 39.5234 30.9818 38.5965 30.1415 37.7746C29.4897 37.1371 28.9025 36.5628 27.7853 36.5628C26.8799 36.5628 26.2068 36.9395 25.5702 37.3943C25.4173 37.5035 25.2673 37.6165 25.1173 37.7296C24.8831 37.906 24.649 38.0824 24.4044 38.2441C24.1489 38.4129 23.8811 38.5665 23.59 38.6878C21.8482 39.4141 19.7891 39.1054 18.3318 37.8961C18.1935 37.7813 18.1777 37.5747 18.3043 37.447C18.41 37.3402 18.5241 37.2419 18.6456 37.1531C19.0938 36.8253 19.685 36.931 20.2062 37.1202C20.7533 37.3188 21.3433 37.427 21.9585 37.427C23.3796 37.427 24.4047 36.637 25.4134 35.8595C26.3905 35.1064 27.3523 34.365 28.6441 34.365C29.3145 34.365 29.8301 34.643 30.3362 34.9158C30.5065 35.0076 30.6758 35.0989 30.8496 35.1787C31.2007 35.3402 31.4773 34.973 31.2943 34.6309C30.8383 33.778 30.2718 32.9358 29.4046 32.5479C28.8689 32.3083 28.2614 32.2085 27.635 32.289C27.0846 32.3598 26.5831 32.5616 26.1584 32.8589C25.8451 33.0782 25.5577 33.2963 25.2829 33.5049L25.2808 33.5065C24.1197 34.388 23.1816 35.1001 21.4432 35.0246C21.0527 35.0076 19.1247 34.3157 19.3504 34.045C19.8021 33.5884 20.5625 33.6878 21.2822 33.7819C21.669 33.8324 22.0441 33.8814 22.3529 33.8417C23.2895 33.7213 23.8542 33.0555 24.4223 32.3857L24.4304 32.3761C24.4682 32.3315 24.5062 32.2869 24.5441 32.2424C24.6214 32.152 24.6992 32.0622 24.7785 31.9744C25.6432 31.0171 26.5642 30.4595 27.8763 30.2907C28.5359 30.2059 29.0915 30.4243 29.6542 30.6455C30.1425 30.8374 30.6362 31.0314 31.2079 31.0314C32.3242 31.0314 33.2297 30.4796 34.0909 29.8461C34.9318 29.2276 35.8795 28.7473 36.901 28.4386C38.0973 28.077 39.0602 28.1909 40.079 28.3113C40.6095 28.374 41.1559 28.4386 41.7576 28.4386C42.8685 28.4386 43.8264 28.0433 44.8021 27.6406L44.8044 27.6397C45.1738 27.4873 45.5456 27.3338 45.9294 27.2004C46.3016 27.3298 46.6699 27.4802 47.0388 27.6309C48.0343 28.0377 49.035 28.4466 50.1252 28.4466C50.7274 28.4466 51.2736 28.382 51.8046 28.3193C52.8236 28.1988 53.7869 28.085 54.9836 28.4466C56.0054 28.7553 56.9534 29.2356 57.7947 29.8542C58.6561 30.4878 59.562 31.0396 60.6787 31.0396C61.2505 31.0396 61.7444 30.8456 62.2328 30.6536C62.7958 30.4324 63.3516 30.214 64.0114 30.2989C65.324 30.4676 66.2452 31.0253 67.1103 31.9827C67.1798 32.0597 67.2482 32.1381 67.316 32.2172C67.3664 32.2759 67.4165 32.335 67.4666 32.394C68.0349 33.0639 68.5998 33.7298 69.5367 33.8502C69.8456 33.8899 70.2209 33.8409 70.6078 33.7904C71.3277 33.6963 72.0885 33.5969 72.5403 34.0535C72.766 34.3242 70.8374 35.0162 70.4467 35.0332C68.7078 35.1087 67.7693 34.3965 66.6077 33.5149C66.3322 33.3058 66.0442 33.0872 65.7299 32.8673C65.305 32.57 64.8034 32.3681 64.2528 32.2973C63.6262 32.2168 63.0185 32.3166 62.4826 32.5563C61.615 32.9442 61.0483 33.7865 60.5922 34.6395C60.4092 34.9816 60.6859 35.3488 61.0371 35.1873C61.1067 35.1554 61.1756 35.1216 61.2441 35.0866C61.3466 35.0343 61.4484 34.9795 61.5506 34.9244C62.0569 34.6515 62.5727 34.3736 63.2434 34.3736C64.5355 34.3736 65.4977 35.115 66.4751 35.8682C67.4842 36.6457 68.5097 37.4359 69.9313 37.4359C70.5467 37.4359 71.1369 37.3276 71.6841 37.129C72.2055 36.9398 72.797 36.834 73.2453 37.1619C73.3668 37.2507 73.481 37.349 73.5868 37.4558C73.7133 37.5836 73.6976 37.7902 73.5592 37.905C72.1014 39.1144 70.0417 39.4231 68.2992 38.6968C67.7265 38.4581 67.2442 38.0948 66.7675 37.7357C65.9877 37.1481 65.2224 36.5715 64.1024 36.5715C63.1257 36.5715 62.2366 36.9492 61.5716 37.5673ZM66.3612 40.5922C66.7732 40.501 67.2211 40.5652 67.6014 40.7491C67.7389 40.8157 67.8597 40.8763 67.9124 40.9133C67.9818 40.962 68.0507 41.0118 68.1193 41.0622C68.1968 41.1192 68.2739 41.177 68.3509 41.2347C69.053 41.7606 69.7509 42.2833 70.6908 42.191C71.0008 42.1606 71.3558 42.0289 71.7219 41.893C72.4028 41.6402 73.1226 41.3731 73.664 41.7172C73.944 41.9305 72.2166 43.0368 71.8395 43.1408C70.6265 43.4751 69.7301 43.315 68.8254 42.9742C67.8927 42.6229 67.0439 42.1445 66.1829 41.6476L66.0129 41.5494C65.6236 41.3247 65.7133 40.7356 66.1516 40.6386L66.3612 40.5922ZM68.9462 50.2981C68.7189 50.0627 68.8888 49.6886 69.1521 49.8063C70.1431 50.2492 71.194 50.4165 72.2467 50.2483L72.2793 50.243L72.3102 50.2377L72.3315 50.234L72.3625 50.2284L72.3694 50.2272L72.3762 50.2259L72.3827 50.2247L72.3936 50.2226L72.4055 50.2204L72.4181 50.2179C72.6787 50.1672 72.8593 50.586 72.6383 50.7647C72.2957 51.0416 71.9029 51.2267 71.4716 51.2956C70.5693 51.4398 69.6701 51.048 68.9462 50.2981ZM67.3254 44.8827C67.7828 44.7519 68.3176 44.8155 68.7055 45.0923L68.717 45.1006L68.7208 45.1034L68.7224 45.1046L68.7244 45.1061L68.7269 45.108L68.7337 45.1131L68.7371 45.1158L68.7412 45.119L68.7435 45.1209L68.7453 45.1224L68.7468 45.1236L68.7483 45.1248L68.7499 45.1261L68.751 45.127L68.7595 45.1344L68.7814 45.1544L68.7915 45.1636L68.8149 45.1852L68.851 45.2187L68.8874 45.2529L68.9237 45.2872C68.9536 45.3157 68.9835 45.3443 69.0133 45.3731L69.097 45.454C69.6385 45.9777 70.1773 46.4989 70.9021 46.4071C71.1412 46.3768 71.4148 46.2456 71.6972 46.1102C72.2224 45.8584 72.7775 45.5923 73.195 45.9351C73.4109 46.1476 72.0788 47.2495 71.7879 47.353C70.8526 47.686 70.1613 47.5266 69.4636 47.1872C68.7443 46.8372 68.0897 46.3607 67.4258 45.8658L67.1803 45.6828C66.8799 45.4589 66.9657 44.9855 67.3254 44.8827ZM25.5488 40.5831C25.1369 40.4919 24.6892 40.5561 24.3091 40.74C24.1716 40.8065 24.0509 40.8672 23.9981 40.9042C23.8504 41.0078 23.705 41.1167 23.5598 41.2255C22.858 41.7513 22.1604 42.2739 21.2207 42.1818C20.9108 42.1514 20.556 42.0196 20.1901 41.8837C19.5093 41.631 18.7898 41.3638 18.2485 41.7079C17.9687 41.9213 19.6954 43.0274 20.0725 43.1314C21.285 43.4657 22.1811 43.3056 23.0855 42.9649C24.0179 42.6136 24.8664 42.1352 25.727 41.6384L25.897 41.5402C26.2861 41.3155 26.1965 40.7265 25.7583 40.6295L25.5488 40.5831ZM22.9647 50.288C23.1919 50.0526 23.0221 49.6786 22.7589 49.7962C21.7682 50.2392 20.7178 50.4064 19.6654 50.2382L19.6328 50.2329L19.602 50.2277L19.5806 50.2239L19.5496 50.2184L19.5439 50.2173L19.5273 50.2142L19.5134 50.2116L19.494 50.2079C19.2335 50.1571 19.0529 50.5759 19.2738 50.7545C19.6164 51.0315 20.0091 51.2166 20.4402 51.2855C21.3422 51.4296 22.2411 51.0378 22.9647 50.288ZM24.585 44.8731C24.1277 44.7423 23.5931 44.8059 23.2053 45.0828L23.1976 45.0883L23.1864 45.0966L23.1804 45.1011L23.1788 45.1023L23.1771 45.1036L23.1738 45.1062L23.1715 45.108L23.1686 45.1103L23.1668 45.1117L23.165 45.1132L23.1621 45.1156L23.1599 45.1175L23.1514 45.1249C23.1207 45.1526 23.0902 45.1807 23.0599 45.2092C23.0356 45.2318 23.0114 45.2547 22.9873 45.2776C22.9291 45.3329 22.8712 45.3889 22.8133 45.4449C22.272 45.9687 21.7341 46.4892 21.0095 46.3974C20.7705 46.3671 20.497 46.236 20.2146 46.1006C19.6896 45.8488 19.1348 45.5827 18.7174 45.9254C18.5016 46.1379 19.8332 47.2397 20.124 47.3432C21.059 47.6762 21.75 47.5167 22.4475 47.1774C23.1665 46.8275 23.8209 46.351 24.4846 45.8562L24.73 45.6732C25.0303 45.4493 24.9445 44.9759 24.585 44.8731ZM30.8177 44.3181C30.515 44.6233 30.8793 45.013 31.269 44.8335C32.7355 44.1582 34.3663 43.7819 36.0846 43.7819C36.1221 43.7819 36.1597 43.782 36.1971 43.7824C36.2531 43.7829 36.3091 43.7839 36.365 43.7852C36.7927 43.7954 36.9751 43.2927 36.5784 43.1317C35.9633 42.8822 35.2913 42.7448 34.5875 42.7448C33.1148 42.7448 31.7817 43.3462 30.8177 44.3181ZM32.8303 47.9597C32.4917 47.719 32.4917 47.2279 32.8303 46.9872C33.6139 46.4302 34.5704 46.103 35.6028 46.103C36.6353 46.103 37.5917 46.4302 38.3754 46.9872C38.714 47.2279 38.714 47.719 38.3754 47.9597C37.5917 48.5167 36.6353 48.8439 35.6028 48.8439C34.5704 48.8439 33.6139 48.5167 32.8303 47.9597ZM40.3979 51.3507C40.6837 50.6891 40.4661 49.7039 39.8087 49.9915C39.6071 50.0797 39.4058 50.1705 39.2041 50.2615C37.9757 50.8156 36.7356 51.3749 35.3612 51.3749C34.2909 51.3749 33.2686 51.2384 32.3056 50.9626C32.0403 50.8866 30.8339 50.3861 30.1904 50.1166C29.9394 50.0115 29.6488 50.0504 29.4522 50.2394C29.0235 50.6513 28.6475 51.1418 28.3542 51.6834C27.9406 52.4472 27.6915 53.3126 27.6915 54.2023C27.6915 57.036 30.1671 59.1385 32.2445 60.8334C32.5078 61.0483 32.8836 61.0551 33.149 60.843C36.2776 58.3416 38.7843 55.0866 40.3979 51.3507ZM61.1493 44.7852C61.5389 44.9646 61.9033 44.5749 61.6006 44.2697C60.6365 43.2976 59.3034 42.6961 57.8308 42.6961C57.1269 42.6961 56.4549 42.8335 55.8398 43.0831C55.4431 43.2441 55.6256 43.7469 56.0532 43.7367C56.1004 43.7356 56.1477 43.7347 56.1951 43.7342C56.2225 43.7338 56.2501 43.7336 56.2776 43.7335L56.3109 43.7334L56.3336 43.7334C58.0519 43.7334 59.6827 44.1098 61.1493 44.7852ZM59.5879 47.9117C59.9265 47.671 59.9265 47.1798 59.5879 46.9391C58.8043 46.382 57.8478 46.0548 56.8154 46.0548C55.783 46.0548 54.8265 46.382 54.0429 46.9391C53.7043 47.1798 53.7043 47.671 54.0429 47.9117C54.8265 48.4687 55.783 48.796 56.8154 48.796C57.8478 48.796 58.8043 48.4687 59.5879 47.9117ZM45.0927 24.494C45.7367 23.9669 46.1685 23.9392 46.8349 24.4846C46.9363 24.5676 47.0345 24.6451 47.1297 24.7175C48.6994 25.9103 49.4809 25.7113 50.7085 25.3986C51.4344 25.2137 52.3161 24.9892 53.6088 24.9892C54.5395 24.9892 55.4215 25.1994 56.2103 25.5752C56.8926 25.9003 57.4536 26.3738 58.0072 26.8412C58.4453 27.211 58.8787 27.5768 59.364 27.8622C60.6017 28.59 61.8008 28.3091 63.046 28.0173C63.3455 27.9472 63.6476 27.8764 63.9535 27.8189C64.1762 27.777 64.406 27.7551 64.6407 27.7551C65.5464 27.7551 66.3764 28.0809 67.0214 28.6224C67.0868 28.6773 67.1484 28.7321 67.2068 28.7867C67.2707 28.8465 67.3308 28.906 67.3878 28.9652C67.4734 29.054 67.555 29.1465 67.6347 29.2406C67.698 29.3153 67.7602 29.391 67.8224 29.4667L67.8231 29.4676C67.9881 29.6685 68.1537 29.8701 68.3397 30.0518C68.5547 30.2618 68.8076 30.454 69.1566 30.6211C70.1151 31.0799 70.8947 30.9831 71.7204 30.6426C72.0112 30.5227 71.9348 30.1098 71.6224 30.0759L71.0464 30.0136C69.9569 29.9204 69.0015 29.3546 68.3832 28.5207C68.3006 28.4092 68.2188 28.2968 68.137 28.1843C67.7555 27.6597 67.3725 27.133 66.893 26.6932C66.0749 26.2024 65.2999 26.1808 64.5057 26.2627C64.2833 26.2856 64.0618 26.3159 63.8403 26.3463C63.7568 26.3577 63.6733 26.3692 63.5897 26.3802L63.5525 26.3851C63.3879 26.4066 63.2231 26.4263 63.0577 26.4412C62.8567 26.4594 62.6525 26.4709 62.4442 26.4709C61.5986 26.4709 60.8086 26.2319 60.1371 25.8174C59.8293 25.6004 59.5502 25.4008 59.2941 25.2166C59.1539 25.1158 59.0207 25.0196 58.8934 24.9277C57.4021 23.8512 56.7267 23.3637 55.3513 22.9524C54.1046 22.5796 52.9457 22.7176 51.7526 22.8596C51.5651 22.8819 51.3778 22.9067 51.1906 22.9315C50.8 22.9832 50.4085 23.0351 50.0154 23.0643C49.7555 23.0837 49.6256 23.0934 49.5634 22.9888C49.5012 22.8842 49.5675 22.7792 49.7001 22.5692C49.9421 22.186 50.2667 21.8557 50.6513 21.622C51.7382 20.9614 53.4079 20.8333 54.6568 20.8569C55.506 20.8729 56.307 21.0793 57.0202 21.4349C57.2835 21.5661 57.5261 21.7216 57.7565 21.8905C58.0589 22.1123 58.3422 22.3599 58.6255 22.6076C58.8817 22.8315 59.1379 23.0555 59.4084 23.2604C59.5539 23.3707 59.7031 23.4749 59.8584 23.5699C61.0698 24.3113 61.8748 24.1128 62.9437 23.8493C63.2783 23.7668 63.6389 23.6779 64.0459 23.6095C64.3359 23.5608 64.6272 23.5684 64.9184 23.576C65.1862 23.583 65.4539 23.59 65.7204 23.5532C66.0438 23.5086 66.1028 23.0911 65.8424 22.893C65.2824 22.4667 64.7993 22.1702 63.9847 22.2661C63.5672 22.3152 63.1393 22.3656 62.6918 22.3571C61.9205 22.3426 61.2039 22.1115 60.5984 21.7228C60.5173 21.6635 60.4384 21.6056 60.3616 21.549C60.2717 21.4828 60.1847 21.4184 60.1003 21.3558C59.9306 21.2298 59.7615 21.1029 59.5924 20.9759L59.5871 20.9719C59.2528 20.7209 58.9184 20.4699 58.5787 20.2266C57.788 19.6601 57.2131 19.331 56.281 19.0338C55.1502 18.6731 54.0905 18.7787 52.9997 18.8874C52.4134 18.9458 51.818 19.0051 51.1976 18.9934C50.9388 18.9886 50.5724 18.9506 50.2476 18.9103C49.9261 18.8704 49.7653 18.8504 49.7256 18.7333C49.6859 18.6161 49.8006 18.5019 50.03 18.2735C50.1455 18.1584 50.2621 18.0465 50.3578 17.9632C51.1401 17.2822 52.0505 17.1715 53.0476 17.1191C53.9361 17.0723 54.7859 17.1997 55.553 17.467C56.2464 17.7086 56.8585 18.0352 57.4501 18.3508C58.9777 19.1658 60.3628 19.6379 62.0837 19.1501C62.3394 19.0781 62.4117 18.7403 62.204 18.574C61.6923 18.1641 61.1325 17.9329 60.4874 17.8123C59.4591 17.6202 58.5025 17.1056 57.5432 16.5896C56.5997 16.082 55.6537 15.5731 54.6341 15.3683C53.4301 15.1265 52.329 15.2973 51.1956 15.4732C49.5147 15.7341 48.3209 16.2864 46.8104 17.0483C46.6709 17.1187 46.523 17.1747 46.3686 17.2144C46.048 17.2969 45.7643 17.2924 45.4482 17.193C45.3336 17.157 45.223 17.1119 45.1172 17.0586C43.6073 16.2968 42.4139 15.7445 40.7336 15.4837C39.6005 15.3078 38.4998 15.1369 37.2962 15.3787C36.277 15.5835 35.3313 16.0924 34.388 16.5999C33.4292 17.1159 32.473 17.6304 31.445 17.8225C30.8002 17.943 30.2406 18.1742 29.729 18.584C29.5214 18.7503 29.5937 19.0882 29.8493 19.1601C31.5696 19.6478 32.9542 19.1758 34.4813 18.3609C35.0726 18.0453 35.6845 17.7188 36.3777 17.4772C37.1445 17.2099 37.994 17.0826 38.8822 17.1293C39.879 17.1817 40.7891 17.2924 41.571 17.9733C41.613 18.0099 41.6591 18.052 41.7073 18.0975C41.7688 18.1555 41.834 18.2191 41.8987 18.2836C42.1281 18.512 42.2427 18.6262 42.203 18.7433C42.1633 18.8605 42.0026 18.8804 41.6813 18.9203C41.3565 18.9606 40.9903 18.9986 40.7315 19.0034C40.1117 19.0152 39.5168 18.9559 38.931 18.8975C37.8405 18.7888 36.7804 18.6832 35.6499 19.0438C34.4026 19.4416 33.795 19.8967 32.4533 20.9017L32.4499 20.9042C32.1268 21.1462 31.7613 21.42 31.3341 21.7325C30.7288 22.1212 30.0124 22.3522 29.2413 22.3668C28.7941 22.3752 28.3663 22.3249 27.9489 22.2757C27.1347 22.1799 26.6517 22.4763 26.0918 22.9025C25.8316 23.1007 25.8905 23.5181 26.2138 23.5627C26.4784 23.5992 26.7457 23.5898 27.0123 23.5803L27.017 23.5801C27.0686 23.5783 27.1202 23.5764 27.1717 23.575C27.2012 23.5741 27.2306 23.5734 27.26 23.5728C27.4741 23.5688 27.6839 23.5848 27.8878 23.619C28.2946 23.6874 28.655 23.7763 28.9896 23.8588C30.0581 24.1223 30.8629 24.3207 32.0738 23.5794C32.5114 23.3115 32.9005 22.9713 33.2935 22.6275C33.7903 22.1928 34.2943 21.7521 34.911 21.4446C35.624 21.0891 36.4247 20.8827 37.2735 20.8667C38.522 20.8431 40.1912 20.9712 41.2776 21.6317C41.6621 21.8654 41.9867 22.1956 42.2285 22.5788C42.361 22.7888 42.4273 22.8938 42.3652 22.9984C42.303 23.1029 42.1731 23.0932 41.9133 23.0739C41.5201 23.0446 41.1293 22.9929 40.7386 22.9411L40.5794 22.9201C40.5175 22.912 40.4555 22.9039 40.3935 22.896C40.3213 22.8868 40.2491 22.8778 40.1768 22.8692C38.9841 22.7272 37.8255 22.5892 36.5793 22.962C35.2043 23.3733 34.5293 23.8607 33.0385 24.9371C32.6786 25.1969 32.2713 25.491 31.7951 25.8266C31.1239 26.2411 30.3342 26.4801 29.4889 26.4801C28.9987 26.4801 28.531 26.4159 28.0746 26.3533C27.4566 26.2685 26.8596 26.1865 26.2558 26.2707C25.5202 26.3732 24.9921 26.6935 24.5212 27.2488C24.3296 27.4749 24.155 27.7186 23.9802 27.9625C23.7063 28.345 23.4315 28.7286 23.0897 29.0458C22.5007 29.5925 21.7356 29.95 20.8897 30.0223L20.3139 30.0847C20.0016 30.1185 19.9253 30.5314 20.216 30.6513C20.712 30.8559 21.1915 30.9725 21.703 30.9334C22.297 30.8879 22.8928 30.6406 23.3597 30.2692C23.6621 30.0286 23.913 29.7321 24.1635 29.4361C24.3134 29.259 24.4631 29.082 24.6237 28.9173C24.8552 28.6797 25.1048 28.4616 25.3968 28.287C25.9519 27.9549 26.6004 27.7641 27.2931 27.7641C27.5278 27.7641 27.7575 27.786 27.9801 27.8279C28.3418 27.8959 28.6977 27.9901 29.0537 28.0844C29.3511 28.1631 29.6486 28.2419 29.9495 28.3053C30.776 28.4796 31.5342 28.4792 32.568 27.8712C33.0531 27.5859 33.4864 27.22 33.9244 26.8503C34.4778 26.383 35.0386 25.9095 35.7206 25.5845C36.5092 25.2087 37.3908 24.9985 38.3213 24.9985C39.6135 24.9985 40.4949 25.2231 41.2205 25.4079C42.4795 25.7286 43.2692 25.9298 44.9219 24.6311C44.9499 24.609 44.9781 24.5866 45.0067 24.5637C45.0351 24.5409 45.0638 24.5177 45.0927 24.494Z" fill="white"/>
</g>
<defs>
<clipPath id="clip0_97_4944">
<rect width="317" height="92" fill="white"/>
</clipPath>
<clipPath id="clip1_97_4944">
<rect width="203" height="55" fill="white" transform="translate(114 22)"/>
</clipPath>
</defs>
</svg>
