<svg width="35" height="48" viewBox="0 0 35 48" fill="none" xmlns="http://www.w3.org/2000/svg">
<g id="Layer 2">
<g id="Layer 1">
<path id="Vector" fill-rule="evenodd" clip-rule="evenodd" d="M26.2076 40.4154C26.6305 40.4154 26.9761 41.0987 26.9761 41.935V43.5892C26.9761 44.4245 26.6305 45.1088 26.2076 45.1088C25.7846 45.1088 25.439 44.4245 25.439 43.5892V41.935C25.439 41.0987 25.7846 40.4154 26.2076 40.4154ZM12.6848 36.2059H16.6223V37.7546H12.8348C12.7458 37.7548 12.6605 37.7903 12.5976 37.8532C12.5347 37.9162 12.4992 38.0015 12.4989 38.0905V38.317H10.8409V38.0488C10.844 37.5605 11.0399 37.0932 11.386 36.7488C11.7321 36.4043 12.2003 36.2106 12.6887 36.2098L12.6848 36.2059ZM15.8896 39.2868V44.0402C15.8888 44.384 15.7914 44.7205 15.6084 45.0115C15.4254 45.3025 15.1643 45.5361 14.8549 45.6857L13.4823 44.1835C13.4823 44.168 14.5006 44.1177 14.5006 43.5302V39.2868H15.8896ZM5.68577 39.7611H4.19905V43.987C4.19905 44.5745 3.93287 45.0566 3.60765 45.0566H3.36083C3.03561 45.0566 2.76944 44.5726 2.76944 43.987V37.2648H1.28271V44.0402C1.28424 44.5232 1.47673 44.986 1.81817 45.3277C2.15961 45.6693 2.62231 45.862 3.1053 45.8638H3.86318C4.30538 45.8623 4.73207 45.7007 5.06429 45.4089C5.39652 45.117 5.6118 44.7147 5.67029 44.2764L6.95568 45.6857C7.2353 45.55 7.47597 45.3457 7.65522 45.0918C7.83447 44.8379 7.94645 44.5427 7.9807 44.2338L9.31062 45.6857C9.57882 45.5556 9.81137 45.3623 9.98825 45.1223C10.1651 44.8824 10.281 44.603 10.326 44.3084L11.5843 45.6857C11.8935 45.536 12.1544 45.3023 12.3372 45.0113C12.52 44.7203 12.6173 44.3839 12.618 44.0402V39.7611H11.2281V43.5292C11.2281 43.9851 10.6134 44.1177 10.3395 44.1612C10.3395 44.1216 10.3395 44.0819 10.3395 44.0412V39.7611H8.95637V43.5292C8.95637 44.0402 8.18203 44.1448 7.98845 44.1729C7.98845 44.1293 7.98845 44.0857 7.98845 44.0412V39.7611H6.60142V43.5292C6.60142 44.0035 5.93646 44.1274 5.68093 44.1661C5.68093 44.1245 5.68577 44.0838 5.68577 44.0412V39.7611ZM25.7217 39.6265C25.2851 39.6288 24.8672 39.8036 24.559 40.1127C24.2508 40.4219 24.0772 40.8403 24.0762 41.2768V44.1564C23.7858 44.107 23.2177 43.9686 23.2177 43.5292V41.4608H23.207V41.3543C23.207 40.3515 22.4404 39.5298 21.5035 39.5298H20.795C19.858 39.5298 19.0914 40.3515 19.0914 41.3543V45.6344H20.4814V41.4075C20.4814 40.821 20.7301 40.3428 21.035 40.3428H21.2644C21.5683 40.3428 21.8181 40.8268 21.8181 41.4075C21.8181 42.2922 21.8287 43.1711 21.8287 44.0412C21.8295 44.3849 21.9269 44.7215 22.1099 45.0125C22.2928 45.3034 22.554 45.5371 22.8634 45.6867L24.0869 44.3471C24.1326 44.75 24.3249 45.1221 24.627 45.3926C24.9291 45.6631 25.32 45.8132 25.7255 45.8144H26.8251C27.2446 45.8131 27.648 45.6524 27.9535 45.3648C28.259 45.0773 28.4438 44.6844 28.4706 44.2658L29.8595 45.6857C30.1305 45.554 30.365 45.3578 30.5424 45.1143C30.7198 44.8707 30.8346 44.5873 30.8768 44.289L32.1515 45.6857C32.461 45.5361 32.7221 45.3025 32.9051 45.0115C33.088 44.7205 33.1855 44.384 33.1862 44.0402V39.7611H31.7973V43.5292C31.7973 43.9957 31.1536 44.1235 30.8894 44.1641C30.8894 44.1235 30.8942 44.0828 30.8942 44.0412V39.7611H29.5053V43.5292C29.5053 43.986 28.7851 44.0761 28.4657 44.1012V41.2768C28.4647 40.8403 28.2912 40.4219 27.9829 40.1127C27.6747 39.8036 27.2568 39.6288 26.8203 39.6265H25.7217ZM31.5514 47.1676L32.3838 46.3352L33.2163 47.1676L32.3838 48L31.5514 47.1676ZM27.9576 47.1676L28.79 46.3352L29.5643 47.1095L30.3386 46.3352L31.171 47.1676L30.3386 48L29.5643 47.2257L28.79 48L27.9576 47.1676ZM1.95542 47.1676L2.78783 46.3352L3.56216 47.1095L4.33649 46.3352L5.16987 47.1676L4.33649 48L3.56216 47.2257L2.78783 48L1.95542 47.1676Z" fill="black"/>
<path id="Vector_2" fill-rule="evenodd" clip-rule="evenodd" d="M16.2988 0H18.3527C26.4242 0 33.1754 5.9043 34.4375 13.5828H28.5061C27.1327 8.80805 23.2068 5.93043 18.2782 5.80751H16.3762C11.6489 5.93333 7.77722 8.78288 6.23629 13.2547L6.1395 13.5847H0.200359C1.44026 6.12305 8.30957 0 16.2988 0ZM17.4032 31.346L20.545 28.2032L23.6172 31.2724L23.8611 31.1815C26.5142 30.2232 28.3406 28.6194 28.8478 25.8928L28.7917 15.1295L28.7839 15.0647H34.6137C34.6389 15.4344 34.6534 15.8071 34.6534 16.1826V27.4889C34.6534 32.2868 29.746 34.3282 26.0922 34.0707C25.2733 33.2083 24.3112 32.1745 23.6336 31.4051L20.5479 34.4908L17.4032 31.346ZM11.0827 31.1892L14.0687 28.2032L17.2115 31.346L14.0687 34.4879L10.9762 31.3905C10.1815 32.2559 9.31717 33.1841 8.48283 34.0639H7.56621C4.73602 34.0639 0.218749 32.2065 0.153899 27.4259L0 16.1826C0 15.808 0.00580751 15.4354 0.0290375 15.0647H5.85784L5.93333 25.4737C5.84235 28.1838 7.98822 30.1022 11.0827 31.1892ZM8.02017 15.2108V25.6188H13.1811V15.2108H8.02017ZM14.9437 15.2108V25.6188H20.1056V15.2108H14.9437ZM21.6968 15.2108V25.6188H26.8578V15.2108H21.6968Z" fill="#2E3192"/>
</g>
</g>
</svg>
