<svg width="35" height="48" viewBox="0 0 35 48" fill="none" xmlns="http://www.w3.org/2000/svg">
<g id="asia insurance 2" clip-path="url(#clip0_1021_11477)">
<g id="Layer 2">
<g id="Layer 1">
<path id="Vector" fill-rule="evenodd" clip-rule="evenodd" d="M16.2988 0H18.3527C26.4242 0 33.1754 5.9043 34.4375 13.5828H28.5061C27.1327 8.80805 23.2068 5.93043 18.2782 5.80751H16.3762C11.6489 5.93333 7.77722 8.78288 6.23629 13.2547L6.1395 13.5847H0.200359C1.44026 6.12305 8.30957 0 16.2988 0ZM17.4032 31.346L20.545 28.2032L23.6172 31.2724L23.8611 31.1815C26.5142 30.2232 28.3406 28.6194 28.8478 25.8928L28.7917 15.1295L28.7839 15.0647H34.6137C34.6389 15.4344 34.6534 15.8071 34.6534 16.1826V27.4889C34.6534 32.2868 29.746 34.3282 26.0922 34.0707C25.2733 33.2083 24.3112 32.1745 23.6336 31.4051L20.5479 34.4908L17.4032 31.346ZM11.0827 31.1892L14.0687 28.2032L17.2115 31.346L14.0687 34.4879L10.9762 31.3905C10.1815 32.2559 9.31717 33.1841 8.48283 34.0639H7.56621C4.73602 34.0639 0.218749 32.2065 0.153899 27.4259L0 16.1826C0 15.808 0.00580751 15.4354 0.0290375 15.0647H5.85784L5.93333 25.4737C5.84235 28.1838 7.98822 30.1022 11.0827 31.1892ZM8.02017 15.2108V25.6188H13.1811V15.2108H8.02017ZM14.9437 15.2108V25.6188H20.1056V15.2108H14.9437ZM21.6968 15.2108V25.6188H26.8578V15.2108H21.6968ZM26.2073 40.4154C26.6303 40.4154 26.9759 41.0987 26.9759 41.935V43.5892C26.9759 44.4245 26.6303 45.1088 26.2073 45.1088C25.7844 45.1088 25.4388 44.4245 25.4388 43.5892V41.935C25.4388 41.0987 25.7844 40.4154 26.2073 40.4154ZM12.6846 36.2059H16.622V37.7546H12.8346C12.7456 37.7548 12.6603 37.7903 12.5974 37.8532C12.5344 37.9162 12.499 38.0015 12.4987 38.0905V38.317H10.8407V38.0488C10.8437 37.5605 11.0397 37.0932 11.3858 36.7488C11.7319 36.4043 12.2001 36.2106 12.6884 36.2098L12.6846 36.2059ZM15.8893 39.2868V44.0402C15.8886 44.384 15.7911 44.7205 15.6082 45.0115C15.4252 45.3025 15.1641 45.5361 14.8546 45.6857L13.4821 44.1835C13.4821 44.168 14.5004 44.1177 14.5004 43.5302V39.2868H15.8893ZM5.68555 39.7611H4.19883V43.987C4.19883 44.5745 3.93265 45.0566 3.60743 45.0566H3.36061C3.03539 45.0566 2.76921 44.5726 2.76921 43.987V37.2648H1.28249V44.0402C1.28402 44.5233 1.4765 44.986 1.81795 45.3277C2.15939 45.6693 2.62208 45.862 3.10508 45.8638H3.86296C4.30516 45.8623 4.73184 45.7007 5.06407 45.4089C5.3963 45.117 5.61157 44.7147 5.67006 44.2764L6.95546 45.6857C7.23507 45.55 7.47575 45.3457 7.655 45.0918C7.83425 44.8379 7.94623 44.5427 7.98048 44.2338L9.3104 45.6857C9.5786 45.5556 9.81115 45.3623 9.98802 45.1223C10.1649 44.8824 10.2808 44.603 10.3257 44.3084L11.584 45.6857C11.8933 45.536 12.1542 45.3023 12.337 45.0113C12.5198 44.7204 12.6171 44.3839 12.6178 44.0402V39.7611H11.2278V43.5292C11.2278 43.9851 10.6132 44.1177 10.3393 44.1612C10.3393 44.1216 10.3393 44.0819 10.3393 44.0412V39.7611H8.95614V43.5292C8.95614 44.0402 8.18181 44.1448 7.98822 44.1729C7.98822 44.1293 7.98822 44.0857 7.98822 44.0412V39.7611H6.6012V43.5292C6.6012 44.0035 5.93624 44.1274 5.68071 44.1661C5.68071 44.1245 5.68555 44.0838 5.68555 44.0412V39.7611ZM25.7214 39.6265C25.2849 39.6288 24.867 39.8036 24.5588 40.1127C24.2505 40.4219 24.077 40.8403 24.076 41.2768V44.1564C23.7856 44.107 23.2174 43.9686 23.2174 43.5292V41.4608H23.2068V41.3543C23.2068 40.3515 22.4402 39.5298 21.5033 39.5298H20.7947C19.8578 39.5298 19.0912 40.3515 19.0912 41.3543V45.6344H20.4811V41.4075C20.4811 40.821 20.7299 40.3428 21.0348 40.3428H21.2642C21.5681 40.3428 21.8178 40.8268 21.8178 41.4075C21.8178 42.2922 21.8285 43.1711 21.8285 44.0412C21.8293 44.3849 21.9267 44.7215 22.1097 45.0125C22.2926 45.3034 22.5537 45.5371 22.8632 45.6867L24.0866 44.3471C24.1324 44.75 24.3246 45.1221 24.6267 45.3926C24.9288 45.6631 25.3198 45.8132 25.7253 45.8144H26.8249C27.2444 45.8131 27.6477 45.6524 27.9532 45.3648C28.2587 45.0773 28.4436 44.6844 28.4703 44.2658L29.8593 45.6857C30.1303 45.554 30.3648 45.3578 30.5422 45.1143C30.7196 44.8707 30.8344 44.5873 30.8766 44.289L32.1513 45.6857C32.4608 45.5361 32.7219 45.3025 32.9048 45.0115C33.0878 44.7205 33.1852 44.384 33.186 44.0402V39.7611H31.7971V43.5292C31.7971 43.9957 31.1534 44.1235 30.8892 44.1641C30.8892 44.1235 30.894 44.0828 30.894 44.0412V39.7611H29.505V43.5292C29.505 43.986 28.7849 44.0761 28.4655 44.1012V41.2768C28.4645 40.8403 28.2909 40.4219 27.9827 40.1127C27.6745 39.8036 27.2566 39.6288 26.82 39.6265H25.7214ZM31.5512 47.1676L32.3836 46.3352L33.216 47.1676L32.3836 48L31.5512 47.1676ZM27.9573 47.1676L28.7897 46.3352L29.5641 47.1095L30.3384 46.3352L31.1708 47.1676L30.3384 48L29.5641 47.2257L28.7897 48L27.9573 47.1676ZM1.95519 47.1676L2.7876 46.3352L3.56194 47.1095L4.33627 46.3352L5.16965 47.1676L4.33627 48L3.56194 47.2257L2.7876 48L1.95519 47.1676Z" fill="white"/>
</g>
</g>
</g>
<defs>
<clipPath id="clip0_1021_11477">
<rect width="34.6505" height="48" fill="white"/>
</clipPath>
</defs>
</svg>
