<svg width="84" height="62" viewBox="0 0 84 62" fill="none" xmlns="http://www.w3.org/2000/svg">
<g id="message-iphone-svgrepo-com 1" clip-path="url(#clip0_889_23402)">
<path id="Vector" d="M84 20.2174H79.9118V16.1739H64.9215V4.04344H60.8333V0H25.4017V4.04344H21.3135V57.9566H25.4017V62H60.8333V57.9566H64.9215V37.7391H79.9118V33.6957H84V20.2174Z" fill="#D4D4D8"/>
<path id="Vector_2" d="M79.9115 20.2178V16.1743H56.7447V8.0874H29.4897V45.8265H48.5683H56.7447V41.7829H64.9212V37.7395H79.9115V33.6961H83.9998V20.2178H79.9115Z" fill="#005BC4"/>
<g id="Group">
<path id="Vector_3" d="M37.6663 16.1738H29.4897V20.2173H37.6663V16.1738Z" fill="white"/>
<path id="Vector_4" d="M41.7542 8.0874H37.666V16.1744H41.7542V8.0874Z" fill="white"/>
</g>
<path id="Vector_5" d="M83.9996 20.2174H79.9114V16.1738H41.7544V20.2174H37.666V33.6956H41.7544V37.7391H48.5681V41.7825V45.8261H56.7445V41.7825H64.9211V37.7391H79.9114V33.6956H83.9996V20.2174Z" fill="#A5EEFD"/>
<path id="Vector_6" d="M25.4017 4.04346H21.3135V57.9565H25.4017V4.04346Z" fill="black"/>
<path id="Vector_7" d="M60.8329 0H25.4014V4.04344H60.8329V0Z" fill="black"/>
<path id="Vector_8" d="M60.8329 57.9565H25.4014V62H60.8329V57.9565Z" fill="black"/>
<path id="Vector_9" d="M45.8436 49.8696H40.3926V53.9131H45.8436V49.8696Z" fill="black"/>
<path id="Vector_10" d="M60.833 33.6953V37.7388H56.7446V41.7822H60.833V57.9562H64.9212V37.7388H79.9115V33.6953H60.833Z" fill="black"/>
<path id="Vector_11" d="M41.7542 20.2173H37.666V33.6955H41.7542V20.2173Z" fill="black"/>
<path id="Vector_12" d="M56.7447 16.1739V8.08702H29.4897V45.8261H56.7447V41.7826H52.6565V33.6957H41.7545V37.7391H48.5683V41.7826H33.578V12.1305H52.6565V16.1739H41.7545V20.2175H79.9115V16.1739H64.9212V4.04346H60.833V16.1739H56.7447Z" fill="black"/>
<path id="Vector_13" d="M84.0003 20.2173H79.9121V33.6955H84.0003V20.2173Z" fill="black"/>
</g>
<defs>
<clipPath id="clip0_889_23402">
<rect width="84" height="62" fill="white"/>
</clipPath>
</defs>
</svg>
