<svg width="18" height="13" viewBox="0 0 18 13" fill="none" xmlns="http://www.w3.org/2000/svg">
<g id="corporate logo">
<g id="Union">
<path d="M11.7076 5.03635C11.7083 5.00962 11.7087 4.9828 11.7087 4.95588C11.7087 3.46959 10.5156 2.26471 9.04369 2.26471C7.58647 2.26471 6.40242 3.44572 6.37899 4.91159L6.37864 4.92279V6.14706C6.37864 6.24452 6.3004 6.32353 6.20388 6.32353H3.84466C2.68647 6.32353 1.74757 7.27163 1.74757 8.44118V8.61765C1.74757 9.78719 2.68647 10.7353 3.84466 10.7353H4.25382C4.43918 10.7353 4.61696 10.6609 4.74804 10.5286L6.17404 9.08881C6.30482 8.9566 6.37836 8.77741 6.37851 8.59054L6.37864 7.82353C6.37864 7.72607 6.45688 7.64706 6.5534 7.64706H7.95146C8.04797 7.64706 8.12621 7.72607 8.12621 7.82353V9.23529C8.12621 9.33276 8.04797 9.41177 7.95146 9.41177H7.13212C6.94673 9.41177 6.76892 9.48613 6.63783 9.61851L5.18532 11.0853C5.05423 11.2176 4.98058 11.3972 4.98058 11.5844V12.3235C4.98058 12.421 4.90234 12.5 4.80583 12.5H3.84466C1.72131 12.5 0 10.7618 0 8.61765V8.44118C0 6.29701 1.72131 4.55882 3.84466 4.55882H4.48834C4.5789 4.55882 4.6541 4.48872 4.66532 4.39798C4.93715 2.20039 6.79378 0.5 9.04369 0.5C11.4807 0.5 13.4563 2.49497 13.4563 4.95588C13.4563 4.98276 13.4561 5.00958 13.4556 5.03635C13.4206 7.03283 12.0853 8.72934 10.2684 9.26304C10.1451 9.29926 10.0306 9.3626 9.9398 9.4543L8.33095 11.0789C8.19986 11.2113 8.12621 11.3908 8.12621 11.5781V12.3235C8.12621 12.421 8.04797 12.5 7.95146 12.5H6.5534C6.45688 12.5 6.37864 12.421 6.37864 12.3235V10.9118C6.37864 10.8143 6.45688 10.7353 6.5534 10.7353H7.39312C7.57852 10.7353 7.75632 10.6609 7.88741 10.5285L9.31953 9.08239C9.45062 8.95001 9.52427 8.77046 9.52427 8.58325V7.77678C9.52427 7.69151 9.58489 7.61906 9.66697 7.59906C10.8133 7.31978 11.6717 6.27022 11.7076 5.03635Z" fill="#71717A"/>
<path d="M16.2524 8.44118C16.2524 7.33104 15.4065 6.42042 14.33 6.33077C14.2339 6.32276 14.1553 6.24452 14.1553 6.14706V4.73529C14.1553 4.63783 14.2338 4.55841 14.3302 4.56277C16.3724 4.65506 18 6.35618 18 8.44118V8.61765C18 10.7618 16.2787 12.5 14.1553 12.5H9.69903C9.60251 12.5 9.52427 12.421 9.52427 12.3235V10.9118C9.52427 10.8143 9.60251 10.7353 9.69903 10.7353H14.1553C15.3135 10.7353 16.2524 9.78719 16.2524 8.61765V8.44118Z" fill="#71717A"/>
<path d="M4.98058 7.82353C4.98058 7.72607 4.90234 7.64706 4.80583 7.64706H3.40777C3.31125 7.64706 3.23301 7.72607 3.23301 7.82353V9.23529C3.23301 9.33276 3.31125 9.41177 3.40777 9.41177H4.80583C4.90234 9.41177 4.98058 9.33276 4.98058 9.23529V7.82353Z" fill="#71717A"/>
</g>
</g>
</svg>
