<svg width="40" height="24" viewBox="0 0 40 24" fill="none"
    xmlns="http://www.w3.org/2000/svg">
    <path d="M6.59895 15.4874C6.47088 15.5311 1.13223 17.1649 1.13223 17.1649C1.13223 17.1649 0.772986 15.5061 1.10099 13.8192C1.44774 12.0324 1.90069 10.9703 1.90069 10.9703C1.90069 10.9703 2.39426 9.76762 3.92182 8.78049C5.20572 7.94955 8.14838 7.06862 8.82625 6.63753C9.27609 6.35326 10.0352 5.84095 11.1879 4.57267C12.3406 3.30439 13.2527 1.97676 15.2895 1.03336C17.3262 0.0899581 18.3883 0.236778 20.6 0.0899579C22.8117 -0.0568627 25.2014 0.00249028 27.0039 0.0899579C28.8063 0.177425 30.2183 1.00524 30.6932 1.29889C31.1649 1.59253 32.3457 2.5984 32.9642 3.24504C33.5827 3.8948 34.3199 4.86631 34.8822 5.34114C35.4414 5.81284 36.3286 6.37513 37.0939 6.81559C37.8624 7.25918 38.3341 7.64029 38.4809 8.02452C38.6277 8.40875 38.6246 8.4275 38.6246 8.4275L38.0967 13.8942L6.59895 15.4874Z" fill="white"/>
    <path d="M1.13184 17.1649C1.13184 17.1649 1.94091 15.703 3.85583 14.1723C5.48647 12.8696 6.95468 12.1449 9.23508 11.8107C11.2437 11.517 15.2703 11.6107 21.9835 11.642C28.6966 11.6701 33.473 11.6795 34.0853 11.6513C34.6975 11.6232 35.5097 11.0984 36.475 10.4861C37.4371 9.87387 37.8214 10.7735 37.8214 10.7735L38.9022 13.9536C38.9022 13.9536 38.9428 17.621 38.8741 18.5082C38.8272 19.0955 38.0275 20.1138 37.6183 20.2888C37.2091 20.4637 29.8243 20.5793 27.6376 20.5793C25.4478 20.5793 6.78287 20.5231 4.90231 20.3762C4.02764 20.3075 2.85932 19.8514 2.30328 19.2954C1.27866 18.2739 1.13184 17.1649 1.13184 17.1649Z" fill="white"/>
    <path d="M2.3728 10.9642C2.3728 10.9642 4.86875 10.6519 5.04681 10.7768C5.2686 10.933 4.28771 12.623 4.02843 12.9635C3.90036 13.1322 1.70117 14.1943 1.70117 14.1943L1.70742 12.6667L2.3728 10.9642Z" fill="#FFFEFF"/>
    <path d="M0.994142 14.5692L1.96253 14.0632C1.96253 14.0632 2.13434 13.0979 2.24056 12.6387C2.41237 11.8796 2.83409 10.9019 2.83409 10.9019L1.88756 10.9893C1.88756 10.9893 1.5783 11.5173 1.29403 12.7012C0.991018 13.9788 0.994142 14.5692 0.994142 14.5692Z" fill="#CECFD1"/>
    <path d="M10.0829 9.11162C10.1517 9.78637 10.8983 9.77075 13.0318 9.77075C14.7343 9.77075 31.8999 9.93007 32.3091 9.74889C32.509 9.66142 32.7839 9.28968 33.1244 8.79612C33.6367 8.05889 33.8741 7.70902 33.8273 7.43412C33.7367 6.89682 30.9471 3.37625 29.2009 2.33289C27.9919 1.61128 25.3898 1.60816 23.2374 1.58316C21.2882 1.5613 17.5895 1.51444 15.8214 2.64839C13.188 4.33839 9.99235 8.22758 10.0829 9.11162Z" fill="#CECFD1"/>
    <path d="M12.397 8.43434C12.5344 8.60615 15.249 8.55617 17.7731 8.5468C20.3565 8.53743 22.7869 8.66238 22.8681 8.5468C22.9056 8.49369 23.0336 3.02072 22.9274 2.92388C22.8493 2.85203 22.1808 2.90201 21.3311 2.91139C19.9129 2.927 17.8481 3.1488 16.5485 3.87665C14.315 5.12307 12.1252 8.09384 12.397 8.43434Z" fill="#E2E2E2"/>
    <path d="M24.4838 3.02355C24.4619 3.06416 24.4213 8.59024 24.4557 8.6121C24.6369 8.72456 31.5562 8.63709 31.6249 8.5465C31.6936 8.45591 32.4402 7.73118 32.4183 7.55C32.3965 7.36881 30.063 4.48551 28.4604 3.50775C27.7576 3.07353 24.5213 2.96107 24.4838 3.02355Z" fill="#E2E2E2"/>
    <path d="M11.7218 10.4928C11.9248 11.0301 13.0025 11.2644 13.696 11.2019C14.7207 11.1082 15.336 10.5116 15.4454 9.28388C15.5735 7.87503 14.9299 7.22839 14.4832 7.14405C14.0084 7.05346 11.703 9.50568 11.703 9.50568C11.703 9.50568 11.5531 10.0461 11.7218 10.4928Z" fill="#E2E2E2"/>
    <path d="M13.1932 10.1926C13.9523 10.1113 14.4959 9.4116 14.7583 8.85243C15.0175 8.29326 15.2112 7.44982 14.6271 7.19367C13.9023 6.87816 13.2494 7.2499 12.8027 7.75284C12.4091 8.19642 11.6469 9.20542 11.7031 9.50219C11.7594 9.80208 12.1499 10.305 13.1932 10.1926Z" fill="#F2F2F2"/>
    <path d="M5.64902 19.664C5.67714 21.3883 7.05163 23.8686 10.0443 23.8874C13.0369 23.9061 14.5895 21.6132 14.4957 19.2641C14.3989 16.8775 12.5433 15.1906 9.87246 15.2656C7.37339 15.3406 5.61154 17.2773 5.64902 19.664Z" fill="#BBBBBB"/>
    <path d="M7.73279 19.5208C7.74841 20.4298 8.48564 21.7387 10.0944 21.7481C11.7032 21.7575 12.481 20.6173 12.4311 19.3802C12.3779 18.1213 11.3502 17.1842 10.0007 17.2029C8.65745 17.2248 7.71093 18.2619 7.73279 19.5208Z" fill="white"/>
    <path d="M27.7408 19.8072C27.7689 21.519 29.1122 23.9806 32.0424 23.9994C34.9725 24.0181 36.4907 21.7439 36.4001 19.4136C36.3064 17.0426 34.4915 15.3713 31.8768 15.4463C29.4308 15.5181 27.7033 17.4393 27.7408 19.8072Z" fill="#BBBBBB"/>
    <path d="M29.6966 19.6731C29.7122 20.5822 30.4494 21.8911 32.0582 21.9004C33.667 21.9098 34.4448 20.7696 34.3948 19.5326C34.3417 18.2737 33.314 17.3365 31.9645 17.3553C30.6243 17.3771 29.6778 18.4142 29.6966 19.6731Z" fill="white"/>
    <path d="M37.9654 8.98022C37.8748 9.1083 36.3066 10.4016 36.3066 10.6015C36.3066 10.8014 38.0935 13.3848 38.0935 13.3848L38.5121 13.6379C38.5121 13.6379 38.712 10.3641 38.712 10.2922C38.712 10.2266 37.9654 8.98022 37.9654 8.98022Z" fill="#FFFEFF"/>
    <path d="M38.9065 14.4346C38.9065 14.4346 39.0533 12.0824 39.0346 10.811C39.0158 9.42711 38.6222 8.41187 38.6222 8.41187L37.96 8.98978C37.96 8.98978 38.1849 10.2143 38.1849 11.0172C38.1849 11.82 38.0943 13.385 38.0943 13.385L38.9065 14.4346Z" fill="#CECFD1"/>
</svg>
