<svg width="68" height="68" viewBox="0 0 68 68" fill="none" xmlns="http://www.w3.org/2000/svg">
<g clip-path="url(#clip0_1330_8767)">
<path d="M0 22.4C0 14.5593 0 10.6389 1.52591 7.64413C2.86814 5.00986 5.00986 2.86814 7.64413 1.52591C10.6389 0 14.5593 0 22.4 0H45.6C53.4407 0 57.3611 0 60.3559 1.52591C62.9901 2.86814 65.1319 5.00986 66.4741 7.64413C68 10.6389 68 14.5593 68 22.4V45.6C68 53.4407 68 57.3611 66.4741 60.3559C65.1319 62.9901 62.9901 65.1319 60.3559 66.4741C57.3611 68 53.4407 68 45.6 68H22.4C14.5593 68 10.6389 68 7.64413 66.4741C5.00986 65.1319 2.86814 62.9901 1.52591 60.3559C0 57.3611 0 53.4407 0 45.6V22.4Z" fill="#FAFAFA"/>
<g opacity="0.1" clip-path="url(#clip1_1330_8767)">
<path d="M18.2122 63.274C9.06687 58.2589 2.54445 49.0223 1.23982 38.1709C1.02579 36.8545 1 35.4838 1 34.1536C1 15.8434 15.7746 1 34 1C33.4057 3.75192 28.9925 4.68005 28.9925 4.68005C29.1214 5.08924 29.2054 5.51983 29.2383 5.96648C29.2616 6.28144 28.8714 6.41558 28.6365 6.20563C27.7157 5.38252 26.7392 5.14508 25.7632 4.90774C25.0175 4.72641 23.81 4.48342 23.0898 4.0411C21.5517 4.58078 21.029 5.78055 20.0119 6.95576C19.3284 7.74555 18.6303 8.5521 17.7401 9.20512C17.8472 9.67186 17.8932 10.1609 17.8696 10.6629C17.8299 11.5052 17.5985 12.2928 17.2198 12.9851C17.1391 13.1327 16.9653 13.1971 16.8033 13.1538C16.1693 12.9844 15.5078 12.8796 14.8258 12.8472C13.2954 12.7745 8.95109 13.1452 8.81134 15.1607C8.77906 15.6264 8.7269 16.0958 8.65414 16.5674C8.58853 16.993 8.50747 17.4116 8.41182 17.8226C9.74427 16.4181 11.4385 15.5054 13.2488 15.2966C13.4882 15.269 13.6761 15.4878 13.6195 15.7232C13.0596 18.051 11.7936 20.0056 10.1533 21.3004C8.95545 22.2459 7.80896 23.032 6.65548 23.8228L6.65516 23.823C3.59974 25.9178 2.79207 28.3513 2.48453 30.9381C3.44971 29.1066 4.86277 27.5553 6.57208 26.426C6.77642 26.291 7.0488 26.3988 7.10456 26.6381C7.30748 27.5086 7.39978 28.4203 7.36628 29.3567C7.31147 30.8877 6.92595 32.3283 6.28124 33.6119C6.96178 33.9546 7.59819 34.371 8.18054 34.8503C8.35307 34.9923 8.35134 35.2548 8.18751 35.4068C4.36879 38.9506 3.21168 43.2611 5.41908 47.8889C4.99312 45.5194 5.28118 43.0781 6.45363 40.9335C6.65229 40.5701 6.8677 40.2219 7.09838 39.8893C7.25203 39.6677 7.57973 39.6948 7.69787 39.9374C8.40972 41.3994 8.87877 42.9708 9.08551 44.5841C9.70063 44.4237 10.3439 44.332 11.0068 44.3178C11.376 44.3099 11.1239 44.6298 10.635 45.2502C7.84534 48.7899 7.15094 51.6067 10.0136 54.9382C9.92083 54.6703 9.76134 53.0072 9.81949 51.7472C9.84691 51.1533 9.92271 50.6489 10.0767 50.4226C10.1523 50.3113 10.2469 50.2673 10.3639 50.3127C12.0489 50.9677 13.8528 52.488 14.9386 53.9757C15.4645 54.6963 15.8176 55.4907 16.0043 56.3034C17.1708 55.7621 18.7361 55.9625 19.1431 57.2885C19.3908 58.0956 18.971 58.9214 18.2054 59.1328C17.612 59.2967 16.9851 59.0436 16.6178 58.5456C15.3087 61.9121 19.4308 61.127 18.2122 63.274Z" fill="#99A1B7"/>
<path d="M49.7878 63.274C58.9331 58.2589 65.4556 49.0222 66.7602 38.1709C66.9742 36.8545 67 35.4838 67 34.1536C67 15.8434 52.2254 1 34 1C34.5943 3.75192 39.0075 4.68005 39.0075 4.68005C38.8786 5.08924 38.7946 5.51983 38.7617 5.96648C38.7384 6.28144 39.1286 6.41558 39.3635 6.20563C40.2843 5.38252 41.2608 5.14508 42.2368 4.90774C42.9825 4.72641 44.19 4.48342 44.9102 4.0411C46.4483 4.58078 46.971 5.78055 47.9881 6.95576C48.6716 7.74555 49.3697 8.5521 50.2599 9.20512C50.1528 9.67186 50.1068 10.1609 50.1304 10.6629C50.1701 11.5052 50.4015 12.2928 50.7802 12.9851C50.8609 13.1327 51.0347 13.1971 51.1967 13.1538C51.8307 12.9844 52.4922 12.8796 53.1742 12.8472C54.7046 12.7745 59.0489 13.1452 59.1887 15.1607C59.2209 15.6264 59.2731 16.0958 59.3459 16.5674C59.4115 16.993 59.4925 17.4115 59.5882 17.8226C58.2557 16.4181 56.5615 15.5054 54.7512 15.2966C54.5118 15.269 54.3239 15.4878 54.3805 15.7232C54.9404 18.051 56.2064 20.0056 57.8467 21.3004C59.0446 22.2459 60.191 23.032 61.3445 23.8228L61.3448 23.823C64.4003 25.9178 65.2079 28.3513 65.5155 30.9381C64.5503 29.1066 63.1372 27.5553 61.4279 26.426C61.2236 26.291 60.9512 26.3988 60.8954 26.6381C60.6925 27.5086 60.6002 28.4203 60.6337 29.3567C60.6885 30.8877 61.074 32.3283 61.7188 33.6119C61.0382 33.9546 60.4018 34.371 59.8195 34.8503C59.6469 34.9923 59.6487 35.2548 59.8125 35.4068C63.6312 38.9506 64.7883 43.2611 62.5809 47.8888C63.0069 45.5194 62.7188 43.0781 61.5464 40.9335C61.3477 40.5701 61.1323 40.2219 60.9016 39.8893C60.748 39.6677 60.4203 39.6948 60.3021 39.9374C59.5903 41.3994 59.1212 42.9708 58.9145 44.5841C58.2994 44.4237 57.6561 44.332 56.9932 44.3178C56.624 44.3099 56.8761 44.6298 57.365 45.2501C60.1547 48.7899 60.8491 51.6067 57.9864 54.9382C58.0792 54.6703 58.2387 53.0072 58.1805 51.7472C58.1531 51.1533 58.0773 50.6489 57.9233 50.4226C57.8477 50.3113 57.7531 50.2673 57.6361 50.3127C55.9511 50.9677 54.1472 52.488 53.0614 53.9757C52.5355 54.6963 52.1824 55.4907 51.9957 56.3034C50.8292 55.7621 49.2639 55.9625 48.8569 57.2885C48.6092 58.0956 49.029 58.9214 49.7946 59.1328C50.388 59.2967 51.0149 59.0436 51.3822 58.5456C52.6913 61.9121 48.5692 61.127 49.7878 63.274Z" fill="#99A1B7"/>
<path fill-rule="evenodd" clip-rule="evenodd" d="M21.2883 54.8993C21.2883 58.1327 20.4918 61.1794 19.0851 63.852C22.0482 65.3609 25.2682 66.4331 28.6614 66.9848C26.715 65.8173 25.1833 64.0227 24.3416 61.878C24.216 61.5581 24.6079 61.3165 24.8687 61.5389C27.293 63.6064 30.4303 64.8533 33.8571 64.8533C37.3876 64.8533 40.6109 63.5298 43.0636 61.3489C43.3197 61.1211 43.7165 61.3545 43.5976 61.677C42.7708 63.9197 41.1951 65.7965 39.1762 66.9998C42.5984 66.4535 45.8453 65.3779 48.8317 63.859C47.4336 61.191 46.6423 58.1518 46.6423 54.9269V53.7239C46.6423 53.3313 46.7339 53.0126 46.8902 52.7417C47.1772 52.2445 47.6553 51.9321 48.1321 51.6206L48.1325 51.6203C48.3966 51.4478 48.6603 51.2755 48.8907 51.0723C49.1924 50.8062 49.4669 50.5086 49.7092 50.1852C50.1136 49.6456 50.3201 49.0029 50.526 48.3621C50.772 47.5964 51.0172 46.8334 51.598 46.2518C51.8875 45.9619 52.2376 45.7599 52.5876 45.558C52.9738 45.3351 53.36 45.1123 53.6643 44.7715C53.9459 44.4562 54.178 44.0952 54.3484 43.7011C54.5554 43.2225 54.6721 42.7247 54.7889 42.2269L54.789 42.2265C54.9347 41.6052 55.0805 40.9837 55.4017 40.3991C56.403 38.8535 56.8235 36.9579 56.6042 35.1293C56.5656 34.8077 56.4814 34.4951 56.3972 34.1826L56.397 34.182L56.3969 34.1817C56.2828 33.7582 56.1688 33.3353 56.1688 32.8913C56.1688 32.1943 56.3797 31.5264 56.5929 30.8515C56.8104 30.1625 57.0303 29.4664 57.0303 28.7248C57.0303 27.0314 56.4996 25.4627 55.5965 24.178C55.3434 23.818 55.0412 23.504 54.7396 23.1907L54.7391 23.1902C54.3648 22.8014 53.9915 22.4136 53.7139 21.94C53.4027 21.4089 53.2877 20.849 53.1722 20.2872L53.172 20.2866L53.1716 20.2856C53.0881 19.8792 53.0044 19.472 52.8461 19.0739C52.67 18.6308 52.4169 18.2271 52.1037 17.8797C51.6332 17.3579 51.0394 17.065 50.4426 16.7706C49.9188 16.5122 49.3927 16.2527 48.9459 15.8362C48.443 15.3675 48.0383 14.7937 47.7662 14.1495C47.3414 13.4242 46.6941 12.8466 45.9188 12.5118C45.6012 12.3747 45.2616 12.3087 44.9211 12.2424C44.6014 12.1803 44.2809 12.118 43.9771 11.9965C43.5938 11.8432 43.2342 11.6222 42.8745 11.401L42.8742 11.4008C42.5699 11.2137 42.2656 11.0266 41.9466 10.8804C40.9584 10.4272 39.86 10.1748 38.7031 10.1748C37.86 10.1748 37.048 10.3089 36.2871 10.557C35.4142 10.9353 34.6793 11.0421 34.0162 11.0421L33.9905 11.0421L33.9653 11.0419V11.0414L33.9306 11.0416L33.9144 11.0416C33.2513 11.0416 32.5164 10.9349 31.6436 10.5567C30.8826 10.3088 30.0706 10.1748 29.2275 10.1748C28.0706 10.1748 26.9723 10.4271 25.984 10.8799C25.6651 11.0261 25.3607 11.2131 25.0564 11.4001L25.0561 11.4003C24.6964 11.6213 24.3369 11.8422 23.9535 11.9954C23.6497 12.1168 23.3293 12.1791 23.0094 12.2412L23.0091 12.2413C22.6688 12.3074 22.3294 12.3734 22.0119 12.5104C21.2365 12.845 20.5892 13.4222 20.1644 14.147C19.8923 14.7909 19.4876 15.3643 18.9847 15.8327C18.538 16.2489 18.0119 16.5083 17.4878 16.7666C16.8912 17.0607 16.2974 17.3534 15.827 17.8749C15.5137 18.2221 15.2606 18.6255 15.0845 19.0684C14.9262 19.4664 14.8424 19.8735 14.7589 20.2796L14.7588 20.2801C14.6432 20.8419 14.528 21.4017 14.2167 21.9327C13.9392 22.4059 13.566 22.7934 13.1918 23.1819L13.1916 23.1821L13.1911 23.1827C12.8895 23.4958 12.5873 23.8096 12.3342 24.1694C11.4311 25.4533 10.9004 27.021 10.9004 28.7134C10.9004 29.4544 11.1202 30.1501 11.3378 30.8388C11.5509 31.5132 11.7618 32.1807 11.7618 32.8773C11.7618 33.3209 11.6479 33.7436 11.5338 34.1668L11.5336 34.1672L11.5335 34.1678C11.4493 34.48 11.365 34.7925 11.3265 35.1139C11.1072 36.9414 11.5277 38.8358 12.5289 40.3804C12.8501 40.9646 12.9959 41.5857 13.1416 42.2067C13.2584 42.7044 13.3752 43.2019 13.5822 43.6804C13.7526 44.0743 13.9848 44.435 14.2663 44.7501C14.5706 45.0907 14.9568 45.3134 15.3432 45.5361C15.6931 45.7379 16.0431 45.9398 16.3326 46.2295C16.9134 46.8107 17.1586 47.5733 17.4046 48.3386C17.6106 48.979 17.8171 49.6212 18.2214 50.1605C18.4638 50.4837 18.7382 50.7811 19.0399 51.047C19.2703 51.2501 19.534 51.4223 19.7981 51.5947L19.7985 51.595C20.2753 51.9063 20.7534 52.2185 21.0404 52.7154C21.1968 52.9862 21.2883 53.3047 21.2883 53.697V54.8993ZM45.1711 27.9503C45.1512 27.9688 45.1309 27.9871 45.1103 28.005C45.0768 28.0341 45.0424 28.0624 45.0071 28.0901C44.4922 28.8069 43.6543 29.2733 42.7082 29.2733C39.27 29.2733 36.1056 31.3067 36.1056 35.1464C36.1056 35.4597 36.1075 35.7684 36.1093 36.0749C36.1146 36.9677 36.1197 37.8411 36.0792 38.7517C36.0528 39.3452 37.6198 40.3994 37.7238 39.0439L37.7255 39.044L37.7607 38.4151H37.7643C37.8077 38.1149 37.8482 37.7307 37.883 37.354C37.922 36.9318 38.3477 36.66 38.7341 36.829C38.8967 36.9002 39.0509 36.9702 39.1989 37.0379L39.3391 37.1023L39.3395 37.1025L39.3399 37.1027C40.2228 37.5083 40.9045 37.8216 41.9247 37.8216C43.3554 37.8216 44.6664 37.4816 45.8057 36.7885C45.8436 36.7654 45.8918 36.7678 45.9262 36.7959C46.7911 37.5038 47.4268 38.646 47.4268 39.8501C47.4268 43.7962 42.268 42.1976 42.268 49.6829C42.268 53.2814 41.7162 56.553 38.0939 58.3826C37.4016 58.7324 36.6094 58.7871 35.8394 58.7014L35.7545 58.6919C35.1275 58.629 34.5984 58.2318 34.3457 57.6799C34.3 57.5803 34.2208 57.4976 34.117 57.464C33.4146 57.2361 32.6851 57.0689 31.9346 56.9685C31.4688 56.9063 31.1339 56.4691 31.2047 56.0017L31.2134 55.9434L31.2191 55.905L31.2252 55.8631L31.2371 55.7791C31.2412 55.7497 31.2452 55.7204 31.2492 55.691C31.322 55.1508 31.8644 54.7952 32.3958 54.9011C32.8895 54.9994 33.4 55.051 33.9224 55.051C35.3842 55.051 36.7524 54.6472 37.9226 53.9445C38.0576 53.8635 38.052 53.6688 37.9125 53.5958C36.8344 53.0314 35.6091 52.7124 34.3097 52.7124C33.7571 52.7124 33.3021 52.7982 32.8175 52.8895C32.4701 52.955 32.1077 53.0233 31.6834 53.0648C31.5443 53.0785 31.4135 52.9948 31.3725 52.8603C31.2818 52.5625 31.2327 52.2708 31.2001 51.9842C31.1529 51.5689 31.5005 51.2152 31.9155 51.2349L36.3433 51.4457L37.9279 51.4102C37.9502 51.4075 37.975 51.4046 38.0019 51.4015L38.0036 51.4013C38.4066 51.3547 39.2609 51.2558 38.9139 50.6839L38.9136 50.6836C38.7749 50.4557 38.5267 50.2434 38.296 50.046L38.2953 50.0455C38.192 49.9571 38.092 49.8715 38.0072 49.7892C37.4856 49.2824 36.984 48.9742 36.2113 48.9742C35.7745 48.9742 35.395 49.133 35.02 49.29C34.6543 49.4431 34.2929 49.5943 33.8872 49.5943C33.5138 49.5943 33.3703 49.4738 33.1301 49.2231C32.6768 48.75 33.2769 48.1869 33.9127 48.0364C33.9839 48.0195 34.0546 48.001 34.1249 47.9807C35.2351 47.6601 36.1729 46.9289 36.7654 45.9609C36.9675 45.6306 36.6904 45.2444 36.3077 45.1976C35.6766 45.1203 35.2088 44.9067 34.7174 44.6822C34.0503 44.3776 33.3396 44.053 32.1177 44.0224C32.2782 42.5001 32.3906 40.7597 32.3906 39.1946C32.3906 37.5225 32.2967 35.8724 32.1137 34.2495C31.6445 31.0136 28.7255 29.3085 25.5768 29.3085C23.9061 29.3535 23.2262 28.6886 22.6234 28.099C22.1558 27.6416 21.7346 27.2296 20.9331 27.2296C20.2836 27.2296 19.8007 27.4999 19.344 27.8262C19.2343 27.9045 19.1267 27.9856 19.0191 28.0667C18.8511 28.1933 18.6832 28.3198 18.5076 28.4358C18.3243 28.5569 18.1322 28.6671 17.9234 28.7541C16.6738 29.2751 15.1967 29.0537 14.1512 28.1861C14.052 28.1038 14.0407 27.9556 14.1315 27.8639C14.2073 27.7874 14.2892 27.7168 14.3763 27.6531C14.6979 27.4179 15.122 27.4938 15.4959 27.6295C15.8884 27.772 16.3117 27.8496 16.753 27.8496C17.7725 27.8496 18.5079 27.2829 19.2315 26.7251C19.9325 26.1848 20.6225 25.653 21.5492 25.653C22.0301 25.653 22.4 25.8524 22.7631 26.0481C22.8853 26.114 23.0067 26.1794 23.1314 26.2367C23.3832 26.3525 23.5817 26.0892 23.4504 25.8437C23.1233 25.2319 22.7169 24.6277 22.0948 24.3494C21.7104 24.1775 21.2746 24.1059 20.8252 24.1637C20.4304 24.2144 20.0707 24.3592 19.766 24.5725C19.5412 24.7298 19.335 24.8863 19.1379 25.0359L19.1364 25.0371C18.3034 25.6695 17.6304 26.1803 16.3833 26.1262C16.1032 26.114 14.7201 25.6176 14.882 25.4234C15.206 25.0959 15.7515 25.1672 16.2678 25.2346C16.5453 25.2709 16.8144 25.3061 17.036 25.2776C17.7078 25.1912 18.1129 24.7135 18.5205 24.233L18.5263 24.2262C18.5534 24.1942 18.5806 24.1621 18.6079 24.1302C18.6633 24.0654 18.7192 24.001 18.776 23.938C19.3964 23.2512 20.0571 22.8512 20.9984 22.7301C21.4715 22.6693 21.8702 22.8259 22.2738 22.9846C22.6241 23.1223 22.9783 23.2615 23.3884 23.2615C24.1892 23.2615 24.8389 22.8656 25.4567 22.4112C26.0599 21.9674 26.7398 21.6229 27.4726 21.4014C28.3308 21.142 29.0216 21.2237 29.7525 21.3101L29.753 21.3102C30.1336 21.3551 30.525 21.4014 30.9567 21.4014C31.7536 21.4014 32.4408 21.1178 33.1408 20.8289L33.1424 20.8283C33.4074 20.719 33.6742 20.6089 33.9495 20.5132C34.2165 20.606 34.4807 20.7139 34.7454 20.822L34.7461 20.8223C35.4602 21.1141 36.1774 21.4071 36.9595 21.4071C37.3916 21.4071 37.7834 21.3608 38.1643 21.3158C38.8953 21.2294 39.5864 21.1477 40.4449 21.4071C41.1779 21.6286 41.858 21.9732 42.4615 22.417C43.0795 22.8715 43.7294 23.2674 44.5305 23.2674C44.9407 23.2674 45.295 23.1282 45.6454 22.9905C46.0493 22.8318 46.448 22.6751 46.9213 22.736C47.863 22.857 48.5239 23.2571 49.1445 23.9439C49.1944 23.9991 49.2434 24.0554 49.2921 24.1121C49.3282 24.1543 49.3642 24.1967 49.4001 24.239C49.8078 24.7196 50.2131 25.1973 50.8852 25.2837C51.1068 25.3122 51.376 25.277 51.6536 25.2407C52.17 25.1732 52.7158 25.1019 53.0399 25.4295C53.2018 25.6237 51.8183 26.1202 51.538 26.1323C50.2905 26.1865 49.6173 25.6756 48.784 25.0431C48.5863 24.8931 48.3796 24.7363 48.1542 24.5785C47.8494 24.3652 47.4895 24.2204 47.0945 24.1696C46.645 24.1118 46.2091 24.1835 45.8246 24.3554C45.2022 24.6337 44.7957 25.2379 44.4685 25.8499C44.3372 26.0953 44.5357 26.3587 44.7876 26.2429C44.8376 26.22 44.887 26.1957 44.9361 26.1707C45.0097 26.1331 45.0827 26.0938 45.156 26.0543C45.5192 25.8585 45.8892 25.6591 46.3704 25.6591C47.2974 25.6591 47.9876 26.191 48.6888 26.7313C49.4127 27.2891 50.1484 27.856 51.1683 27.856C51.6097 27.856 52.0331 27.7783 52.4257 27.6358C52.7997 27.5001 53.2241 27.4242 53.5457 27.6594C53.6329 27.7232 53.7147 27.7937 53.7907 27.8703C53.8815 27.9619 53.8702 28.1102 53.7709 28.1925C52.7251 29.0602 51.2474 29.2816 49.9974 28.7606C49.5866 28.5893 49.2405 28.3287 48.8986 28.0711L48.8981 28.0707C48.3387 27.6492 47.7901 27.2359 46.9866 27.2359C46.286 27.2359 45.6482 27.5068 45.1711 27.9503ZM48.6071 30.1203C48.9027 30.0549 49.224 30.1009 49.4968 30.2329C49.5954 30.2806 49.6821 30.3241 49.7199 30.3507C49.7697 30.3856 49.8191 30.4213 49.8683 30.4575C49.9239 30.4984 49.9792 30.5398 50.0345 30.5812C50.5382 30.9585 51.0388 31.3335 51.7131 31.2673C51.9355 31.2455 52.1901 31.151 52.4528 31.0535C52.9413 30.8721 53.4577 30.6805 53.8461 30.9273C54.0469 31.0804 52.8077 31.874 52.5371 31.9486C51.667 32.1885 51.0239 32.0736 50.3749 31.8292C49.7057 31.5771 49.0968 31.2339 48.4792 30.8774L48.3572 30.807C48.0779 30.6458 48.1423 30.2232 48.4568 30.1536L48.6071 30.1203ZM50.4616 37.0832C50.2985 36.9144 50.4203 36.646 50.6092 36.7304C51.3202 37.0482 52.0741 37.1682 52.8293 37.0475L52.8527 37.0437L52.8748 37.0399L52.8901 37.0373L52.9124 37.0333L52.9173 37.0323L52.9222 37.0314L52.9269 37.0306L52.9347 37.0291L52.9432 37.0275L52.9523 37.0257C53.1392 36.9893 53.2688 37.2898 53.1103 37.4179C52.8645 37.6166 52.5826 37.7494 52.2732 37.7989C51.6259 37.9023 50.9809 37.6212 50.4616 37.0832ZM49.2988 33.1982C49.6269 33.1044 50.0106 33.15 50.2889 33.3487L50.2971 33.3546L50.2999 33.3566L50.301 33.3574L50.3025 33.3586L50.3042 33.3599L50.3091 33.3636L50.3115 33.3655L50.3145 33.3678L50.3161 33.3691L50.3174 33.3702L50.3185 33.3711L50.3196 33.372L50.3207 33.3729L50.3215 33.3736L50.3276 33.3789L50.3433 33.3932L50.3506 33.3998L50.3674 33.4153L50.3933 33.4393L50.4194 33.4638L50.4454 33.4885C50.4669 33.5089 50.4883 33.5294 50.5097 33.5501L50.5697 33.6081L50.5702 33.6085C50.9586 33.9843 51.3447 34.3577 51.8647 34.2918C52.0362 34.2701 52.2325 34.176 52.4351 34.0789C52.8119 33.8983 53.2101 33.7074 53.5096 33.9532C53.6645 34.1057 52.7089 34.8962 52.5002 34.9704C51.8292 35.2094 51.3332 35.095 50.8327 34.8515C50.3167 34.6004 49.8471 34.2586 49.3708 33.9035L49.1947 33.7723C48.9792 33.6116 49.0408 33.272 49.2988 33.1982ZM19.3287 30.1138C19.0332 30.0483 18.712 30.0944 18.4393 30.2263C18.3406 30.274 18.254 30.3176 18.2162 30.3441C18.1102 30.4184 18.0059 30.4966 17.9018 30.5746C17.3983 30.9519 16.8978 31.3268 16.2237 31.2606C16.0014 31.2388 15.7469 31.1443 15.4843 31.0468C14.9959 30.8655 14.4798 30.6739 14.0915 30.9207C13.8907 31.0738 15.1295 31.8673 15.4 31.9419C16.2698 32.1818 16.9127 32.0669 17.5615 31.8224C18.2303 31.5704 18.8391 31.2273 19.4565 30.8708L19.5784 30.8004C19.8576 30.6392 19.7933 30.2166 19.4789 30.147L19.3287 30.1138ZM17.4748 37.076C17.6378 36.9071 17.516 36.6388 17.3272 36.7232C16.6165 37.041 15.8629 37.1609 15.1079 37.0403L15.0845 37.0365L15.0624 37.0327L15.0471 37.03L15.0248 37.026L15.0207 37.0253L15.0089 37.0231L14.9989 37.0212L14.985 37.0185C14.7981 36.9821 14.6686 37.2825 14.827 37.4107C15.0728 37.6093 15.3545 37.7421 15.6638 37.7916C16.3109 37.895 16.9557 37.6139 17.4748 37.076ZM18.6372 33.1914C18.3092 33.0976 17.9256 33.1432 17.6474 33.3418L17.6419 33.3458L17.6339 33.3517L17.6296 33.3549L17.6284 33.3558L17.6272 33.3568L17.6248 33.3586L17.6232 33.3599L17.6211 33.3616L17.6198 33.3626L17.6185 33.3637L17.618 33.3641L17.6164 33.3653L17.6148 33.3667L17.6087 33.372C17.5868 33.3919 17.5649 33.4121 17.5431 33.4325C17.5257 33.4487 17.5083 33.4651 17.491 33.4816C17.4493 33.5213 17.4077 33.5614 17.3662 33.6016C16.9779 33.9773 16.592 34.3508 16.0722 34.2849C15.9007 34.2632 15.7045 34.1691 15.502 34.0719C15.1253 33.8913 14.7273 33.7005 14.4278 33.9463C14.273 34.0988 15.2283 34.8891 15.4369 34.9634C16.1077 35.2023 16.6034 35.0879 17.1038 34.8444C17.6196 34.5935 18.0891 34.2516 18.5652 33.8966L18.7412 33.7654C18.9566 33.6047 18.8951 33.2651 18.6372 33.1914ZM23.1085 32.7933C22.8913 33.0122 23.1527 33.2917 23.4322 33.163C24.4843 32.6785 25.6542 32.4085 26.8869 32.4085C26.9139 32.4085 26.9408 32.4087 26.9676 32.4089C27.0078 32.4093 27.048 32.41 27.0881 32.4109C27.3949 32.4183 27.5257 32.0576 27.2412 31.9421C26.7999 31.7631 26.3179 31.6645 25.8129 31.6645C24.7564 31.6645 23.8001 32.096 23.1085 32.7933ZM24.5523 35.4057C24.3094 35.233 24.3094 34.8807 24.5523 34.7081C25.1145 34.3085 25.8007 34.0737 26.5413 34.0737C27.282 34.0737 27.9681 34.3085 28.5303 34.7081C28.7732 34.8807 28.7732 35.233 28.5303 35.4057C27.9681 35.8052 27.282 36.04 26.5413 36.04C25.8007 36.04 25.1145 35.8052 24.5523 35.4057ZM29.9813 37.8383C30.1863 37.3637 30.0302 36.657 29.5585 36.8633C29.4139 36.9266 29.2695 36.9917 29.1248 37.057C28.2436 37.4545 27.3539 37.8558 26.3679 37.8558C25.6001 37.8558 24.8668 37.7578 24.1759 37.5599C23.9856 37.5054 23.1201 37.1464 22.6585 36.953C22.4784 36.8776 22.27 36.9056 22.1289 37.0411C21.8214 37.3366 21.5516 37.6885 21.3412 38.077C21.0445 38.625 20.8658 39.2458 20.8658 39.8841C20.8658 41.917 22.6418 43.4253 24.1321 44.6412C24.321 44.7953 24.5906 44.8002 24.781 44.648C27.0254 42.8536 28.8237 40.5184 29.9813 37.8383ZM44.8681 33.1283C45.1476 33.257 45.409 32.9775 45.1918 32.7585C44.5002 32.0611 43.5439 31.6296 42.4874 31.6296C41.9825 31.6296 41.5004 31.7282 41.0592 31.9073C40.7746 32.0228 40.9054 32.3835 41.2122 32.3761C41.2461 32.3753 41.28 32.3747 41.314 32.3743C41.3337 32.3741 41.3535 32.3739 41.3732 32.3738L41.3971 32.3738L41.4134 32.3737C42.646 32.3737 43.816 32.6438 44.8681 33.1283ZM43.748 35.3712C43.9909 35.1985 43.9909 34.8462 43.748 34.6735C43.1858 34.2739 42.4996 34.0391 41.759 34.0391C41.0184 34.0391 40.3322 34.2739 39.77 34.6735C39.5271 34.8462 39.5271 35.1985 39.77 35.3712C40.3322 35.7709 41.0184 36.0056 41.759 36.0056C42.4996 36.0056 43.1858 35.7709 43.748 35.3712ZM33.3493 18.5716C33.8112 18.1934 34.121 18.1736 34.5991 18.5649C34.6718 18.6244 34.7423 18.68 34.8106 18.7319C35.9366 19.5877 36.4973 19.4449 37.378 19.2206C37.8987 19.0879 38.5312 18.9268 39.4586 18.9268C40.1263 18.9268 40.759 19.0776 41.3249 19.3473C41.8144 19.5805 42.2168 19.9202 42.614 20.2554C42.9283 20.5207 43.2392 20.7832 43.5874 20.9879C44.4753 21.51 45.3355 21.3085 46.2288 21.0992C46.4437 21.0489 46.6604 20.9981 46.8799 20.9568C47.0396 20.9268 47.2044 20.9111 47.3728 20.9111C48.0226 20.9111 48.618 21.1448 49.0807 21.5333C49.1276 21.5727 49.1718 21.612 49.2137 21.6512C49.2596 21.694 49.3027 21.7367 49.3436 21.7792C49.405 21.8429 49.4635 21.9093 49.5207 21.9767C49.5661 22.0303 49.6107 22.0847 49.6553 22.139L49.6559 22.1396L49.6563 22.1402C49.7747 22.2843 49.893 22.4284 50.0264 22.5587C50.1807 22.7093 50.3621 22.8473 50.6125 22.9671C51.3001 23.2962 51.8594 23.2268 52.4517 22.9826C52.6603 22.8966 52.6056 22.6003 52.3814 22.576L51.9682 22.5313C51.1866 22.4644 50.5012 22.0585 50.0577 21.4603C49.9984 21.3803 49.9397 21.2997 49.881 21.219C49.6074 20.8426 49.3326 20.4648 48.9886 20.1493C48.4017 19.7972 47.8457 19.7817 47.276 19.8404C47.1164 19.8569 46.9575 19.8786 46.7986 19.9004C46.7387 19.9086 46.6788 19.9168 46.6188 19.9248L46.5922 19.9283C46.4741 19.9437 46.3559 19.9578 46.2372 19.9685C46.093 19.9815 45.9465 19.9898 45.7971 19.9898C45.1905 19.9898 44.6237 19.8184 44.142 19.521C43.9211 19.3653 43.7209 19.2221 43.5372 19.09C43.4367 19.0177 43.3411 18.9487 43.2497 18.8827C42.1799 18.1105 41.6954 17.7608 40.7087 17.4657C39.8143 17.1982 38.9829 17.2972 38.127 17.3991C37.9925 17.4151 37.8582 17.4329 37.7238 17.4507L37.7232 17.4508C37.443 17.4879 37.1628 17.525 36.8808 17.546C36.6943 17.5599 36.6011 17.5668 36.5565 17.4918C36.5119 17.4168 36.5594 17.3414 36.6546 17.1907C36.8281 16.9159 37.061 16.6789 37.337 16.5112C38.1167 16.0374 39.3145 15.9454 40.2105 15.9623C40.8197 15.9738 41.3943 16.122 41.9059 16.377C42.0948 16.4711 42.2689 16.5827 42.4341 16.7038C42.6511 16.8629 42.8543 17.0406 43.0576 17.2183C43.2414 17.3789 43.4251 17.5396 43.6192 17.6866C43.7236 17.7657 43.8306 17.8405 43.9421 17.9087C44.8111 18.4405 45.3886 18.2981 46.1554 18.1091C46.3955 18.0499 46.6541 17.9861 46.9461 17.9371C47.1542 17.9021 47.3631 17.9076 47.5721 17.913C47.7641 17.9181 47.9562 17.9231 48.1474 17.8967C48.3794 17.8647 48.4217 17.5652 48.2349 17.423C47.8332 17.1172 47.4866 16.9046 46.9022 16.9733C46.6027 17.0086 46.2957 17.0447 45.9747 17.0386C45.4214 17.0282 44.9073 16.8624 44.4729 16.5835C44.4147 16.541 44.3581 16.4995 44.303 16.4589C44.2385 16.4114 44.1761 16.3652 44.1156 16.3203C43.9938 16.2299 43.8725 16.1388 43.7512 16.0478L43.7474 16.0449C43.5076 15.8648 43.2677 15.6848 43.024 15.5102C42.4567 15.1038 42.0443 14.8677 41.3757 14.6545C40.5644 14.3957 39.8042 14.4715 39.0217 14.5494C38.6011 14.5914 38.1739 14.6339 37.7289 14.6255C37.5432 14.622 37.2804 14.5948 37.0473 14.5659C36.8167 14.5373 36.7013 14.5229 36.6729 14.4389C36.6444 14.3549 36.7267 14.2729 36.8912 14.1091C36.9741 14.0265 37.0578 13.9462 37.1264 13.8864C37.6876 13.3979 38.3407 13.3185 39.056 13.2809C39.6934 13.2474 40.3031 13.3387 40.8534 13.5305C41.3508 13.7038 41.7899 13.9381 42.2143 14.1645C43.3102 14.7492 44.3039 15.0878 45.5385 14.7379C45.7219 14.6863 45.7738 14.4439 45.6248 14.3246C45.2576 14.0306 44.8561 13.8647 44.3933 13.7782C43.6556 13.6404 42.9694 13.2712 42.2812 12.901C41.6043 12.5369 40.9256 12.1718 40.1942 12.0249C39.3305 11.8514 38.5405 11.974 37.7274 12.1002C36.5215 12.2873 35.6651 12.6836 34.5815 13.2301C34.4814 13.2806 34.3753 13.3208 34.2646 13.3493C34.0346 13.4085 33.831 13.4052 33.6043 13.3339C33.5221 13.3081 33.4428 13.2758 33.3669 13.2375C32.2836 12.691 31.4275 12.2948 30.2221 12.1076C29.4092 11.9815 28.6196 11.8589 27.7561 12.0324C27.025 12.1793 26.3465 12.5443 25.6698 12.9085C24.9819 13.2786 24.296 13.6477 23.5585 13.7855C23.0959 13.872 22.6945 14.0378 22.3275 14.3318C22.1785 14.4511 22.2304 14.6935 22.4138 14.7451C23.6479 15.095 24.6412 14.7564 25.7367 14.1718C26.1609 13.9453 26.5999 13.7111 27.0972 13.5378C27.6473 13.3461 28.2567 13.2547 28.8939 13.2882C29.609 13.3258 30.2619 13.4052 30.8228 13.8937C30.853 13.92 30.886 13.9502 30.9206 13.9828C30.9648 14.0244 31.0115 14.07 31.0579 14.1163C31.2225 14.2801 31.3047 14.3621 31.2762 14.4461C31.2477 14.5302 31.1325 14.5445 30.9019 14.5731C30.669 14.602 30.4062 14.6292 30.2206 14.6327C29.7759 14.6411 29.3491 14.5986 28.9289 14.5567L28.9282 14.5567C28.146 14.4787 27.3861 14.4029 26.5751 14.6616C25.6803 14.9471 25.2444 15.2735 24.2819 15.9945L24.2794 15.9963C24.0477 16.1699 23.7854 16.3663 23.4789 16.5905C23.0447 16.8694 22.5308 17.0351 21.9776 17.0455C21.6568 17.0516 21.3499 17.0155 21.0505 16.9802C20.4663 16.9115 20.1199 17.1241 19.7182 17.4299C19.5315 17.572 19.5738 17.8715 19.8057 17.9035C19.9955 17.9297 20.1873 17.9229 20.3785 17.9161L20.3819 17.916C20.4189 17.9147 20.4559 17.9134 20.4929 17.9123C20.514 17.9117 20.5351 17.9112 20.5562 17.9108C20.7098 17.9079 20.8603 17.9193 21.0066 17.9439C21.2985 17.9929 21.557 18.0567 21.7971 18.1159C22.5635 18.3049 23.1409 18.4473 24.0096 17.9155C24.3235 17.7233 24.6026 17.4792 24.8846 17.2326L24.8849 17.2323C25.2414 16.9205 25.6026 16.6045 26.045 16.384C26.5565 16.129 27.1309 15.9809 27.7398 15.9694C28.6355 15.9525 29.833 16.0444 30.6123 16.5182C30.8882 16.6859 31.121 16.9228 31.2945 17.1976C31.3896 17.3483 31.4371 17.4237 31.3926 17.4986C31.348 17.5736 31.2548 17.5667 31.0684 17.5528C30.7863 17.5318 30.506 17.4947 30.2256 17.4576L30.1115 17.4425C30.0671 17.4366 30.0226 17.4309 29.9781 17.4252C29.9263 17.4186 29.8745 17.4121 29.8226 17.406C28.967 17.3041 28.1359 17.2051 27.2419 17.4725C26.2554 17.7676 25.7711 18.1172 24.7017 18.8894C24.4435 19.0758 24.1513 19.2868 23.8097 19.5276C23.3282 19.825 22.7616 19.9964 22.1552 19.9964C21.8036 19.9964 21.468 19.9504 21.1406 19.9054C20.6973 19.8446 20.269 19.7858 19.8358 19.8462C19.3081 19.9197 18.9293 20.1495 18.5915 20.5479C18.454 20.7101 18.3287 20.8849 18.2034 21.0599L18.2031 21.0602C18.0066 21.3346 17.8097 21.6095 17.5645 21.837C17.1419 22.2292 16.593 22.4857 15.9862 22.5376L15.5732 22.5823C15.3491 22.6066 15.2944 22.9028 15.5029 22.9888C15.8588 23.1356 16.2027 23.2192 16.5697 23.1911C16.9958 23.1585 17.4232 22.9811 17.7582 22.7147C17.9751 22.5421 18.1551 22.3294 18.3348 22.117C18.4423 21.9899 18.5497 21.863 18.6649 21.7448C18.8311 21.5743 19.0101 21.4179 19.2196 21.2927C19.6178 21.0544 20.0831 20.9176 20.58 20.9176C20.7484 20.9176 20.9131 20.9333 21.0728 20.9633C21.3323 21.0121 21.5876 21.0797 21.843 21.1473C22.0564 21.2038 22.2698 21.2603 22.4856 21.3058C23.0785 21.4309 23.6225 21.4306 24.3641 20.9944C24.7121 20.7897 25.023 20.5272 25.3372 20.262C25.7342 19.9268 26.1365 19.5871 26.6258 19.3539C27.1915 19.0843 27.824 18.9335 28.4915 18.9335C29.4185 18.9335 30.0508 19.0946 30.5714 19.2272C31.4745 19.4573 32.0411 19.6016 33.2267 18.6699C33.2468 18.6541 33.2671 18.638 33.2876 18.6216C33.308 18.6052 33.3285 18.5886 33.3493 18.5716Z" fill="#252F4A"/>
<path fill-rule="evenodd" clip-rule="evenodd" d="M45.1708 27.9508C45.1509 27.9693 45.1307 27.9875 45.11 28.0055C45.0766 28.0346 45.0422 28.0629 45.0069 28.0906C44.492 28.8074 43.6541 29.2738 42.708 29.2738C39.2697 29.2738 36.1054 31.3071 36.1054 35.1469C36.1054 35.4601 36.1072 35.7689 36.109 36.0753C36.1143 36.9681 36.1195 37.8416 36.079 38.7522C36.0526 39.3457 37.6196 40.3998 37.7235 39.0444L37.7252 39.0445L37.7604 38.4156H37.764C37.8075 38.1154 37.8479 37.7312 37.8828 37.3545C37.9218 36.9322 38.3474 36.6604 38.7338 36.8295C38.8965 36.9007 39.0506 36.9706 39.1986 37.0384L39.3388 37.1028L39.3396 37.1031C40.2225 37.5088 40.9042 37.8221 41.9244 37.8221C43.3551 37.8221 44.6661 37.482 45.8055 36.7889C45.8433 36.7659 45.8916 36.7683 45.9259 36.7964C46.7908 37.5042 47.4266 38.6465 47.4266 39.8506C47.4266 43.7967 42.2678 42.198 42.2678 49.6833C42.2678 53.2819 41.7159 56.5535 38.0937 58.3831C37.4014 58.7328 36.6092 58.7876 35.8392 58.7018L35.7543 58.6924C35.1273 58.6295 34.5981 58.2323 34.3454 57.6804C34.2997 57.5807 34.2206 57.4981 34.1168 57.4644C33.4143 57.2365 32.6848 57.0693 31.9343 56.969C31.4685 56.9068 31.1336 56.4695 31.2044 56.0021L31.2132 55.9439L31.2188 55.9055L31.2249 55.8635L31.2369 55.7795C31.2409 55.7502 31.245 55.7208 31.2489 55.6914C31.3217 55.1512 31.8641 54.7957 32.3956 54.9016C32.8893 54.9999 33.3997 55.0515 33.9221 55.0515C35.384 55.0515 36.7521 54.6477 37.9224 53.945C38.0574 53.8639 38.0518 53.6693 37.9123 53.5962C36.8341 53.0318 35.6089 52.7129 34.3095 52.7129C33.7569 52.7129 33.3018 52.7987 32.8172 52.89C32.4698 52.9555 32.1074 53.0238 31.6831 53.0653C31.544 53.0789 31.4132 52.9952 31.3722 52.8608C31.2815 52.563 31.2325 52.2712 31.1999 51.9846C31.1526 51.5693 31.5003 51.2157 31.9153 51.2354L36.3431 51.4461L37.9277 51.4107C37.95 51.408 37.9747 51.4051 38.0016 51.402L38.0033 51.4018C38.4063 51.3551 39.2607 51.2562 38.9137 50.6843C38.775 50.4565 38.5265 50.2439 38.2957 50.0465L38.295 50.0459C38.1917 49.9576 38.0917 49.872 38.0069 49.7896C37.4854 49.2829 36.9838 48.9747 36.211 48.9747C35.7743 48.9747 35.3948 49.1335 35.0198 49.2904C34.654 49.4435 34.2927 49.5947 33.8869 49.5947C33.5135 49.5947 33.37 49.4743 33.1298 49.2236C32.6765 48.7504 33.2767 48.1873 33.9125 48.0369C33.9836 48.02 34.0544 48.0015 34.1246 47.9812C35.2349 47.6606 36.1726 46.9293 36.7651 45.9613C36.9673 45.6311 36.6901 45.2449 36.3074 45.198C35.6764 45.1208 35.2086 44.9072 34.7171 44.6827C34.05 44.3781 33.3394 44.0535 32.1174 44.0229C32.278 42.5006 32.3903 40.7602 32.3903 39.1951C32.3903 37.5229 32.2964 35.8729 32.1135 34.2499C31.6442 31.0141 28.7252 29.309 25.5765 29.309C23.9058 29.354 23.2259 28.689 22.6232 28.0995C22.1556 27.6421 21.7343 27.2301 20.9328 27.2301C20.2833 27.2301 19.8004 27.5003 19.3437 27.8266C19.2341 27.905 19.1264 27.9861 19.0188 28.0672C18.8508 28.1937 18.6829 28.3203 18.5074 28.4362C18.3241 28.5574 18.132 28.6676 17.9231 28.7546C16.6736 29.2756 15.1964 29.0542 14.151 28.1866C14.0517 28.1043 14.0404 27.9561 14.1312 27.8644C14.2071 27.7878 14.2889 27.7173 14.3761 27.6536C14.6976 27.4184 15.1218 27.4943 15.4956 27.63C15.8881 27.7725 16.3114 27.8501 16.7527 27.8501C17.7722 27.8501 18.5076 27.2833 19.2313 26.7256C19.9322 26.1853 20.6222 25.6535 21.5489 25.6535C22.0299 25.6535 22.3997 25.8528 22.7628 26.0486C22.885 26.1144 23.0064 26.1799 23.1311 26.2372C23.383 26.353 23.5814 26.0896 23.4502 25.8442C23.123 25.2323 22.7166 24.6281 22.0945 24.3499C21.7102 24.1779 21.2744 24.1064 20.825 24.1641C20.4301 24.2149 20.0704 24.3597 19.7657 24.573C19.5409 24.7303 19.3347 24.8868 19.1377 25.0364L19.1361 25.0375C18.3031 25.6699 17.6301 26.1808 16.3831 26.1266C16.1029 26.1145 14.7198 25.618 14.8817 25.4239C15.2057 25.0963 15.7513 25.1676 16.2676 25.2351C16.5451 25.2714 16.8141 25.3065 17.0357 25.2781C17.7076 25.1917 18.1127 24.714 18.5203 24.2335L18.526 24.2266C18.5532 24.1946 18.5804 24.1626 18.6076 24.1307C18.6631 24.0658 18.7189 24.0014 18.7758 23.9385C19.3961 23.2517 20.0568 22.8516 20.9981 22.7306C21.4713 22.6697 21.8699 22.8264 22.2736 22.9851C22.6239 23.1228 22.978 23.262 23.3882 23.262C24.189 23.262 24.8386 22.8661 25.4564 22.4116C26.0597 21.9679 26.7395 21.6234 27.4723 21.4019C28.3305 21.1425 29.0214 21.2242 29.7522 21.3106C30.1328 21.3556 30.5248 21.4019 30.9564 21.4019C31.7533 21.4019 32.4405 21.1183 33.1406 20.8294L33.1422 20.8288C33.4071 20.7194 33.6739 20.6093 33.9493 20.5136C34.2162 20.6064 34.4805 20.7144 34.7451 20.8225C35.4593 21.1143 36.1771 21.4076 36.9593 21.4076C37.3913 21.4076 37.7831 21.3613 38.164 21.3163C38.8951 21.2299 39.5861 21.1482 40.4447 21.4076C41.1777 21.6291 41.8578 21.9737 42.4613 22.4174C43.0793 22.8719 43.7291 23.2678 44.5302 23.2678C44.9405 23.2678 45.2948 23.1286 45.6452 22.9909C46.049 22.8323 46.4478 22.6756 46.9211 22.7364C47.8627 22.8575 48.5236 23.2576 49.1442 23.9444C49.1941 23.9996 49.2431 24.0559 49.2918 24.1126C49.328 24.1548 49.3639 24.1971 49.3998 24.2395C49.8075 24.72 50.2128 25.1977 50.8849 25.2841C51.1065 25.3126 51.3757 25.2775 51.6533 25.2412C52.1698 25.1737 52.7155 25.1024 53.0396 25.43C53.2016 25.6242 51.818 26.1206 51.5377 26.1328C50.2903 26.187 49.617 25.6761 48.7837 25.0436C48.5861 24.8936 48.3794 24.7368 48.1539 24.579C47.8491 24.3657 47.4893 24.2209 47.0943 24.1701C46.6447 24.1123 46.2088 24.1839 45.8243 24.3559C45.202 24.6342 44.7954 25.2384 44.4682 25.8503C44.3369 26.0958 44.5354 26.3592 44.7874 26.2434C44.8373 26.2204 44.8867 26.1962 44.9358 26.1711C45.0094 26.1336 45.0824 26.0943 45.1558 26.0547C45.519 25.859 45.889 25.6596 46.3701 25.6596C47.2971 25.6596 47.9873 26.1915 48.6886 26.7318C49.4125 27.2896 50.1481 27.8565 51.168 27.8565C51.6094 27.8565 52.0329 27.7788 52.4255 27.6363C52.7995 27.5006 53.2238 27.4247 53.5454 27.6599C53.6326 27.7236 53.7145 27.7942 53.7904 27.8708C53.8812 27.9624 53.8699 28.1106 53.7706 28.193C52.7248 29.0606 51.2472 29.282 49.9971 28.7611C49.5863 28.5898 49.2403 28.3292 48.8983 28.0715C48.3389 27.65 47.7899 27.2364 46.9864 27.2364C46.2857 27.2364 45.6479 27.5073 45.1708 27.9508ZM48.6068 30.1208C48.9024 30.0553 49.2237 30.1014 49.4965 30.2334C49.5952 30.2811 49.6818 30.3246 49.7197 30.3511C49.7694 30.386 49.8189 30.4218 49.8681 30.458C49.9237 30.4989 49.979 30.5403 50.0342 30.5817C50.5379 30.959 51.0385 31.3339 51.7129 31.2678C51.9353 31.246 52.1899 31.1514 52.4525 31.054C52.9411 30.8726 53.4574 30.681 53.8458 30.9278C54.0467 31.0809 52.8075 31.8745 52.5369 31.9491C51.6667 32.189 51.0237 32.0741 50.3746 31.8296C49.7055 31.5776 49.0966 31.2344 48.479 30.8779L48.3569 30.8075C48.0777 30.6463 48.1421 30.2237 48.4565 30.1541L48.6068 30.1208ZM50.4613 37.0837C50.2983 36.9148 50.4201 36.6464 50.609 36.7309C51.32 37.0487 52.0738 37.1686 52.829 37.048L52.8524 37.0442L52.8746 37.0404L52.8899 37.0377L52.9121 37.0337L52.917 37.0328L52.922 37.0319L52.9266 37.031L52.9344 37.0296L52.9429 37.0279L52.952 37.0262C53.1389 36.9898 53.2685 37.2902 53.11 37.4184C52.8642 37.6171 52.5824 37.7499 52.273 37.7993C51.6257 37.9028 50.9806 37.6217 50.4613 37.0837ZM49.2985 33.1987C49.6267 33.1049 50.0103 33.1505 50.2886 33.3491L50.2969 33.3551L50.2996 33.3571L50.3007 33.3579L50.3022 33.359L50.304 33.3603L50.3088 33.364L50.3113 33.366L50.3142 33.3683L50.3159 33.3696L50.3172 33.3707L50.3183 33.3716L50.3193 33.3724L50.3204 33.3734L50.3213 33.374L50.3273 33.3793L50.3431 33.3937L50.3503 33.4003L50.3671 33.4157L50.393 33.4398L50.4191 33.4643L50.4451 33.4889C50.4666 33.5093 50.488 33.5299 50.5094 33.5506L50.5695 33.6086C50.9579 33.9843 51.3444 34.3582 51.8645 34.2923C52.0359 34.2706 52.2323 34.1765 52.4349 34.0794C52.8116 33.8987 53.2098 33.7078 53.5094 33.9537C53.6642 34.1062 52.7086 34.8966 52.4999 34.9709C51.8289 35.2098 51.333 35.0954 50.8325 34.8519C50.3164 34.6009 49.8468 34.2591 49.3706 33.904L49.1945 33.7727C48.979 33.6121 49.0405 33.2725 49.2985 33.1987ZM19.3284 30.1143C19.0329 30.0488 18.7117 30.0949 18.439 30.2268C18.3404 30.2745 18.2538 30.318 18.2159 30.3446C18.11 30.4189 18.0056 30.4971 17.9015 30.5751C17.398 30.9523 16.8975 31.3272 16.2234 31.2611C16.0011 31.2393 15.7466 31.1448 15.4841 31.0473C14.9957 30.866 14.4795 30.6744 14.0912 30.9212C13.8905 31.0742 15.1292 31.8678 15.3997 31.9424C16.2695 32.1822 16.9124 32.0674 17.5612 31.8229C18.2301 31.5709 18.8388 31.2277 19.4562 30.8713L19.5782 30.8009C19.8573 30.6397 19.793 30.2171 19.4786 30.1475L19.3284 30.1143ZM17.4746 37.0765C17.6376 36.9076 17.5158 36.6393 17.3269 36.7237C16.6162 37.0414 15.8626 37.1614 15.1076 37.0407L15.0843 37.0369L15.0622 37.0332L15.0469 37.0305L15.0246 37.0265L15.0205 37.0257L15.0086 37.0235L14.9986 37.0216L14.9847 37.019C14.7979 36.9826 14.6683 37.283 14.8268 37.4111C15.0725 37.6098 15.3543 37.7426 15.6635 37.792C16.3106 37.8954 16.9554 37.6144 17.4746 37.0765ZM18.6369 33.1919C18.3089 33.098 17.9254 33.1437 17.6472 33.3423L17.6416 33.3462L17.6336 33.3522L17.6293 33.3554L17.6282 33.3563L17.6269 33.3572L17.6245 33.3591L17.6229 33.3604L17.6208 33.362L17.6196 33.363L17.6182 33.3641L17.6162 33.3658L17.6146 33.3672L17.6085 33.3725C17.5865 33.3924 17.5646 33.4126 17.5428 33.4329C17.5254 33.4492 17.508 33.4656 17.4907 33.482C17.449 33.5217 17.4075 33.5619 17.366 33.6021C16.9777 33.9778 16.5917 34.3512 16.0719 34.2854C15.9005 34.2636 15.7042 34.1696 15.5017 34.0724C15.1251 33.8918 14.727 33.7009 14.4276 33.9468C14.2728 34.0992 15.2281 34.8896 15.4367 34.9639C16.1075 35.2028 16.6032 35.0884 17.1036 34.8449C17.6194 34.5939 18.0888 34.2521 18.5649 33.8971L18.741 33.7658C18.9564 33.6052 18.8949 33.2656 18.6369 33.1919ZM23.1082 32.7937C22.8911 33.0127 23.1525 33.2922 23.432 33.1635C24.484 32.679 25.654 32.409 26.8867 32.409C26.9136 32.409 26.9405 32.4091 26.9673 32.4094C27.0076 32.4098 27.0477 32.4105 27.0878 32.4114C27.3946 32.4187 27.5255 32.0581 27.2409 31.9426C26.7997 31.7636 26.3176 31.665 25.8127 31.665C24.7562 31.665 23.7998 32.0964 23.1082 32.7937ZM24.5521 35.4061C24.3091 35.2335 24.3091 34.8812 24.5521 34.7085C25.1142 34.3089 25.8004 34.0742 26.5411 34.0742C27.2817 34.0742 27.9678 34.3089 28.53 34.7085C28.7729 34.8812 28.7729 35.2335 28.53 35.4061C27.9678 35.8057 27.2817 36.0405 26.5411 36.0405C25.8004 36.0405 25.1142 35.8057 24.5521 35.4061ZM29.981 37.8388C30.186 37.3642 30.0299 36.6575 29.5583 36.8638C29.4137 36.927 29.2692 36.9922 29.1246 37.0575C28.2433 37.4549 27.3537 37.8562 26.3677 37.8562C25.5999 37.8562 24.8665 37.7583 24.1757 37.5604C23.9853 37.5059 23.1199 37.1469 22.6582 36.9535C22.4782 36.8781 22.2697 36.906 22.1286 37.0416C21.8211 37.3371 21.5514 37.689 21.341 38.0775C21.0442 38.6255 20.8656 39.2463 20.8656 39.8845C20.8656 41.9174 22.6415 43.4257 24.1318 44.6417C24.3207 44.7958 24.5903 44.8007 24.7807 44.6485C27.0251 42.854 28.8234 40.5189 29.981 37.8388ZM44.8678 33.1288C45.1473 33.2575 45.4087 32.9779 45.1916 32.759C44.5 32.0616 43.5436 31.6301 42.4872 31.6301C41.9822 31.6301 41.5001 31.7287 41.0589 31.9078C40.7743 32.0232 40.9052 32.3839 41.212 32.3766C41.2458 32.3758 41.2798 32.3752 41.3137 32.3748C41.3334 32.3746 41.3532 32.3744 41.3729 32.3743L41.3968 32.3742L41.4132 32.3742C42.6458 32.3742 43.8158 32.6443 44.8678 33.1288ZM43.7477 35.3717C43.9907 35.199 43.9907 34.8467 43.7477 34.674C43.1856 34.2744 42.4994 34.0396 41.7587 34.0396C41.0181 34.0396 40.332 34.2744 39.7698 34.674C39.5269 34.8467 39.5269 35.199 39.7698 35.3717C40.332 35.7713 41.0181 36.0061 41.7587 36.0061C42.4994 36.0061 43.1856 35.7713 43.7477 35.3717ZM33.349 18.5721C33.811 18.1939 34.1207 18.174 34.5989 18.5653C34.6716 18.6248 34.742 18.6805 34.8104 18.7324C35.9364 19.5881 36.4971 19.4453 37.3777 19.221C37.8984 19.0884 38.531 18.9273 39.4583 18.9273C40.1261 18.9273 40.7588 19.0781 41.3247 19.3477C41.8141 19.5809 42.2166 19.9206 42.6138 20.2559C42.928 20.5212 43.239 20.7837 43.5871 20.9884C44.475 21.5105 45.3353 21.309 46.2286 21.0997C46.4434 21.0494 46.6601 20.9986 46.8796 20.9573C47.0394 20.9273 47.2042 20.9116 47.3726 20.9116C48.0223 20.9116 48.6178 21.1453 49.0805 21.5338C49.1274 21.5732 49.1715 21.6125 49.2134 21.6516C49.2593 21.6945 49.3024 21.7372 49.3433 21.7797C49.4047 21.8434 49.4632 21.9097 49.5204 21.9772C49.5658 22.0308 49.6105 22.0851 49.6551 22.1394L49.6556 22.1401C49.774 22.2842 49.8927 22.4289 50.0262 22.5592C50.1804 22.7098 50.3619 22.8477 50.6123 22.9676C51.2999 23.2967 51.8591 23.2273 52.4515 22.9831C52.6601 22.897 52.6053 22.6008 52.3811 22.5765L51.968 22.5318C51.1864 22.4649 50.5009 22.059 50.0574 21.4608C49.9981 21.3808 49.9395 21.3002 49.8808 21.2194C49.6071 20.8431 49.3324 20.4653 48.9884 20.1497C48.4014 19.7977 47.8454 19.7822 47.2757 19.8409C47.1162 19.8573 46.9573 19.8791 46.7984 19.9009C46.7385 19.9091 46.6785 19.9173 46.6185 19.9252L46.5919 19.9287C46.4738 19.9442 46.3556 19.9583 46.2369 19.969C46.0927 19.982 45.9462 19.9903 45.7968 19.9903C45.1902 19.9903 44.6234 19.8188 44.1417 19.5214C43.9209 19.3658 43.7207 19.2226 43.537 19.0905C43.4364 19.0182 43.3408 18.9492 43.2495 18.8832C42.1796 18.1109 41.6952 17.7612 40.7084 17.4662C39.8141 17.1987 38.9827 17.2977 38.1267 17.3996C37.9922 17.4156 37.8579 17.4334 37.7236 17.4512C37.4434 17.4883 37.1625 17.5255 36.8805 17.5464C36.6941 17.5603 36.6009 17.5673 36.5562 17.4923C36.5116 17.4172 36.5592 17.3419 36.6543 17.1912C36.8279 16.9163 37.0608 16.6794 37.3367 16.5117C38.1164 16.0378 39.3143 15.9459 40.2102 15.9628C40.8194 15.9743 41.394 16.1224 41.9057 16.3775C42.0946 16.4716 42.2686 16.5831 42.4339 16.7043C42.6509 16.8634 42.8541 17.0411 43.0573 17.2188C43.2411 17.3794 43.4249 17.5401 43.619 17.6871C43.7233 17.7662 43.8303 17.8409 43.9418 17.9092C44.8108 18.441 45.3884 18.2986 46.1551 18.1096C46.3952 18.0504 46.6539 17.9866 46.9459 17.9375C47.1539 17.9026 47.3629 17.9081 47.5718 17.9135C47.7639 17.9185 47.9559 17.9236 48.1471 17.8972C48.3792 17.8652 48.4214 17.5657 48.2347 17.4235C47.8329 17.1177 47.4863 16.905 46.902 16.9738C46.6024 17.009 46.2954 17.0451 45.9745 17.0391C45.4211 17.0286 44.907 16.8629 44.4726 16.584C44.4144 16.5415 44.3579 16.4999 44.3028 16.4593C44.2383 16.4118 44.1759 16.3657 44.1153 16.3208C43.9936 16.2304 43.8723 16.1393 43.751 16.0482L43.7472 16.0453C43.5073 15.8653 43.2675 15.6852 43.0237 15.5106C42.4565 15.1043 42.044 14.8682 41.3754 14.6549C40.5641 14.3962 39.804 14.4719 39.0214 14.5499C38.6008 14.5919 38.1737 14.6344 37.7286 14.626C37.5429 14.6225 37.2801 14.5953 37.0471 14.5664C36.8164 14.5377 36.7011 14.5234 36.6726 14.4394C36.6441 14.3553 36.7264 14.2734 36.891 14.1095C36.9739 14.027 37.0575 13.9467 37.1262 13.8869C37.6873 13.3984 38.3404 13.319 39.0558 13.2814C39.6932 13.2478 40.3028 13.3392 40.8531 13.531C41.3506 13.7043 41.7897 13.9386 42.2141 14.165C43.31 14.7497 44.3036 15.0883 45.5382 14.7384C45.7216 14.6868 45.7735 14.4444 45.6245 14.3251C45.2574 14.0311 44.8558 13.8652 44.393 13.7787C43.6553 13.6409 42.9691 13.2717 42.2809 12.9015C41.604 12.5374 40.9253 12.1723 40.1939 12.0254C39.3302 11.8519 38.5403 11.9745 37.7271 12.1007C36.5213 12.2878 35.6649 12.684 34.5812 13.2306C34.4812 13.2811 34.3751 13.3212 34.2643 13.3498C34.0343 13.409 33.8308 13.4057 33.6041 13.3344C33.5218 13.3086 33.4425 13.2762 33.3666 13.2379C32.2834 12.6914 31.4272 12.2952 30.2218 12.1081C29.4089 11.982 28.6193 11.8594 27.7559 12.0328C27.0247 12.1797 26.3462 12.5448 25.6695 12.9089C24.9817 13.2791 24.2958 13.6482 23.5582 13.786C23.0957 13.8724 22.6942 14.0383 22.3272 14.3323C22.1783 14.4516 22.2301 14.694 22.4135 14.7456C23.6476 15.0955 24.6409 14.7568 25.7365 14.1722C26.1607 13.9458 26.5996 13.7116 27.0969 13.5383C27.647 13.3465 28.2564 13.2552 28.8936 13.2887C29.6087 13.3263 30.2616 13.4057 30.8226 13.8942C30.8527 13.9204 30.8857 13.9506 30.9204 13.9832C30.9645 14.0249 31.0112 14.0705 31.0577 14.1168C31.2222 14.2806 31.3045 14.3626 31.276 14.4466C31.2475 14.5306 31.1322 14.5449 30.9017 14.5735C30.6687 14.6025 30.406 14.6297 30.2203 14.6332C29.7757 14.6416 29.3489 14.5991 28.9286 14.5572C28.1464 14.4792 27.3858 14.4034 26.5748 14.6621C25.68 14.9476 25.2442 15.274 24.2816 15.995L24.2791 15.9968C24.0474 16.1704 23.7852 16.3668 23.4787 16.591C23.0444 16.8698 22.5305 17.0356 21.9774 17.046C21.6565 17.0521 21.3496 17.0159 21.0502 16.9807C20.4661 16.9119 20.1196 17.1246 19.7179 17.4304C19.5313 17.5725 19.5735 17.872 19.8054 17.904C19.9953 17.9302 20.187 17.9234 20.3783 17.9166L20.3816 17.9165C20.4187 17.9151 20.4557 17.9138 20.4926 17.9128C20.5138 17.9122 20.5349 17.9116 20.5559 17.9112C20.7096 17.9083 20.8601 17.9198 21.0063 17.9444C21.2982 17.9934 21.5568 18.0572 21.7968 18.1164C22.5633 18.3054 23.1406 18.4477 24.0093 17.916C24.3233 17.7238 24.6024 17.4797 24.8843 17.233C25.2408 16.9212 25.6023 16.605 26.0447 16.3845C26.5562 16.1294 27.1306 15.9813 27.7396 15.9699C28.6352 15.953 29.8327 16.0449 30.6121 16.5187C30.8879 16.6864 31.1207 16.9232 31.2942 17.1981C31.3893 17.3488 31.4369 17.4241 31.3923 17.4991C31.3477 17.5741 31.2545 17.5672 31.0681 17.5533C30.786 17.5323 30.5057 17.4952 30.2254 17.458L30.1112 17.443C30.0668 17.4371 30.0223 17.4313 29.9779 17.4257C29.9261 17.4191 29.8742 17.4126 29.8224 17.4064C28.9667 17.3046 28.1356 17.2056 27.2416 17.473C26.2552 17.7681 25.7709 18.1177 24.7014 18.8899C24.4433 19.0763 24.151 19.2873 23.8094 19.5281C23.3279 19.8254 22.7614 19.9969 22.155 19.9969C21.8033 19.9969 21.4678 19.9508 21.1403 19.9059C20.697 19.8451 20.2688 19.7863 19.8355 19.8467C19.3079 19.9202 18.929 20.15 18.5912 20.5484C18.4537 20.7106 18.3285 20.8854 18.2031 21.0604C18.0066 21.3348 17.8095 21.6099 17.5643 21.8375C17.1417 22.2297 16.5928 22.4861 15.986 22.538L15.5729 22.5828C15.3489 22.607 15.2941 22.9033 15.5026 22.9893C15.8585 23.1361 16.2025 23.2197 16.5695 23.1916C16.9956 23.159 17.423 22.9816 17.758 22.7151C17.9749 22.5425 18.1549 22.3299 18.3346 22.1175C18.4421 21.9904 18.5495 21.8635 18.6647 21.7453C18.8308 21.5748 19.0099 21.4184 19.2193 21.2931C19.6176 21.0549 20.0828 20.918 20.5797 20.918C20.7481 20.918 20.9129 20.9338 21.0726 20.9638C21.332 21.0126 21.5874 21.0802 21.8427 21.1478C22.0561 21.2043 22.2696 21.2608 22.4854 21.3063C23.0783 21.4313 23.6223 21.431 24.3639 20.9949C24.7119 20.7902 25.0228 20.5277 25.3369 20.2625C25.7339 19.9272 26.1362 19.5875 26.6256 19.3544C27.1912 19.0848 27.8237 18.934 28.4912 18.934C29.4182 18.934 30.0505 19.0951 30.5711 19.2277C31.4743 19.4578 32.0409 19.6021 33.2264 18.6704C33.2465 18.6546 33.2668 18.6385 33.2873 18.6221C33.3077 18.6057 33.3283 18.5891 33.349 18.5721Z" fill="white"/>
</g>
<g opacity="0.6" filter="url(#filter0_f_1330_8767)">
<circle cx="34" cy="34" r="32" stroke="#F4F4F5" stroke-width="30"/>
</g>
<circle cx="34" cy="34" r="18" fill="#F4F4F5"/>
<g filter="url(#filter1_dd_1330_8767)">
<path fill-rule="evenodd" clip-rule="evenodd" d="M14 34C14 24.5719 14 19.8579 16.9289 16.9289C19.8579 14 24.5719 14 34 14C43.4281 14 48.1421 14 51.0711 16.9289C54 19.8579 54 24.5719 54 34C54 43.4281 54 48.1421 51.0711 51.0711C48.1421 54 43.4281 54 34 54C24.5719 54 19.8579 54 16.9289 51.0711C14 48.1421 14 43.4281 14 34ZM20 26.9996V25C20 23.3431 21.3431 22 23 22H45C46.6569 22 48 23.3431 48 25V26.9996C47.1643 26.3719 46.1256 26 45 26H23C21.8744 26 20.8357 26.3719 20 26.9996ZM20 31V32.9996C20.8357 32.3719 21.8744 32 23 32H45C46.1256 32 47.1643 32.3719 48 32.9996V31C48 29.3431 46.6569 28 45 28H23C21.3431 28 20 29.3431 20 31ZM50 38.5003C50.8284 38.5003 51.5 39.1719 51.5 40.0003C51.5 40.8287 50.8284 41.5003 50 41.5003H45.3137C43.5563 41.5003 43.0955 41.5269 42.7001 41.6906C42.3048 41.8544 41.9602 42.1614 40.7175 43.4041L40.1086 44.0132C39.2446 44.8786 38.5622 45.5622 37.6934 45.9728C37.5315 46.0494 37.366 46.1179 37.1974 46.1783C36.2927 46.5023 35.3268 46.5014 34.1039 46.5004L33.8923 46.5003L33.6681 46.5004C32.3754 46.5016 31.3543 46.5025 30.407 46.1437C30.2306 46.0769 30.0578 46.001 29.8893 45.9165C28.9838 45.4623 28.2931 44.7101 27.4187 43.7581L27.1961 43.5159C26.0194 42.2369 25.6911 41.9182 25.3102 41.7387C25.2698 41.7197 25.229 41.7018 25.1877 41.685C24.7977 41.5261 24.3409 41.5003 22.6029 41.5003H18C17.1716 41.5003 16.5 40.8287 16.5 40.0003C16.5 39.1719 17.1716 38.5003 18 38.5003L20.041 38.5002V36.5007C20.2788 35.0815 21.5129 34 22.9997 34H44.9996C46.4864 34 47.7205 35.0815 47.9583 36.5007V38.5002L50 38.5003Z" fill="#71717A"/>
</g>
</g>
<defs>
<filter id="filter0_f_1330_8767" x="-47" y="-47" width="162" height="162" filterUnits="userSpaceOnUse" color-interpolation-filters="sRGB">
<feFlood flood-opacity="0" result="BackgroundImageFix"/>
<feBlend mode="normal" in="SourceGraphic" in2="BackgroundImageFix" result="shape"/>
<feGaussianBlur stdDeviation="17" result="effect1_foregroundBlur_1330_8767"/>
</filter>
<filter id="filter1_dd_1330_8767" x="2" y="12" width="64" height="64" filterUnits="userSpaceOnUse" color-interpolation-filters="sRGB">
<feFlood flood-opacity="0" result="BackgroundImageFix"/>
<feColorMatrix in="SourceAlpha" type="matrix" values="0 0 0 0 0 0 0 0 0 0 0 0 0 0 0 0 0 0 127 0" result="hardAlpha"/>
<feMorphology radius="4" operator="erode" in="SourceAlpha" result="effect1_dropShadow_1330_8767"/>
<feOffset dy="4"/>
<feGaussianBlur stdDeviation="3"/>
<feColorMatrix type="matrix" values="0 0 0 0 0 0 0 0 0 0 0 0 0 0 0 0 0 0 0.1 0"/>
<feBlend mode="normal" in2="BackgroundImageFix" result="effect1_dropShadow_1330_8767"/>
<feColorMatrix in="SourceAlpha" type="matrix" values="0 0 0 0 0 0 0 0 0 0 0 0 0 0 0 0 0 0 127 0" result="hardAlpha"/>
<feMorphology radius="3" operator="erode" in="SourceAlpha" result="effect2_dropShadow_1330_8767"/>
<feOffset dy="10"/>
<feGaussianBlur stdDeviation="7.5"/>
<feColorMatrix type="matrix" values="0 0 0 0 0 0 0 0 0 0 0 0 0 0 0 0 0 0 0.1 0"/>
<feBlend mode="normal" in2="effect1_dropShadow_1330_8767" result="effect2_dropShadow_1330_8767"/>
<feBlend mode="normal" in="SourceGraphic" in2="effect2_dropShadow_1330_8767" result="shape"/>
</filter>
<clipPath id="clip0_1330_8767">
<path d="M0 22.4C0 14.5593 0 10.6389 1.52591 7.64413C2.86814 5.00986 5.00986 2.86814 7.64413 1.52591C10.6389 0 14.5593 0 22.4 0H45.6C53.4407 0 57.3611 0 60.3559 1.52591C62.9901 2.86814 65.1319 5.00986 66.4741 7.64413C68 10.6389 68 14.5593 68 22.4V45.6C68 53.4407 68 57.3611 66.4741 60.3559C65.1319 62.9901 62.9901 65.1319 60.3559 66.4741C57.3611 68 53.4407 68 45.6 68H22.4C14.5593 68 10.6389 68 7.64413 66.4741C5.00986 65.1319 2.86814 62.9901 1.52591 60.3559C0 57.3611 0 53.4407 0 45.6V22.4Z" fill="white"/>
</clipPath>
<clipPath id="clip1_1330_8767">
<rect width="66" height="66" fill="white" transform="translate(1 1)"/>
</clipPath>
</defs>
</svg>
