<svg width="31" height="30" viewBox="0 0 31 30" fill="none" xmlns="http://www.w3.org/2000/svg">
<g id="image">
<path id="Rectangle 126" opacity="0.4" d="M0.5 6C0.5 2.68629 3.18629 0 6.5 0H24.5C27.8137 0 30.5 2.68629 30.5 6V24C30.5 27.3137 27.8137 30 24.5 30H6.5C3.18629 30 0.5 27.3137 0.5 24V6Z" fill="#71717A"/>
<g id="Vector">
<path d="M6.5 29.9998H24.5C27.8137 29.9998 30.5 27.3135 30.5 23.9998V17.9998L26.0915 14.8256C23.8007 13.1763 20.67 13.3467 18.5719 15.2351L12.4281 20.7645C10.33 22.6528 7.1993 22.8233 4.90851 21.1739L0.5 17.9998V23.9998C0.5 27.3135 3.18629 29.9998 6.5 29.9998Z" fill="#71717A"/>
</g>
<circle id="Ellipse 125" cx="10.25" cy="9.75" r="3.75" fill="#71717A"/>
</g>
</svg>
